<svg viewBox="0 0 780 340" width="100%" height="340" xmlns="http://www.w3.org/2000/svg" role="img" aria-label="Percentile Over Time (lower is better)">
<rect width="780" height="340" fill="#0f1115" rx="12"/>
<text x="390.0" y="20" text-anchor="middle" font-family="sans-serif" font-size="14" font-weight="600" fill="#e6e6e6">Percentile Over Time (lower is better)</text>
<line x1="62" x2="762" y1="275.6" y2="275.6" stroke="#2a2f3a" stroke-width="1" stroke-dasharray="4 6"/>
<text x="54" y="279.6" text-anchor="end" font-family="sans-serif" font-size="11" fill="#9aa0ad">20</text>
<line x1="62" x2="762" y1="210.1" y2="210.1" stroke="#2a2f3a" stroke-width="1" stroke-dasharray="4 6"/>
<text x="54" y="214.1" text-anchor="end" font-family="sans-serif" font-size="11" fill="#9aa0ad">40</text>
<line x1="62" x2="762" y1="144.6" y2="144.6" stroke="#2a2f3a" stroke-width="1" stroke-dasharray="4 6"/>
<text x="54" y="148.6" text-anchor="end" font-family="sans-serif" font-size="11" fill="#9aa0ad">60</text>
<line x1="62" x2="762" y1="79.1" y2="79.1" stroke="#2a2f3a" stroke-width="1" stroke-dasharray="4 6"/>
<text x="54" y="83.1" text-anchor="end" font-family="sans-serif" font-size="11" fill="#9aa0ad">80</text>
<line x1="62" x2="762" y1="46.4" y2="46.4" stroke="#2a2f3a" stroke-width="1" stroke-dasharray="4 6"/>
<text x="54" y="50.4" text-anchor="end" font-family="sans-serif" font-size="11" fill="#9aa0ad">90</text>
<line x1="62.0" x2="62.0" y1="292" y2="296" stroke="#3a4150" stroke-width="1"/>
<text x="62.0" y="326" text-anchor="middle" font-family="sans-serif" font-size="11" fill="#9aa0ad">8/13</text>
<line x1="76.0" x2="76.0" y1="292" y2="296" stroke="#3a4150" stroke-width="1"/>
<text x="76.0" y="326" text-anchor="middle" font-family="sans-serif" font-size="11" fill="#9aa0ad">8/14</text>
<line x1="90.0" x2="90.0" y1="292" y2="296" stroke="#3a4150" stroke-width="1"/>
<text x="90.0" y="326" text-anchor="middle" font-family="sans-serif" font-size="11" fill="#9aa0ad">8/15</text>
<line x1="104.0" x2="104.0" y1="292" y2="296" stroke="#3a4150" stroke-width="1"/>
<text x="104.0" y="326" text-anchor="middle" font-family="sans-serif" font-size="11" fill="#9aa0ad">8/16</text>
<line x1="118.0" x2="118.0" y1="292" y2="296" stroke="#3a4150" stroke-width="1"/>
<text x="118.0" y="326" text-anchor="middle" font-family="sans-serif" font-size="11" fill="#9aa0ad">8/17</text>
<line x1="132.0" x2="132.0" y1="292" y2="296" stroke="#3a4150" stroke-width="1"/>
<text x="132.0" y="326" text-anchor="middle" font-family="sans-serif" font-size="11" fill="#9aa0ad">8/18</text>
<line x1="146.0" x2="146.0" y1="292" y2="296" stroke="#3a4150" stroke-width="1"/>
<text x="146.0" y="326" text-anchor="middle" font-family="sans-serif" font-size="11" fill="#9aa0ad">8/20</text>
<line x1="160.0" x2="160.0" y1="292" y2="296" stroke="#3a4150" stroke-width="1"/>
<text x="160.0" y="326" text-anchor="middle" font-family="sans-serif" font-size="11" fill="#9aa0ad">8/21</text>
<line x1="174.0" x2="174.0" y1="292" y2="296" stroke="#3a4150" stroke-width="1"/>
<text x="174.0" y="326" text-anchor="middle" font-family="sans-serif" font-size="11" fill="#9aa0ad">8/22</text>
<line x1="188.0" x2="188.0" y1="292" y2="296" stroke="#3a4150" stroke-width="1"/>
<text x="188.0" y="326" text-anchor="middle" font-family="sans-serif" font-size="11" fill="#9aa0ad">8/23</text>
<line x1="202.0" x2="202.0" y1="292" y2="296" stroke="#3a4150" stroke-width="1"/>
<text x="202.0" y="326" text-anchor="middle" font-family="sans-serif" font-size="11" fill="#9aa0ad">8/24</text>
<line x1="216.0" x2="216.0" y1="292" y2="296" stroke="#3a4150" stroke-width="1"/>
<text x="216.0" y="326" text-anchor="middle" font-family="sans-serif" font-size="11" fill="#9aa0ad">8/25</text>
<line x1="230.0" x2="230.0" y1="292" y2="296" stroke="#3a4150" stroke-width="1"/>
<text x="230.0" y="326" text-anchor="middle" font-family="sans-serif" font-size="11" fill="#9aa0ad">8/26</text>
<line x1="244.0" x2="244.0" y1="292" y2="296" stroke="#3a4150" stroke-width="1"/>
<text x="244.0" y="326" text-anchor="middle" font-family="sans-serif" font-size="11" fill="#9aa0ad">8/27</text>
<line x1="258.0" x2="258.0" y1="292" y2="296" stroke="#3a4150" stroke-width="1"/>
<text x="258.0" y="326" text-anchor="middle" font-family="sans-serif" font-size="11" fill="#9aa0ad">8/29</text>
<line x1="272.0" x2="272.0" y1="292" y2="296" stroke="#3a4150" stroke-width="1"/>
<text x="272.0" y="326" text-anchor="middle" font-family="sans-serif" font-size="11" fill="#9aa0ad">8/30</text>
<line x1="286.0" x2="286.0" y1="292" y2="296" stroke="#3a4150" stroke-width="1"/>
<text x="286.0" y="326" text-anchor="middle" font-family="sans-serif" font-size="11" fill="#9aa0ad">8/31</text>
<line x1="300.0" x2="300.0" y1="292" y2="296" stroke="#3a4150" stroke-width="1"/>
<text x="300.0" y="326" text-anchor="middle" font-family="sans-serif" font-size="11" fill="#9aa0ad">9/1</text>
<line x1="314.0" x2="314.0" y1="292" y2="296" stroke="#3a4150" stroke-width="1"/>
<text x="314.0" y="326" text-anchor="middle" font-family="sans-serif" font-size="11" fill="#9aa0ad">9/2</text>
<line x1="328.0" x2="328.0" y1="292" y2="296" stroke="#3a4150" stroke-width="1"/>
<text x="328.0" y="326" text-anchor="middle" font-family="sans-serif" font-size="11" fill="#9aa0ad">9/3</text>
<line x1="342.0" x2="342.0" y1="292" y2="296" stroke="#3a4150" stroke-width="1"/>
<text x="342.0" y="326" text-anchor="middle" font-family="sans-serif" font-size="11" fill="#9aa0ad">9/4</text>
<line x1="356.0" x2="356.0" y1="292" y2="296" stroke="#3a4150" stroke-width="1"/>
<text x="356.0" y="326" text-anchor="middle" font-family="sans-serif" font-size="11" fill="#9aa0ad">9/5</text>
<line x1="370.0" x2="370.0" y1="292" y2="296" stroke="#3a4150" stroke-width="1"/>
<text x="370.0" y="326" text-anchor="middle" font-family="sans-serif" font-size="11" fill="#9aa0ad">9/6</text>
<line x1="384.0" x2="384.0" y1="292" y2="296" stroke="#3a4150" stroke-width="1"/>
<text x="384.0" y="326" text-anchor="middle" font-family="sans-serif" font-size="11" fill="#9aa0ad">9/7</text>
<line x1="398.0" x2="398.0" y1="292" y2="296" stroke="#3a4150" stroke-width="1"/>
<text x="398.0" y="326" text-anchor="middle" font-family="sans-serif" font-size="11" fill="#9aa0ad">9/8</text>
<line x1="412.0" x2="412.0" y1="292" y2="296" stroke="#3a4150" stroke-width="1"/>
<text x="412.0" y="326" text-anchor="middle" font-family="sans-serif" font-size="11" fill="#9aa0ad">9/9</text>
<line x1="426.0" x2="426.0" y1="292" y2="296" stroke="#3a4150" stroke-width="1"/>
<text x="426.0" y="326" text-anchor="middle" font-family="sans-serif" font-size="11" fill="#9aa0ad">9/10</text>
<line x1="440.0" x2="440.0" y1="292" y2="296" stroke="#3a4150" stroke-width="1"/>
<text x="440.0" y="326" text-anchor="middle" font-family="sans-serif" font-size="11" fill="#9aa0ad">9/11</text>
<line x1="454.0" x2="454.0" y1="292" y2="296" stroke="#3a4150" stroke-width="1"/>
<text x="454.0" y="326" text-anchor="middle" font-family="sans-serif" font-size="11" fill="#9aa0ad">9/12</text>
<line x1="468.0" x2="468.0" y1="292" y2="296" stroke="#3a4150" stroke-width="1"/>
<text x="468.0" y="326" text-anchor="middle" font-family="sans-serif" font-size="11" fill="#9aa0ad">9/13</text>
<line x1="482.0" x2="482.0" y1="292" y2="296" stroke="#3a4150" stroke-width="1"/>
<text x="482.0" y="326" text-anchor="middle" font-family="sans-serif" font-size="11" fill="#9aa0ad">9/14</text>
<line x1="496.0" x2="496.0" y1="292" y2="296" stroke="#3a4150" stroke-width="1"/>
<text x="496.0" y="326" text-anchor="middle" font-family="sans-serif" font-size="11" fill="#9aa0ad">9/15</text>
<line x1="510.0" x2="510.0" y1="292" y2="296" stroke="#3a4150" stroke-width="1"/>
<text x="510.0" y="326" text-anchor="middle" font-family="sans-serif" font-size="11" fill="#9aa0ad">9/16</text>
<line x1="524.0" x2="524.0" y1="292" y2="296" stroke="#3a4150" stroke-width="1"/>
<text x="524.0" y="326" text-anchor="middle" font-family="sans-serif" font-size="11" fill="#9aa0ad">9/17</text>
<line x1="538.0" x2="538.0" y1="292" y2="296" stroke="#3a4150" stroke-width="1"/>
<text x="538.0" y="326" text-anchor="middle" font-family="sans-serif" font-size="11" fill="#9aa0ad">9/18</text>
<line x1="552.0" x2="552.0" y1="292" y2="296" stroke="#3a4150" stroke-width="1"/>
<text x="552.0" y="326" text-anchor="middle" font-family="sans-serif" font-size="11" fill="#9aa0ad">9/19</text>
<line x1="566.0" x2="566.0" y1="292" y2="296" stroke="#3a4150" stroke-width="1"/>
<text x="566.0" y="326" text-anchor="middle" font-family="sans-serif" font-size="11" fill="#9aa0ad">9/20</text>
<line x1="580.0" x2="580.0" y1="292" y2="296" stroke="#3a4150" stroke-width="1"/>
<text x="580.0" y="326" text-anchor="middle" font-family="sans-serif" font-size="11" fill="#9aa0ad">9/21</text>
<line x1="594.0" x2="594.0" y1="292" y2="296" stroke="#3a4150" stroke-width="1"/>
<text x="594.0" y="326" text-anchor="middle" font-family="sans-serif" font-size="11" fill="#9aa0ad">9/22</text>
<line x1="608.0" x2="608.0" y1="292" y2="296" stroke="#3a4150" stroke-width="1"/>
<text x="608.0" y="326" text-anchor="middle" font-family="sans-serif" font-size="11" fill="#9aa0ad">9/23</text>
<line x1="622.0" x2="622.0" y1="292" y2="296" stroke="#3a4150" stroke-width="1"/>
<text x="622.0" y="326" text-anchor="middle" font-family="sans-serif" font-size="11" fill="#9aa0ad">9/24</text>
<line x1="636.0" x2="636.0" y1="292" y2="296" stroke="#3a4150" stroke-width="1"/>
<text x="636.0" y="326" text-anchor="middle" font-family="sans-serif" font-size="11" fill="#9aa0ad">9/25</text>
<line x1="650.0" x2="650.0" y1="292" y2="296" stroke="#3a4150" stroke-width="1"/>
<text x="650.0" y="326" text-anchor="middle" font-family="sans-serif" font-size="11" fill="#9aa0ad">9/26</text>
<line x1="664.0" x2="664.0" y1="292" y2="296" stroke="#3a4150" stroke-width="1"/>
<text x="664.0" y="326" text-anchor="middle" font-family="sans-serif" font-size="11" fill="#9aa0ad">9/27</text>
<line x1="678.0" x2="678.0" y1="292" y2="296" stroke="#3a4150" stroke-width="1"/>
<text x="678.0" y="326" text-anchor="middle" font-family="sans-serif" font-size="11" fill="#9aa0ad">9/28</text>
<line x1="692.0" x2="692.0" y1="292" y2="296" stroke="#3a4150" stroke-width="1"/>
<text x="692.0" y="326" text-anchor="middle" font-family="sans-serif" font-size="11" fill="#9aa0ad">9/29</text>
<line x1="706.0" x2="706.0" y1="292" y2="296" stroke="#3a4150" stroke-width="1"/>
<text x="706.0" y="326" text-anchor="middle" font-family="sans-serif" font-size="11" fill="#9aa0ad">9/30</text>
<line x1="720.0" x2="720.0" y1="292" y2="296" stroke="#3a4150" stroke-width="1"/>
<text x="720.0" y="326" text-anchor="middle" font-family="sans-serif" font-size="11" fill="#9aa0ad">10/1</text>
<line x1="734.0" x2="734.0" y1="292" y2="296" stroke="#3a4150" stroke-width="1"/>
<text x="734.0" y="326" text-anchor="middle" font-family="sans-serif" font-size="11" fill="#9aa0ad">10/2</text>
<line x1="748.0" x2="748.0" y1="292" y2="296" stroke="#3a4150" stroke-width="1"/>
<text x="748.0" y="326" text-anchor="middle" font-family="sans-serif" font-size="11" fill="#9aa0ad">10/3</text>
<line x1="762.0" x2="762.0" y1="292" y2="296" stroke="#3a4150" stroke-width="1"/>
<text x="762.0" y="326" text-anchor="middle" font-family="sans-serif" font-size="11" fill="#9aa0ad">10/4</text>
<line x1="62" x2="62" y1="30" y2="292" stroke="#3a4150" stroke-width="1.2"/>
<line x1="62" x2="762" y1="292" y2="292" stroke="#3a4150" stroke-width="1.2"/>
<text x="14" y="161.0" text-anchor="middle" transform="rotate(-90,14,161.0)" font-family="sans-serif" font-size="11" fill="#9aa0ad">Top %</text>
<path d="M 62.0,133.9 L 76.0,135.2 L 90.0,136.5 L 104.0,137.8 L 118.0,139.0 L 132.0,140.3 L 146.0,141.6 L 160.0,142.9 L 174.0,144.2 L 188.0,145.4 L 202.0,146.7 L 216.0,148.0 L 230.0,149.3 L 244.0,150.6 L 258.0,151.9 L 272.0,153.1 L 286.0,154.4 L 300.0,155.7 L 314.0,157.0 L 328.0,158.3 L 342.0,159.5 L 356.0,160.8 L 370.0,162.1 L 384.0,163.4 L 398.0,164.7 L 412.0,165.9 L 426.0,167.2 L 440.0,168.5 L 454.0,169.8 L 468.0,171.1 L 482.0,172.3 L 496.0,173.6 L 510.0,174.9 L 524.0,176.2 L 538.0,177.5 L 552.0,178.8 L 566.0,180.0 L 580.0,181.3 L 594.0,182.6 L 608.0,183.9 L 622.0,185.2 L 636.0,186.4 L 650.0,187.7 L 664.0,189.0 L 678.0,190.3 L 692.0,191.6 L 706.0,192.8 L 720.0,194.1 L 734.0,195.4 L 748.0,196.7 L 762.0,198.0" fill="none" stroke="#f2c14e" stroke-width="1.8" opacity="0.9" stroke-dasharray="8 6" stroke-linecap="round" stroke-linejoin="round"/>
<path d="M 62.0,134.8 L 76.0,193.8 L 90.0,56.2 L 104.0,249.4 L 118.0,72.6 L 132.0,75.9 L 146.0,102.1 L 160.0,98.8 L 174.0,177.4 L 188.0,138.1 L 202.0,125.0 L 216.0,95.5 L 230.0,219.9 L 244.0,95.5 L 258.0,206.8 L 272.0,39.8 L 286.0,278.9 L 300.0,203.6 L 314.0,108.6 L 328.0,167.6 L 342.0,187.2 L 356.0,262.5 L 370.0,118.4 L 384.0,213.4 L 398.0,134.8 L 412.0,134.8 L 426.0,193.8 L 440.0,259.2 L 454.0,180.7 L 468.0,282.2 L 482.0,141.4 L 496.0,128.2 L 510.0,151.2 L 524.0,167.6 L 538.0,75.9 L 552.0,105.3 L 566.0,236.3 L 580.0,187.2 L 594.0,200.3 L 608.0,174.1 L 622.0,223.2 L 636.0,141.4 L 650.0,252.7 L 664.0,187.2 L 678.0,79.1 L 692.0,197.0 L 706.0,216.7 L 720.0,213.4 L 734.0,242.9 L 748.0,174.1 L 762.0,161.0" fill="none" stroke="#7aa5ff" stroke-width="2.5" stroke-linecap="round" stroke-linejoin="round"/>
<path d="M 62.0,134.8 L 76.0,193.8 L 90.0,56.2 L 104.0,249.4 L 118.0,72.6 L 132.0,75.9 L 146.0,102.1 L 160.0,98.8 L 174.0,177.4 L 188.0,138.1 L 202.0,125.0 L 216.0,95.5 L 230.0,219.9 L 244.0,95.5 L 258.0,206.8 L 272.0,39.8 L 286.0,278.9 L 300.0,203.6 L 314.0,108.6 L 328.0,167.6 L 342.0,187.2 L 356.0,262.5 L 370.0,118.4 L 384.0,213.4 L 398.0,134.8 L 412.0,134.8 L 426.0,193.8 L 440.0,259.2 L 454.0,180.7 L 468.0,282.2 L 482.0,141.4 L 496.0,128.2 L 510.0,151.2 L 524.0,167.6 L 538.0,75.9 L 552.0,105.3 L 566.0,236.3 L 580.0,187.2 L 594.0,200.3 L 608.0,174.1 L 622.0,223.2 L 636.0,141.4 L 650.0,252.7 L 664.0,187.2 L 678.0,79.1 L 692.0,197.0 L 706.0,216.7 L 720.0,213.4 L 734.0,242.9 L 748.0,174.1 L 762.0,161.0 L 762.0,292.0 L 62.0,292.0 Z" fill="#7aa5ff" opacity="0.08"/>
<circle cx="62.0" cy="134.8" r="4" fill="#7aa5ff" stroke="#0f1115" stroke-width="1.5"><title>8/13: 63</title></circle>
<circle cx="76.0" cy="193.8" r="4" fill="#7aa5ff" stroke="#0f1115" stroke-width="1.5"><title>8/14: 45</title></circle>
<circle cx="90.0" cy="56.2" r="4" fill="#7aa5ff" stroke="#0f1115" stroke-width="1.5"><title>8/15: 87</title></circle>
<circle cx="104.0" cy="249.4" r="4" fill="#7aa5ff" stroke="#0f1115" stroke-width="1.5"><title>8/16: 28</title></circle>
<circle cx="118.0" cy="72.6" r="4" fill="#7aa5ff" stroke="#0f1115" stroke-width="1.5"><title>8/17: 82</title></circle>
<circle cx="132.0" cy="75.9" r="4" fill="#7aa5ff" stroke="#0f1115" stroke-width="1.5"><title>8/18: 81</title></circle>
<circle cx="146.0" cy="102.1" r="4" fill="#7aa5ff" stroke="#0f1115" stroke-width="1.5"><title>8/20: 73</title></circle>
<circle cx="160.0" cy="98.8" r="4" fill="#7aa5ff" stroke="#0f1115" stroke-width="1.5"><title>8/21: 74</title></circle>
<circle cx="174.0" cy="177.4" r="4" fill="#7aa5ff" stroke="#0f1115" stroke-width="1.5"><title>8/22: 50</title></circle>
<circle cx="188.0" cy="138.1" r="4" fill="#7aa5ff" stroke="#0f1115" stroke-width="1.5"><title>8/23: 62</title></circle>
<circle cx="202.0" cy="125.0" r="4" fill="#7aa5ff" stroke="#0f1115" stroke-width="1.5"><title>8/24: 66</title></circle>
<circle cx="216.0" cy="95.5" r="4" fill="#7aa5ff" stroke="#0f1115" stroke-width="1.5"><title>8/25: 75</title></circle>
<circle cx="230.0" cy="219.9" r="4" fill="#7aa5ff" stroke="#0f1115" stroke-width="1.5"><title>8/26: 37</title></circle>
<circle cx="244.0" cy="95.5" r="4" fill="#7aa5ff" stroke="#0f1115" stroke-width="1.5"><title>8/27: 75</title></circle>
<circle cx="258.0" cy="206.8" r="4" fill="#7aa5ff" stroke="#0f1115" stroke-width="1.5"><title>8/29: 41</title></circle>
<circle cx="272.0" cy="39.8" r="4" fill="#7aa5ff" stroke="#0f1115" stroke-width="1.5"><title>8/30: 92</title></circle>
<circle cx="286.0" cy="278.9" r="4" fill="#7aa5ff" stroke="#0f1115" stroke-width="1.5"><title>8/31: 19</title></circle>
<circle cx="300.0" cy="203.6" r="4" fill="#7aa5ff" stroke="#0f1115" stroke-width="1.5"><title>9/1: 42</title></circle>
<circle cx="314.0" cy="108.6" r="4" fill="#7aa5ff" stroke="#0f1115" stroke-width="1.5"><title>9/2: 71</title></circle>
<circle cx="328.0" cy="167.6" r="4" fill="#7aa5ff" stroke="#0f1115" stroke-width="1.5"><title>9/3: 53</title></circle>
<circle cx="342.0" cy="187.2" r="4" fill="#7aa5ff" stroke="#0f1115" stroke-width="1.5"><title>9/4: 47</title></circle>
<circle cx="356.0" cy="262.5" r="4" fill="#7aa5ff" stroke="#0f1115" stroke-width="1.5"><title>9/5: 24</title></circle>
<circle cx="370.0" cy="118.4" r="4" fill="#7aa5ff" stroke="#0f1115" stroke-width="1.5"><title>9/6: 68</title></circle>
<circle cx="384.0" cy="213.4" r="4" fill="#7aa5ff" stroke="#0f1115" stroke-width="1.5"><title>9/7: 39</title></circle>
<circle cx="398.0" cy="134.8" r="4" fill="#7aa5ff" stroke="#0f1115" stroke-width="1.5"><title>9/8: 63</title></circle>
<circle cx="412.0" cy="134.8" r="4" fill="#7aa5ff" stroke="#0f1115" stroke-width="1.5"><title>9/9: 63</title></circle>
<circle cx="426.0" cy="193.8" r="4" fill="#7aa5ff" stroke="#0f1115" stroke-width="1.5"><title>9/10: 45</title></circle>
<circle cx="440.0" cy="259.2" r="4" fill="#7aa5ff" stroke="#0f1115" stroke-width="1.5"><title>9/11: 25</title></circle>
<circle cx="454.0" cy="180.7" r="4" fill="#7aa5ff" stroke="#0f1115" stroke-width="1.5"><title>9/12: 49</title></circle>
<circle cx="468.0" cy="282.2" r="4" fill="#7aa5ff" stroke="#0f1115" stroke-width="1.5"><title>9/13: 18</title></circle>
<circle cx="482.0" cy="141.4" r="4" fill="#7aa5ff" stroke="#0f1115" stroke-width="1.5"><title>9/14: 61</title></circle>
<circle cx="496.0" cy="128.2" r="4" fill="#7aa5ff" stroke="#0f1115" stroke-width="1.5"><title>9/15: 65</title></circle>
<circle cx="510.0" cy="151.2" r="4" fill="#7aa5ff" stroke="#0f1115" stroke-width="1.5"><title>9/16: 58</title></circle>
<circle cx="524.0" cy="167.6" r="4" fill="#7aa5ff" stroke="#0f1115" stroke-width="1.5"><title>9/17: 53</title></circle>
<circle cx="538.0" cy="75.9" r="4" fill="#7aa5ff" stroke="#0f1115" stroke-width="1.5"><title>9/18: 81</title></circle>
<circle cx="552.0" cy="105.3" r="4" fill="#7aa5ff" stroke="#0f1115" stroke-width="1.5"><title>9/19: 72</title></circle>
<circle cx="566.0" cy="236.3" r="4" fill="#7aa5ff" stroke="#0f1115" stroke-width="1.5"><title>9/20: 32</title></circle>
<circle cx="580.0" cy="187.2" r="4" fill="#7aa5ff" stroke="#0f1115" stroke-width="1.5"><title>9/21: 47</title></circle>
<circle cx="594.0" cy="200.3" r="4" fill="#7aa5ff" stroke="#0f1115" stroke-width="1.5"><title>9/22: 43</title></circle>
<circle cx="608.0" cy="174.1" r="4" fill="#7aa5ff" stroke="#0f1115" stroke-width="1.5"><title>9/23: 51</title></circle>
<circle cx="622.0" cy="223.2" r="4" fill="#7aa5ff" stroke="#0f1115" stroke-width="1.5"><title>9/24: 36</title></circle>
<circle cx="636.0" cy="141.4" r="4" fill="#7aa5ff" stroke="#0f1115" stroke-width="1.5"><title>9/25: 61</title></circle>
<circle cx="650.0" cy="252.7" r="4" fill="#7aa5ff" stroke="#0f1115" stroke-width="1.5"><title>9/26: 27</title></circle>
<circle cx="664.0" cy="187.2" r="4" fill="#7aa5ff" stroke="#0f1115" stroke-width="1.5"><title>9/27: 47</title></circle>
<circle cx="678.0" cy="79.1" r="4" fill="#7aa5ff" stroke="#0f1115" stroke-width="1.5"><title>9/28: 80</title></circle>
<circle cx="692.0" cy="197.0" r="4" fill="#7aa5ff" stroke="#0f1115" stroke-width="1.5"><title>9/29: 44</title></circle>
<circle cx="706.0" cy="216.7" r="4" fill="#7aa5ff" stroke="#0f1115" stroke-width="1.5"><title>9/30: 38</title></circle>
<circle cx="720.0" cy="213.4" r="4" fill="#7aa5ff" stroke="#0f1115" stroke-width="1.5"><title>10/1: 39</title></circle>
<circle cx="734.0" cy="242.9" r="4" fill="#7aa5ff" stroke="#0f1115" stroke-width="1.5"><title>10/2: 30</title></circle>
<circle cx="748.0" cy="174.1" r="4" fill="#7aa5ff" stroke="#0f1115" stroke-width="1.5"><title>10/3: 51</title></circle>
<circle cx="762.0" cy="161.0" r="4" fill="#7aa5ff" stroke="#0f1115" stroke-width="1.5"><title>10/4: 55</title></circle>
<text x="272.0" y="29.8" text-anchor="middle" font-family="sans-serif" font-size="10" font-weight="700" fill="#e6e6e6">92</text>
<text x="468.0" y="296.2" text-anchor="middle" font-family="sans-serif" font-size="10" font-weight="700" fill="#e6e6e6">18</text>
</svg>