<svg viewBox="0 0 780 340" width="100%" height="340" xmlns="http://www.w3.org/2000/svg" role="img" aria-label="Percentile Over Time (lower is better)">
<rect width="780" height="340" fill="#0f1115" rx="12"/>
<text x="390.0" y="20" text-anchor="middle" font-family="sans-serif" font-size="14" font-weight="600" fill="#e6e6e6">Percentile Over Time (lower is better)</text>
<line x1="62" x2="762" y1="275.6" y2="275.6" stroke="#2a2f3a" stroke-width="1" stroke-dasharray="4 6"/>
<text x="54" y="279.6" text-anchor="end" font-family="sans-serif" font-size="11" fill="#9aa0ad">20</text>
<line x1="62" x2="762" y1="210.1" y2="210.1" stroke="#2a2f3a" stroke-width="1" stroke-dasharray="4 6"/>
<text x="54" y="214.1" text-anchor="end" font-family="sans-serif" font-size="11" fill="#9aa0ad">40</text>
<line x1="62" x2="762" y1="144.6" y2="144.6" stroke="#2a2f3a" stroke-width="1" stroke-dasharray="4 6"/>
<text x="54" y="148.6" text-anchor="end" font-family="sans-serif" font-size="11" fill="#9aa0ad">60</text>
<line x1="62" x2="762" y1="79.1" y2="79.1" stroke="#2a2f3a" stroke-width="1" stroke-dasharray="4 6"/>
<text x="54" y="83.1" text-anchor="end" font-family="sans-serif" font-size="11" fill="#9aa0ad">80</text>
<line x1="62" x2="762" y1="46.4" y2="46.4" stroke="#2a2f3a" stroke-width="1" stroke-dasharray="4 6"/>
<text x="54" y="50.4" text-anchor="end" font-family="sans-serif" font-size="11" fill="#9aa0ad">90</text>
<line x1="62.0" x2="62.0" y1="292" y2="296" stroke="#3a4150" stroke-width="1"/>
<text x="62.0" y="326" text-anchor="middle" font-family="sans-serif" font-size="11" fill="#9aa0ad">8/13</text>
<line x1="81.4" x2="81.4" y1="292" y2="296" stroke="#3a4150" stroke-width="1"/>
<text x="81.4" y="326" text-anchor="middle" font-family="sans-serif" font-size="11" fill="#9aa0ad">8/14</text>
<line x1="100.9" x2="100.9" y1="292" y2="296" stroke="#3a4150" stroke-width="1"/>
<text x="100.9" y="326" text-anchor="middle" font-family="sans-serif" font-size="11" fill="#9aa0ad">8/15</text>
<line x1="120.3" x2="120.3" y1="292" y2="296" stroke="#3a4150" stroke-width="1"/>
<text x="120.3" y="326" text-anchor="middle" font-family="sans-serif" font-size="11" fill="#9aa0ad">8/16</text>
<line x1="139.8" x2="139.8" y1="292" y2="296" stroke="#3a4150" stroke-width="1"/>
<text x="139.8" y="326" text-anchor="middle" font-family="sans-serif" font-size="11" fill="#9aa0ad">8/17</text>
<line x1="159.2" x2="159.2" y1="292" y2="296" stroke="#3a4150" stroke-width="1"/>
<text x="159.2" y="326" text-anchor="middle" font-family="sans-serif" font-size="11" fill="#9aa0ad">8/18</text>
<line x1="178.7" x2="178.7" y1="292" y2="296" stroke="#3a4150" stroke-width="1"/>
<text x="178.7" y="326" text-anchor="middle" font-family="sans-serif" font-size="11" fill="#9aa0ad">8/20</text>
<line x1="198.1" x2="198.1" y1="292" y2="296" stroke="#3a4150" stroke-width="1"/>
<text x="198.1" y="326" text-anchor="middle" font-family="sans-serif" font-size="11" fill="#9aa0ad">8/21</text>
<line x1="217.6" x2="217.6" y1="292" y2="296" stroke="#3a4150" stroke-width="1"/>
<text x="217.6" y="326" text-anchor="middle" font-family="sans-serif" font-size="11" fill="#9aa0ad">8/22</text>
<line x1="237.0" x2="237.0" y1="292" y2="296" stroke="#3a4150" stroke-width="1"/>
<text x="237.0" y="326" text-anchor="middle" font-family="sans-serif" font-size="11" fill="#9aa0ad">8/23</text>
<line x1="256.4" x2="256.4" y1="292" y2="296" stroke="#3a4150" stroke-width="1"/>
<text x="256.4" y="326" text-anchor="middle" font-family="sans-serif" font-size="11" fill="#9aa0ad">8/24</text>
<line x1="275.9" x2="275.9" y1="292" y2="296" stroke="#3a4150" stroke-width="1"/>
<text x="275.9" y="326" text-anchor="middle" font-family="sans-serif" font-size="11" fill="#9aa0ad">8/25</text>
<line x1="295.3" x2="295.3" y1="292" y2="296" stroke="#3a4150" stroke-width="1"/>
<text x="295.3" y="326" text-anchor="middle" font-family="sans-serif" font-size="11" fill="#9aa0ad">8/26</text>
<line x1="314.8" x2="314.8" y1="292" y2="296" stroke="#3a4150" stroke-width="1"/>
<text x="314.8" y="326" text-anchor="middle" font-family="sans-serif" font-size="11" fill="#9aa0ad">8/27</text>
<line x1="334.2" x2="334.2" y1="292" y2="296" stroke="#3a4150" stroke-width="1"/>
<text x="334.2" y="326" text-anchor="middle" font-family="sans-serif" font-size="11" fill="#9aa0ad">8/29</text>
<line x1="353.7" x2="353.7" y1="292" y2="296" stroke="#3a4150" stroke-width="1"/>
<text x="353.7" y="326" text-anchor="middle" font-family="sans-serif" font-size="11" fill="#9aa0ad">8/30</text>
<line x1="373.1" x2="373.1" y1="292" y2="296" stroke="#3a4150" stroke-width="1"/>
<text x="373.1" y="326" text-anchor="middle" font-family="sans-serif" font-size="11" fill="#9aa0ad">8/31</text>
<line x1="392.6" x2="392.6" y1="292" y2="296" stroke="#3a4150" stroke-width="1"/>
<text x="392.6" y="326" text-anchor="middle" font-family="sans-serif" font-size="11" fill="#9aa0ad">9/1</text>
<line x1="412.0" x2="412.0" y1="292" y2="296" stroke="#3a4150" stroke-width="1"/>
<text x="412.0" y="326" text-anchor="middle" font-family="sans-serif" font-size="11" fill="#9aa0ad">9/2</text>
<line x1="431.4" x2="431.4" y1="292" y2="296" stroke="#3a4150" stroke-width="1"/>
<text x="431.4" y="326" text-anchor="middle" font-family="sans-serif" font-size="11" fill="#9aa0ad">9/3</text>
<line x1="450.9" x2="450.9" y1="292" y2="296" stroke="#3a4150" stroke-width="1"/>
<text x="450.9" y="326" text-anchor="middle" font-family="sans-serif" font-size="11" fill="#9aa0ad">9/4</text>
<line x1="470.3" x2="470.3" y1="292" y2="296" stroke="#3a4150" stroke-width="1"/>
<text x="470.3" y="326" text-anchor="middle" font-family="sans-serif" font-size="11" fill="#9aa0ad">9/5</text>
<line x1="489.8" x2="489.8" y1="292" y2="296" stroke="#3a4150" stroke-width="1"/>
<text x="489.8" y="326" text-anchor="middle" font-family="sans-serif" font-size="11" fill="#9aa0ad">9/6</text>
<line x1="509.2" x2="509.2" y1="292" y2="296" stroke="#3a4150" stroke-width="1"/>
<text x="509.2" y="326" text-anchor="middle" font-family="sans-serif" font-size="11" fill="#9aa0ad">9/7</text>
<line x1="528.7" x2="528.7" y1="292" y2="296" stroke="#3a4150" stroke-width="1"/>
<text x="528.7" y="326" text-anchor="middle" font-family="sans-serif" font-size="11" fill="#9aa0ad">9/8</text>
<line x1="548.1" x2="548.1" y1="292" y2="296" stroke="#3a4150" stroke-width="1"/>
<text x="548.1" y="326" text-anchor="middle" font-family="sans-serif" font-size="11" fill="#9aa0ad">9/9</text>
<line x1="567.6" x2="567.6" y1="292" y2="296" stroke="#3a4150" stroke-width="1"/>
<text x="567.6" y="326" text-anchor="middle" font-family="sans-serif" font-size="11" fill="#9aa0ad">9/10</text>
<line x1="587.0" x2="587.0" y1="292" y2="296" stroke="#3a4150" stroke-width="1"/>
<text x="587.0" y="326" text-anchor="middle" font-family="sans-serif" font-size="11" fill="#9aa0ad">9/11</text>
<line x1="606.4" x2="606.4" y1="292" y2="296" stroke="#3a4150" stroke-width="1"/>
<text x="606.4" y="326" text-anchor="middle" font-family="sans-serif" font-size="11" fill="#9aa0ad">9/12</text>
<line x1="625.9" x2="625.9" y1="292" y2="296" stroke="#3a4150" stroke-width="1"/>
<text x="625.9" y="326" text-anchor="middle" font-family="sans-serif" font-size="11" fill="#9aa0ad">9/13</text>
<line x1="645.3" x2="645.3" y1="292" y2="296" stroke="#3a4150" stroke-width="1"/>
<text x="645.3" y="326" text-anchor="middle" font-family="sans-serif" font-size="11" fill="#9aa0ad">9/14</text>
<line x1="664.8" x2="664.8" y1="292" y2="296" stroke="#3a4150" stroke-width="1"/>
<text x="664.8" y="326" text-anchor="middle" font-family="sans-serif" font-size="11" fill="#9aa0ad">9/15</text>
<line x1="684.2" x2="684.2" y1="292" y2="296" stroke="#3a4150" stroke-width="1"/>
<text x="684.2" y="326" text-anchor="middle" font-family="sans-serif" font-size="11" fill="#9aa0ad">9/16</text>
<line x1="703.7" x2="703.7" y1="292" y2="296" stroke="#3a4150" stroke-width="1"/>
<text x="703.7" y="326" text-anchor="middle" font-family="sans-serif" font-size="11" fill="#9aa0ad">9/17</text>
<line x1="723.1" x2="723.1" y1="292" y2="296" stroke="#3a4150" stroke-width="1"/>
<text x="723.1" y="326" text-anchor="middle" font-family="sans-serif" font-size="11" fill="#9aa0ad">9/18</text>
<line x1="742.6" x2="742.6" y1="292" y2="296" stroke="#3a4150" stroke-width="1"/>
<text x="742.6" y="326" text-anchor="middle" font-family="sans-serif" font-size="11" fill="#9aa0ad">9/19</text>
<line x1="762.0" x2="762.0" y1="292" y2="296" stroke="#3a4150" stroke-width="1"/>
<text x="762.0" y="326" text-anchor="middle" font-family="sans-serif" font-size="11" fill="#9aa0ad">9/20</text>
<line x1="62" x2="62" y1="30" y2="292" stroke="#3a4150" stroke-width="1.2"/>
<line x1="62" x2="762" y1="292" y2="292" stroke="#3a4150" stroke-width="1.2"/>
<text x="14" y="161.0" text-anchor="middle" transform="rotate(-90,14,161.0)" font-family="sans-serif" font-size="11" fill="#9aa0ad">Top %</text>
<path d="M 62.0,132.3 L 81.4,133.7 L 100.9,135.1 L 120.3,136.5 L 139.8,137.8 L 159.2,139.2 L 178.7,140.6 L 198.1,142.0 L 217.6,143.3 L 237.0,144.7 L 256.4,146.1 L 275.9,147.5 L 295.3,148.9 L 314.8,150.2 L 334.2,151.6 L 353.7,153.0 L 373.1,154.4 L 392.6,155.7 L 412.0,157.1 L 431.4,158.5 L 450.9,159.9 L 470.3,161.2 L 489.8,162.6 L 509.2,164.0 L 528.7,165.4 L 548.1,166.7 L 567.6,168.1 L 587.0,169.5 L 606.4,170.9 L 625.9,172.2 L 645.3,173.6 L 664.8,175.0 L 684.2,176.4 L 703.7,177.7 L 723.1,179.1 L 742.6,180.5 L 762.0,181.9" fill="none" stroke="#f2c14e" stroke-width="1.8" opacity="0.9" stroke-dasharray="8 6" stroke-linecap="round" stroke-linejoin="round"/>
<path d="M 62.0,134.8 L 81.4,193.8 L 100.9,56.2 L 120.3,249.4 L 139.8,72.6 L 159.2,75.9 L 178.7,102.1 L 198.1,98.8 L 217.6,177.4 L 237.0,138.1 L 256.4,125.0 L 275.9,95.5 L 295.3,219.9 L 314.8,95.5 L 334.2,206.8 L 353.7,39.8 L 373.1,278.9 L 392.6,203.6 L 412.0,108.6 L 431.4,167.6 L 450.9,187.2 L 470.3,262.5 L 489.8,118.4 L 509.2,213.4 L 528.7,134.8 L 548.1,134.8 L 567.6,193.8 L 587.0,259.2 L 606.4,180.7 L 625.9,282.2 L 645.3,141.4 L 664.8,128.2 L 684.2,151.2 L 703.7,167.6 L 723.1,75.9 L 742.6,105.3 L 762.0,236.3" fill="none" stroke="#7aa5ff" stroke-width="2.5" stroke-linecap="round" stroke-linejoin="round"/>
<path d="M 62.0,134.8 L 81.4,193.8 L 100.9,56.2 L 120.3,249.4 L 139.8,72.6 L 159.2,75.9 L 178.7,102.1 L 198.1,98.8 L 217.6,177.4 L 237.0,138.1 L 256.4,125.0 L 275.9,95.5 L 295.3,219.9 L 314.8,95.5 L 334.2,206.8 L 353.7,39.8 L 373.1,278.9 L 392.6,203.6 L 412.0,108.6 L 431.4,167.6 L 450.9,187.2 L 470.3,262.5 L 489.8,118.4 L 509.2,213.4 L 528.7,134.8 L 548.1,134.8 L 567.6,193.8 L 587.0,259.2 L 606.4,180.7 L 625.9,282.2 L 645.3,141.4 L 664.8,128.2 L 684.2,151.2 L 703.7,167.6 L 723.1,75.9 L 742.6,105.3 L 762.0,236.3 L 762.0,292.0 L 62.0,292.0 Z" fill="#7aa5ff" opacity="0.08"/>
<circle cx="62.0" cy="134.8" r="4" fill="#7aa5ff" stroke="#0f1115" stroke-width="1.5"><title>8/13: 63</title></circle>
<circle cx="81.4" cy="193.8" r="4" fill="#7aa5ff" stroke="#0f1115" stroke-width="1.5"><title>8/14: 45</title></circle>
<circle cx="100.9" cy="56.2" r="4" fill="#7aa5ff" stroke="#0f1115" stroke-width="1.5"><title>8/15: 87</title></circle>
<circle cx="120.3" cy="249.4" r="4" fill="#7aa5ff" stroke="#0f1115" stroke-width="1.5"><title>8/16: 28</title></circle>
<circle cx="139.8" cy="72.6" r="4" fill="#7aa5ff" stroke="#0f1115" stroke-width="1.5"><title>8/17: 82</title></circle>
<circle cx="159.2" cy="75.9" r="4" fill="#7aa5ff" stroke="#0f1115" stroke-width="1.5"><title>8/18: 81</title></circle>
<circle cx="178.7" cy="102.1" r="4" fill="#7aa5ff" stroke="#0f1115" stroke-width="1.5"><title>8/20: 73</title></circle>
<circle cx="198.1" cy="98.8" r="4" fill="#7aa5ff" stroke="#0f1115" stroke-width="1.5"><title>8/21: 74</title></circle>
<circle cx="217.6" cy="177.4" r="4" fill="#7aa5ff" stroke="#0f1115" stroke-width="1.5"><title>8/22: 50</title></circle>
<circle cx="237.0" cy="138.1" r="4" fill="#7aa5ff" stroke="#0f1115" stroke-width="1.5"><title>8/23: 62</title></circle>
<circle cx="256.4" cy="125.0" r="4" fill="#7aa5ff" stroke="#0f1115" stroke-width="1.5"><title>8/24: 66</title></circle>
<circle cx="275.9" cy="95.5" r="4" fill="#7aa5ff" stroke="#0f1115" stroke-width="1.5"><title>8/25: 75</title></circle>
<circle cx="295.3" cy="219.9" r="4" fill="#7aa5ff" stroke="#0f1115" stroke-width="1.5"><title>8/26: 37</title></circle>
<circle cx="314.8" cy="95.5" r="4" fill="#7aa5ff" stroke="#0f1115" stroke-width="1.5"><title>8/27: 75</title></circle>
<circle cx="334.2" cy="206.8" r="4" fill="#7aa5ff" stroke="#0f1115" stroke-width="1.5"><title>8/29: 41</title></circle>
<circle cx="353.7" cy="39.8" r="4" fill="#7aa5ff" stroke="#0f1115" stroke-width="1.5"><title>8/30: 92</title></circle>
<circle cx="373.1" cy="278.9" r="4" fill="#7aa5ff" stroke="#0f1115" stroke-width="1.5"><title>8/31: 19</title></circle>
<circle cx="392.6" cy="203.6" r="4" fill="#7aa5ff" stroke="#0f1115" stroke-width="1.5"><title>9/1: 42</title></circle>
<circle cx="412.0" cy="108.6" r="4" fill="#7aa5ff" stroke="#0f1115" stroke-width="1.5"><title>9/2: 71</title></circle>
<circle cx="431.4" cy="167.6" r="4" fill="#7aa5ff" stroke="#0f1115" stroke-width="1.5"><title>9/3: 53</title></circle>
<circle cx="450.9" cy="187.2" r="4" fill="#7aa5ff" stroke="#0f1115" stroke-width="1.5"><title>9/4: 47</title></circle>
<circle cx="470.3" cy="262.5" r="4" fill="#7aa5ff" stroke="#0f1115" stroke-width="1.5"><title>9/5: 24</title></circle>
<circle cx="489.8" cy="118.4" r="4" fill="#7aa5ff" stroke="#0f1115" stroke-width="1.5"><title>9/6: 68</title></circle>
<circle cx="509.2" cy="213.4" r="4" fill="#7aa5ff" stroke="#0f1115" stroke-width="1.5"><title>9/7: 39</title></circle>
<circle cx="528.7" cy="134.8" r="4" fill="#7aa5ff" stroke="#0f1115" stroke-width="1.5"><title>9/8: 63</title></circle>
<circle cx="548.1" cy="134.8" r="4" fill="#7aa5ff" stroke="#0f1115" stroke-width="1.5"><title>9/9: 63</title></circle>
<circle cx="567.6" cy="193.8" r="4" fill="#7aa5ff" stroke="#0f1115" stroke-width="1.5"><title>9/10: 45</title></circle>
<circle cx="587.0" cy="259.2" r="4" fill="#7aa5ff" stroke="#0f1115" stroke-width="1.5"><title>9/11: 25</title></circle>
<circle cx="606.4" cy="180.7" r="4" fill="#7aa5ff" stroke="#0f1115" stroke-width="1.5"><title>9/12: 49</title></circle>
<circle cx="625.9" cy="282.2" r="4" fill="#7aa5ff" stroke="#0f1115" stroke-width="1.5"><title>9/13: 18</title></circle>
<circle cx="645.3" cy="141.4" r="4" fill="#7aa5ff" stroke="#0f1115" stroke-width="1.5"><title>9/14: 61</title></circle>
<circle cx="664.8" cy="128.2" r="4" fill="#7aa5ff" stroke="#0f1115" stroke-width="1.5"><title>9/15: 65</title></circle>
<circle cx="684.2" cy="151.2" r="4" fill="#7aa5ff" stroke="#0f1115" stroke-width="1.5"><title>9/16: 58</title></circle>
<circle cx="703.7" cy="167.6" r="4" fill="#7aa5ff" stroke="#0f1115" stroke-width="1.5"><title>9/17: 53</title></circle>
<circle cx="723.1" cy="75.9" r="4" fill="#7aa5ff" stroke="#0f1115" stroke-width="1.5"><title>9/18: 81</title></circle>
<circle cx="742.6" cy="105.3" r="4" fill="#7aa5ff" stroke="#0f1115" stroke-width="1.5"><title>9/19: 72</title></circle>
<circle cx="762.0" cy="236.3" r="4" fill="#7aa5ff" stroke="#0f1115" stroke-width="1.5"><title>9/20: 32</title></circle>
<text x="353.7" y="29.8" text-anchor="middle" font-family="sans-serif" font-size="10" font-weight="700" fill="#e6e6e6">92</text>
<text x="625.9" y="296.2" text-anchor="middle" font-family="sans-serif" font-size="10" font-weight="700" fill="#e6e6e6">18</text>
</svg>