<svg viewBox="0 0 780 340" width="100%" height="340" xmlns="http://www.w3.org/2000/svg" role="img" aria-label="Percentile Over Time (lower is better)">
<rect width="780" height="340" fill="#0f1115" rx="12"/>
<text x="390.0" y="20" text-anchor="middle" font-family="sans-serif" font-size="14" font-weight="600" fill="#e6e6e6">Percentile Over Time (lower is better)</text>
<line x1="62" x2="762" y1="275.6" y2="275.6" stroke="#2a2f3a" stroke-width="1" stroke-dasharray="4 6"/>
<text x="54" y="279.6" text-anchor="end" font-family="sans-serif" font-size="11" fill="#9aa0ad">20</text>
<line x1="62" x2="762" y1="210.1" y2="210.1" stroke="#2a2f3a" stroke-width="1" stroke-dasharray="4 6"/>
<text x="54" y="214.1" text-anchor="end" font-family="sans-serif" font-size="11" fill="#9aa0ad">40</text>
<line x1="62" x2="762" y1="144.6" y2="144.6" stroke="#2a2f3a" stroke-width="1" stroke-dasharray="4 6"/>
<text x="54" y="148.6" text-anchor="end" font-family="sans-serif" font-size="11" fill="#9aa0ad">60</text>
<line x1="62" x2="762" y1="79.1" y2="79.1" stroke="#2a2f3a" stroke-width="1" stroke-dasharray="4 6"/>
<text x="54" y="83.1" text-anchor="end" font-family="sans-serif" font-size="11" fill="#9aa0ad">80</text>
<line x1="62" x2="762" y1="46.4" y2="46.4" stroke="#2a2f3a" stroke-width="1" stroke-dasharray="4 6"/>
<text x="54" y="50.4" text-anchor="end" font-family="sans-serif" font-size="11" fill="#9aa0ad">90</text>
<line x1="62.0" x2="62.0" y1="292" y2="296" stroke="#3a4150" stroke-width="1"/>
<text x="62.0" y="326" text-anchor="middle" font-family="sans-serif" font-size="11" fill="#9aa0ad">8/13</text>
<line x1="91.2" x2="91.2" y1="292" y2="296" stroke="#3a4150" stroke-width="1"/>
<text x="91.2" y="326" text-anchor="middle" font-family="sans-serif" font-size="11" fill="#9aa0ad">8/14</text>
<line x1="120.3" x2="120.3" y1="292" y2="296" stroke="#3a4150" stroke-width="1"/>
<text x="120.3" y="326" text-anchor="middle" font-family="sans-serif" font-size="11" fill="#9aa0ad">8/15</text>
<line x1="149.5" x2="149.5" y1="292" y2="296" stroke="#3a4150" stroke-width="1"/>
<text x="149.5" y="326" text-anchor="middle" font-family="sans-serif" font-size="11" fill="#9aa0ad">8/16</text>
<line x1="178.7" x2="178.7" y1="292" y2="296" stroke="#3a4150" stroke-width="1"/>
<text x="178.7" y="326" text-anchor="middle" font-family="sans-serif" font-size="11" fill="#9aa0ad">8/17</text>
<line x1="207.8" x2="207.8" y1="292" y2="296" stroke="#3a4150" stroke-width="1"/>
<text x="207.8" y="326" text-anchor="middle" font-family="sans-serif" font-size="11" fill="#9aa0ad">8/18</text>
<line x1="237.0" x2="237.0" y1="292" y2="296" stroke="#3a4150" stroke-width="1"/>
<text x="237.0" y="326" text-anchor="middle" font-family="sans-serif" font-size="11" fill="#9aa0ad">8/20</text>
<line x1="266.2" x2="266.2" y1="292" y2="296" stroke="#3a4150" stroke-width="1"/>
<text x="266.2" y="326" text-anchor="middle" font-family="sans-serif" font-size="11" fill="#9aa0ad">8/21</text>
<line x1="295.3" x2="295.3" y1="292" y2="296" stroke="#3a4150" stroke-width="1"/>
<text x="295.3" y="326" text-anchor="middle" font-family="sans-serif" font-size="11" fill="#9aa0ad">8/22</text>
<line x1="324.5" x2="324.5" y1="292" y2="296" stroke="#3a4150" stroke-width="1"/>
<text x="324.5" y="326" text-anchor="middle" font-family="sans-serif" font-size="11" fill="#9aa0ad">8/23</text>
<line x1="353.7" x2="353.7" y1="292" y2="296" stroke="#3a4150" stroke-width="1"/>
<text x="353.7" y="326" text-anchor="middle" font-family="sans-serif" font-size="11" fill="#9aa0ad">8/24</text>
<line x1="382.8" x2="382.8" y1="292" y2="296" stroke="#3a4150" stroke-width="1"/>
<text x="382.8" y="326" text-anchor="middle" font-family="sans-serif" font-size="11" fill="#9aa0ad">8/25</text>
<line x1="412.0" x2="412.0" y1="292" y2="296" stroke="#3a4150" stroke-width="1"/>
<text x="412.0" y="326" text-anchor="middle" font-family="sans-serif" font-size="11" fill="#9aa0ad">8/26</text>
<line x1="441.2" x2="441.2" y1="292" y2="296" stroke="#3a4150" stroke-width="1"/>
<text x="441.2" y="326" text-anchor="middle" font-family="sans-serif" font-size="11" fill="#9aa0ad">8/27</text>
<line x1="470.3" x2="470.3" y1="292" y2="296" stroke="#3a4150" stroke-width="1"/>
<text x="470.3" y="326" text-anchor="middle" font-family="sans-serif" font-size="11" fill="#9aa0ad">8/29</text>
<line x1="499.5" x2="499.5" y1="292" y2="296" stroke="#3a4150" stroke-width="1"/>
<text x="499.5" y="326" text-anchor="middle" font-family="sans-serif" font-size="11" fill="#9aa0ad">8/30</text>
<line x1="528.7" x2="528.7" y1="292" y2="296" stroke="#3a4150" stroke-width="1"/>
<text x="528.7" y="326" text-anchor="middle" font-family="sans-serif" font-size="11" fill="#9aa0ad">8/31</text>
<line x1="557.8" x2="557.8" y1="292" y2="296" stroke="#3a4150" stroke-width="1"/>
<text x="557.8" y="326" text-anchor="middle" font-family="sans-serif" font-size="11" fill="#9aa0ad">9/1</text>
<line x1="587.0" x2="587.0" y1="292" y2="296" stroke="#3a4150" stroke-width="1"/>
<text x="587.0" y="326" text-anchor="middle" font-family="sans-serif" font-size="11" fill="#9aa0ad">9/2</text>
<line x1="616.2" x2="616.2" y1="292" y2="296" stroke="#3a4150" stroke-width="1"/>
<text x="616.2" y="326" text-anchor="middle" font-family="sans-serif" font-size="11" fill="#9aa0ad">9/3</text>
<line x1="645.3" x2="645.3" y1="292" y2="296" stroke="#3a4150" stroke-width="1"/>
<text x="645.3" y="326" text-anchor="middle" font-family="sans-serif" font-size="11" fill="#9aa0ad">9/4</text>
<line x1="674.5" x2="674.5" y1="292" y2="296" stroke="#3a4150" stroke-width="1"/>
<text x="674.5" y="326" text-anchor="middle" font-family="sans-serif" font-size="11" fill="#9aa0ad">9/5</text>
<line x1="703.7" x2="703.7" y1="292" y2="296" stroke="#3a4150" stroke-width="1"/>
<text x="703.7" y="326" text-anchor="middle" font-family="sans-serif" font-size="11" fill="#9aa0ad">9/6</text>
<line x1="732.8" x2="732.8" y1="292" y2="296" stroke="#3a4150" stroke-width="1"/>
<text x="732.8" y="326" text-anchor="middle" font-family="sans-serif" font-size="11" fill="#9aa0ad">9/7</text>
<line x1="762.0" x2="762.0" y1="292" y2="296" stroke="#3a4150" stroke-width="1"/>
<text x="762.0" y="326" text-anchor="middle" font-family="sans-serif" font-size="11" fill="#9aa0ad">9/8</text>
<line x1="62" x2="62" y1="30" y2="292" stroke="#3a4150" stroke-width="1.2"/>
<line x1="62" x2="762" y1="292" y2="292" stroke="#3a4150" stroke-width="1.2"/>
<text x="14" y="161.0" text-anchor="middle" transform="rotate(-90,14,161.0)" font-family="sans-serif" font-size="11" fill="#9aa0ad">Top %</text>
<path d="M 62.0,119.3 L 91.2,121.9 L 120.3,124.5 L 149.5,127.0 L 178.7,129.6 L 207.8,132.2 L 237.0,134.8 L 266.2,137.4 L 295.3,139.9 L 324.5,142.5 L 353.7,145.1 L 382.8,147.7 L 412.0,150.3 L 441.2,152.8 L 470.3,155.4 L 499.5,158.0 L 528.7,160.6 L 557.8,163.2 L 587.0,165.7 L 616.2,168.3 L 645.3,170.9 L 674.5,173.5 L 703.7,176.1 L 732.8,178.6 L 762.0,181.2" fill="none" stroke="#f2c14e" stroke-width="1.8" opacity="0.9" stroke-dasharray="8 6" stroke-linecap="round" stroke-linejoin="round"/>
<path d="M 62.0,134.8 L 91.2,193.8 L 120.3,56.2 L 149.5,249.4 L 178.7,72.6 L 207.8,75.9 L 237.0,102.1 L 266.2,98.8 L 295.3,177.4 L 324.5,138.1 L 353.7,125.0 L 382.8,95.5 L 412.0,219.9 L 441.2,95.5 L 470.3,206.8 L 499.5,39.8 L 528.7,278.9 L 557.8,203.6 L 587.0,108.6 L 616.2,167.6 L 645.3,187.2 L 674.5,262.5 L 703.7,118.4 L 732.8,213.4 L 762.0,134.8" fill="none" stroke="#7aa5ff" stroke-width="2.5" stroke-linecap="round" stroke-linejoin="round"/>
<path d="M 62.0,134.8 L 91.2,193.8 L 120.3,56.2 L 149.5,249.4 L 178.7,72.6 L 207.8,75.9 L 237.0,102.1 L 266.2,98.8 L 295.3,177.4 L 324.5,138.1 L 353.7,125.0 L 382.8,95.5 L 412.0,219.9 L 441.2,95.5 L 470.3,206.8 L 499.5,39.8 L 528.7,278.9 L 557.8,203.6 L 587.0,108.6 L 616.2,167.6 L 645.3,187.2 L 674.5,262.5 L 703.7,118.4 L 732.8,213.4 L 762.0,134.8 L 762.0,292.0 L 62.0,292.0 Z" fill="#7aa5ff" opacity="0.08"/>
<circle cx="62.0" cy="134.8" r="4" fill="#7aa5ff" stroke="#0f1115" stroke-width="1.5"><title>8/13: 63</title></circle>
<circle cx="91.2" cy="193.8" r="4" fill="#7aa5ff" stroke="#0f1115" stroke-width="1.5"><title>8/14: 45</title></circle>
<circle cx="120.3" cy="56.2" r="4" fill="#7aa5ff" stroke="#0f1115" stroke-width="1.5"><title>8/15: 87</title></circle>
<circle cx="149.5" cy="249.4" r="4" fill="#7aa5ff" stroke="#0f1115" stroke-width="1.5"><title>8/16: 28</title></circle>
<circle cx="178.7" cy="72.6" r="4" fill="#7aa5ff" stroke="#0f1115" stroke-width="1.5"><title>8/17: 82</title></circle>
<circle cx="207.8" cy="75.9" r="4" fill="#7aa5ff" stroke="#0f1115" stroke-width="1.5"><title>8/18: 81</title></circle>
<circle cx="237.0" cy="102.1" r="4" fill="#7aa5ff" stroke="#0f1115" stroke-width="1.5"><title>8/20: 73</title></circle>
<circle cx="266.2" cy="98.8" r="4" fill="#7aa5ff" stroke="#0f1115" stroke-width="1.5"><title>8/21: 74</title></circle>
<circle cx="295.3" cy="177.4" r="4" fill="#7aa5ff" stroke="#0f1115" stroke-width="1.5"><title>8/22: 50</title></circle>
<circle cx="324.5" cy="138.1" r="4" fill="#7aa5ff" stroke="#0f1115" stroke-width="1.5"><title>8/23: 62</title></circle>
<circle cx="353.7" cy="125.0" r="4" fill="#7aa5ff" stroke="#0f1115" stroke-width="1.5"><title>8/24: 66</title></circle>
<circle cx="382.8" cy="95.5" r="4" fill="#7aa5ff" stroke="#0f1115" stroke-width="1.5"><title>8/25: 75</title></circle>
<circle cx="412.0" cy="219.9" r="4" fill="#7aa5ff" stroke="#0f1115" stroke-width="1.5"><title>8/26: 37</title></circle>
<circle cx="441.2" cy="95.5" r="4" fill="#7aa5ff" stroke="#0f1115" stroke-width="1.5"><title>8/27: 75</title></circle>
<circle cx="470.3" cy="206.8" r="4" fill="#7aa5ff" stroke="#0f1115" stroke-width="1.5"><title>8/29: 41</title></circle>
<circle cx="499.5" cy="39.8" r="4" fill="#7aa5ff" stroke="#0f1115" stroke-width="1.5"><title>8/30: 92</title></circle>
<circle cx="528.7" cy="278.9" r="4" fill="#7aa5ff" stroke="#0f1115" stroke-width="1.5"><title>8/31: 19</title></circle>
<circle cx="557.8" cy="203.6" r="4" fill="#7aa5ff" stroke="#0f1115" stroke-width="1.5"><title>9/1: 42</title></circle>
<circle cx="587.0" cy="108.6" r="4" fill="#7aa5ff" stroke="#0f1115" stroke-width="1.5"><title>9/2: 71</title></circle>
<circle cx="616.2" cy="167.6" r="4" fill="#7aa5ff" stroke="#0f1115" stroke-width="1.5"><title>9/3: 53</title></circle>
<circle cx="645.3" cy="187.2" r="4" fill="#7aa5ff" stroke="#0f1115" stroke-width="1.5"><title>9/4: 47</title></circle>
<circle cx="674.5" cy="262.5" r="4" fill="#7aa5ff" stroke="#0f1115" stroke-width="1.5"><title>9/5: 24</title></circle>
<circle cx="703.7" cy="118.4" r="4" fill="#7aa5ff" stroke="#0f1115" stroke-width="1.5"><title>9/6: 68</title></circle>
<circle cx="732.8" cy="213.4" r="4" fill="#7aa5ff" stroke="#0f1115" stroke-width="1.5"><title>9/7: 39</title></circle>
<circle cx="762.0" cy="134.8" r="4" fill="#7aa5ff" stroke="#0f1115" stroke-width="1.5"><title>9/8: 63</title></circle>
<text x="499.5" y="29.8" text-anchor="middle" font-family="sans-serif" font-size="10" font-weight="700" fill="#e6e6e6">92</text>
<text x="528.7" y="292.9" text-anchor="middle" font-family="sans-serif" font-size="10" font-weight="700" fill="#e6e6e6">19</text>
</svg>