<svg viewBox="0 0 780 340" width="100%" height="340" xmlns="http://www.w3.org/2000/svg" role="img" aria-label="Cumulative Average Percentile Over Time">
<rect width="780" height="340" fill="#0f1115" rx="12"/>
<text x="390.0" y="20" text-anchor="middle" font-family="sans-serif" font-size="14" font-weight="600" fill="#e6e6e6">Cumulative Average Percentile Over Time</text>
<line x1="62" x2="762" y1="292.0" y2="292.0" stroke="#2a2f3a" stroke-width="1" stroke-dasharray="4 6"/>
<text x="54" y="296.0" text-anchor="end" font-family="sans-serif" font-size="11" fill="#9aa0ad">50</text>
<line x1="62" x2="762" y1="226.5" y2="226.5" stroke="#2a2f3a" stroke-width="1" stroke-dasharray="4 6"/>
<text x="54" y="230.5" text-anchor="end" font-family="sans-serif" font-size="11" fill="#9aa0ad">55</text>
<line x1="62" x2="762" y1="161.0" y2="161.0" stroke="#2a2f3a" stroke-width="1" stroke-dasharray="4 6"/>
<text x="54" y="165.0" text-anchor="end" font-family="sans-serif" font-size="11" fill="#9aa0ad">60</text>
<line x1="62" x2="762" y1="95.5" y2="95.5" stroke="#2a2f3a" stroke-width="1" stroke-dasharray="4 6"/>
<text x="54" y="99.5" text-anchor="end" font-family="sans-serif" font-size="11" fill="#9aa0ad">65</text>
<line x1="62" x2="762" y1="30.0" y2="30.0" stroke="#2a2f3a" stroke-width="1" stroke-dasharray="4 6"/>
<text x="54" y="34.0" text-anchor="end" font-family="sans-serif" font-size="11" fill="#9aa0ad">70</text>
<line x1="62.0" x2="62.0" y1="292" y2="296" stroke="#3a4150" stroke-width="1"/>
<text x="62.0" y="326" text-anchor="middle" font-family="sans-serif" font-size="11" fill="#9aa0ad">8/13</text>
<line x1="74.5" x2="74.5" y1="292" y2="296" stroke="#3a4150" stroke-width="1"/>
<text x="74.5" y="326" text-anchor="middle" font-family="sans-serif" font-size="11" fill="#9aa0ad">8/14</text>
<line x1="87.0" x2="87.0" y1="292" y2="296" stroke="#3a4150" stroke-width="1"/>
<text x="87.0" y="326" text-anchor="middle" font-family="sans-serif" font-size="11" fill="#9aa0ad">8/15</text>
<line x1="99.5" x2="99.5" y1="292" y2="296" stroke="#3a4150" stroke-width="1"/>
<text x="99.5" y="326" text-anchor="middle" font-family="sans-serif" font-size="11" fill="#9aa0ad">8/16</text>
<line x1="112.0" x2="112.0" y1="292" y2="296" stroke="#3a4150" stroke-width="1"/>
<text x="112.0" y="326" text-anchor="middle" font-family="sans-serif" font-size="11" fill="#9aa0ad">8/17</text>
<line x1="124.5" x2="124.5" y1="292" y2="296" stroke="#3a4150" stroke-width="1"/>
<text x="124.5" y="326" text-anchor="middle" font-family="sans-serif" font-size="11" fill="#9aa0ad">8/18</text>
<line x1="137.0" x2="137.0" y1="292" y2="296" stroke="#3a4150" stroke-width="1"/>
<text x="137.0" y="326" text-anchor="middle" font-family="sans-serif" font-size="11" fill="#9aa0ad">8/20</text>
<line x1="149.5" x2="149.5" y1="292" y2="296" stroke="#3a4150" stroke-width="1"/>
<text x="149.5" y="326" text-anchor="middle" font-family="sans-serif" font-size="11" fill="#9aa0ad">8/21</text>
<line x1="162.0" x2="162.0" y1="292" y2="296" stroke="#3a4150" stroke-width="1"/>
<text x="162.0" y="326" text-anchor="middle" font-family="sans-serif" font-size="11" fill="#9aa0ad">8/22</text>
<line x1="174.5" x2="174.5" y1="292" y2="296" stroke="#3a4150" stroke-width="1"/>
<text x="174.5" y="326" text-anchor="middle" font-family="sans-serif" font-size="11" fill="#9aa0ad">8/23</text>
<line x1="187.0" x2="187.0" y1="292" y2="296" stroke="#3a4150" stroke-width="1"/>
<text x="187.0" y="326" text-anchor="middle" font-family="sans-serif" font-size="11" fill="#9aa0ad">8/24</text>
<line x1="199.5" x2="199.5" y1="292" y2="296" stroke="#3a4150" stroke-width="1"/>
<text x="199.5" y="326" text-anchor="middle" font-family="sans-serif" font-size="11" fill="#9aa0ad">8/25</text>
<line x1="212.0" x2="212.0" y1="292" y2="296" stroke="#3a4150" stroke-width="1"/>
<text x="212.0" y="326" text-anchor="middle" font-family="sans-serif" font-size="11" fill="#9aa0ad">8/26</text>
<line x1="224.5" x2="224.5" y1="292" y2="296" stroke="#3a4150" stroke-width="1"/>
<text x="224.5" y="326" text-anchor="middle" font-family="sans-serif" font-size="11" fill="#9aa0ad">8/27</text>
<line x1="237.0" x2="237.0" y1="292" y2="296" stroke="#3a4150" stroke-width="1"/>
<text x="237.0" y="326" text-anchor="middle" font-family="sans-serif" font-size="11" fill="#9aa0ad">8/29</text>
<line x1="249.5" x2="249.5" y1="292" y2="296" stroke="#3a4150" stroke-width="1"/>
<text x="249.5" y="326" text-anchor="middle" font-family="sans-serif" font-size="11" fill="#9aa0ad">8/30</text>
<line x1="262.0" x2="262.0" y1="292" y2="296" stroke="#3a4150" stroke-width="1"/>
<text x="262.0" y="326" text-anchor="middle" font-family="sans-serif" font-size="11" fill="#9aa0ad">8/31</text>
<line x1="274.5" x2="274.5" y1="292" y2="296" stroke="#3a4150" stroke-width="1"/>
<text x="274.5" y="326" text-anchor="middle" font-family="sans-serif" font-size="11" fill="#9aa0ad">9/1</text>
<line x1="287.0" x2="287.0" y1="292" y2="296" stroke="#3a4150" stroke-width="1"/>
<text x="287.0" y="326" text-anchor="middle" font-family="sans-serif" font-size="11" fill="#9aa0ad">9/2</text>
<line x1="299.5" x2="299.5" y1="292" y2="296" stroke="#3a4150" stroke-width="1"/>
<text x="299.5" y="326" text-anchor="middle" font-family="sans-serif" font-size="11" fill="#9aa0ad">9/3</text>
<line x1="312.0" x2="312.0" y1="292" y2="296" stroke="#3a4150" stroke-width="1"/>
<text x="312.0" y="326" text-anchor="middle" font-family="sans-serif" font-size="11" fill="#9aa0ad">9/4</text>
<line x1="324.5" x2="324.5" y1="292" y2="296" stroke="#3a4150" stroke-width="1"/>
<text x="324.5" y="326" text-anchor="middle" font-family="sans-serif" font-size="11" fill="#9aa0ad">9/5</text>
<line x1="337.0" x2="337.0" y1="292" y2="296" stroke="#3a4150" stroke-width="1"/>
<text x="337.0" y="326" text-anchor="middle" font-family="sans-serif" font-size="11" fill="#9aa0ad">9/6</text>
<line x1="349.5" x2="349.5" y1="292" y2="296" stroke="#3a4150" stroke-width="1"/>
<text x="349.5" y="326" text-anchor="middle" font-family="sans-serif" font-size="11" fill="#9aa0ad">9/7</text>
<line x1="362.0" x2="362.0" y1="292" y2="296" stroke="#3a4150" stroke-width="1"/>
<text x="362.0" y="326" text-anchor="middle" font-family="sans-serif" font-size="11" fill="#9aa0ad">9/8</text>
<line x1="374.5" x2="374.5" y1="292" y2="296" stroke="#3a4150" stroke-width="1"/>
<text x="374.5" y="326" text-anchor="middle" font-family="sans-serif" font-size="11" fill="#9aa0ad">9/9</text>
<line x1="387.0" x2="387.0" y1="292" y2="296" stroke="#3a4150" stroke-width="1"/>
<text x="387.0" y="326" text-anchor="middle" font-family="sans-serif" font-size="11" fill="#9aa0ad">9/10</text>
<line x1="399.5" x2="399.5" y1="292" y2="296" stroke="#3a4150" stroke-width="1"/>
<text x="399.5" y="326" text-anchor="middle" font-family="sans-serif" font-size="11" fill="#9aa0ad">9/11</text>
<line x1="412.0" x2="412.0" y1="292" y2="296" stroke="#3a4150" stroke-width="1"/>
<text x="412.0" y="326" text-anchor="middle" font-family="sans-serif" font-size="11" fill="#9aa0ad">9/12</text>
<line x1="424.5" x2="424.5" y1="292" y2="296" stroke="#3a4150" stroke-width="1"/>
<text x="424.5" y="326" text-anchor="middle" font-family="sans-serif" font-size="11" fill="#9aa0ad">9/13</text>
<line x1="437.0" x2="437.0" y1="292" y2="296" stroke="#3a4150" stroke-width="1"/>
<text x="437.0" y="326" text-anchor="middle" font-family="sans-serif" font-size="11" fill="#9aa0ad">9/14</text>
<line x1="449.5" x2="449.5" y1="292" y2="296" stroke="#3a4150" stroke-width="1"/>
<text x="449.5" y="326" text-anchor="middle" font-family="sans-serif" font-size="11" fill="#9aa0ad">9/15</text>
<line x1="462.0" x2="462.0" y1="292" y2="296" stroke="#3a4150" stroke-width="1"/>
<text x="462.0" y="326" text-anchor="middle" font-family="sans-serif" font-size="11" fill="#9aa0ad">9/16</text>
<line x1="474.5" x2="474.5" y1="292" y2="296" stroke="#3a4150" stroke-width="1"/>
<text x="474.5" y="326" text-anchor="middle" font-family="sans-serif" font-size="11" fill="#9aa0ad">9/17</text>
<line x1="487.0" x2="487.0" y1="292" y2="296" stroke="#3a4150" stroke-width="1"/>
<text x="487.0" y="326" text-anchor="middle" font-family="sans-serif" font-size="11" fill="#9aa0ad">9/18</text>
<line x1="499.5" x2="499.5" y1="292" y2="296" stroke="#3a4150" stroke-width="1"/>
<text x="499.5" y="326" text-anchor="middle" font-family="sans-serif" font-size="11" fill="#9aa0ad">9/19</text>
<line x1="512.0" x2="512.0" y1="292" y2="296" stroke="#3a4150" stroke-width="1"/>
<text x="512.0" y="326" text-anchor="middle" font-family="sans-serif" font-size="11" fill="#9aa0ad">9/20</text>
<line x1="524.5" x2="524.5" y1="292" y2="296" stroke="#3a4150" stroke-width="1"/>
<text x="524.5" y="326" text-anchor="middle" font-family="sans-serif" font-size="11" fill="#9aa0ad">9/21</text>
<line x1="537.0" x2="537.0" y1="292" y2="296" stroke="#3a4150" stroke-width="1"/>
<text x="537.0" y="326" text-anchor="middle" font-family="sans-serif" font-size="11" fill="#9aa0ad">9/22</text>
<line x1="549.5" x2="549.5" y1="292" y2="296" stroke="#3a4150" stroke-width="1"/>
<text x="549.5" y="326" text-anchor="middle" font-family="sans-serif" font-size="11" fill="#9aa0ad">9/23</text>
<line x1="562.0" x2="562.0" y1="292" y2="296" stroke="#3a4150" stroke-width="1"/>
<text x="562.0" y="326" text-anchor="middle" font-family="sans-serif" font-size="11" fill="#9aa0ad">9/24</text>
<line x1="574.5" x2="574.5" y1="292" y2="296" stroke="#3a4150" stroke-width="1"/>
<text x="574.5" y="326" text-anchor="middle" font-family="sans-serif" font-size="11" fill="#9aa0ad">9/25</text>
<line x1="587.0" x2="587.0" y1="292" y2="296" stroke="#3a4150" stroke-width="1"/>
<text x="587.0" y="326" text-anchor="middle" font-family="sans-serif" font-size="11" fill="#9aa0ad">9/26</text>
<line x1="599.5" x2="599.5" y1="292" y2="296" stroke="#3a4150" stroke-width="1"/>
<text x="599.5" y="326" text-anchor="middle" font-family="sans-serif" font-size="11" fill="#9aa0ad">9/27</text>
<line x1="612.0" x2="612.0" y1="292" y2="296" stroke="#3a4150" stroke-width="1"/>
<text x="612.0" y="326" text-anchor="middle" font-family="sans-serif" font-size="11" fill="#9aa0ad">9/28</text>
<line x1="624.5" x2="624.5" y1="292" y2="296" stroke="#3a4150" stroke-width="1"/>
<text x="624.5" y="326" text-anchor="middle" font-family="sans-serif" font-size="11" fill="#9aa0ad">9/29</text>
<line x1="637.0" x2="637.0" y1="292" y2="296" stroke="#3a4150" stroke-width="1"/>
<text x="637.0" y="326" text-anchor="middle" font-family="sans-serif" font-size="11" fill="#9aa0ad">9/30</text>
<line x1="649.5" x2="649.5" y1="292" y2="296" stroke="#3a4150" stroke-width="1"/>
<text x="649.5" y="326" text-anchor="middle" font-family="sans-serif" font-size="11" fill="#9aa0ad">10/1</text>
<line x1="662.0" x2="662.0" y1="292" y2="296" stroke="#3a4150" stroke-width="1"/>
<text x="662.0" y="326" text-anchor="middle" font-family="sans-serif" font-size="11" fill="#9aa0ad">10/2</text>
<line x1="674.5" x2="674.5" y1="292" y2="296" stroke="#3a4150" stroke-width="1"/>
<text x="674.5" y="326" text-anchor="middle" font-family="sans-serif" font-size="11" fill="#9aa0ad">10/3</text>
<line x1="687.0" x2="687.0" y1="292" y2="296" stroke="#3a4150" stroke-width="1"/>
<text x="687.0" y="326" text-anchor="middle" font-family="sans-serif" font-size="11" fill="#9aa0ad">10/4</text>
<line x1="699.5" x2="699.5" y1="292" y2="296" stroke="#3a4150" stroke-width="1"/>
<text x="699.5" y="326" text-anchor="middle" font-family="sans-serif" font-size="11" fill="#9aa0ad">10/5</text>
<line x1="712.0" x2="712.0" y1="292" y2="296" stroke="#3a4150" stroke-width="1"/>
<text x="712.0" y="326" text-anchor="middle" font-family="sans-serif" font-size="11" fill="#9aa0ad">10/6</text>
<line x1="724.5" x2="724.5" y1="292" y2="296" stroke="#3a4150" stroke-width="1"/>
<text x="724.5" y="326" text-anchor="middle" font-family="sans-serif" font-size="11" fill="#9aa0ad">10/7</text>
<line x1="737.0" x2="737.0" y1="292" y2="296" stroke="#3a4150" stroke-width="1"/>
<text x="737.0" y="326" text-anchor="middle" font-family="sans-serif" font-size="11" fill="#9aa0ad">10/8</text>
<line x1="749.5" x2="749.5" y1="292" y2="296" stroke="#3a4150" stroke-width="1"/>
<text x="749.5" y="326" text-anchor="middle" font-family="sans-serif" font-size="11" fill="#9aa0ad">10/9</text>
<line x1="762.0" x2="762.0" y1="292" y2="296" stroke="#3a4150" stroke-width="1"/>
<text x="762.0" y="326" text-anchor="middle" font-family="sans-serif" font-size="11" fill="#9aa0ad">10/10</text>
<line x1="62" x2="62" y1="30" y2="292" stroke="#3a4150" stroke-width="1.2"/>
<line x1="62" x2="762" y1="292" y2="292" stroke="#3a4150" stroke-width="1.2"/>
<text x="14" y="161.0" text-anchor="middle" transform="rotate(-90,14,161.0)" font-family="sans-serif" font-size="11" fill="#9aa0ad">Avg Top %</text>
<path d="M 62.0,231.3 L 74.5,231.3 L 87.0,231.3 L 99.5,231.3 L 112.0,231.3 L 124.5,231.3 L 137.0,231.3 L 149.5,231.3 L 162.0,231.3 L 174.5,231.3 L 187.0,231.3 L 199.5,231.3 L 212.0,231.3 L 224.5,231.3 L 237.0,231.3 L 249.5,231.3 L 262.0,231.3 L 274.5,231.3 L 287.0,231.3 L 299.5,231.3 L 312.0,231.3 L 324.5,231.3 L 337.0,231.3 L 349.5,231.3 L 362.0,231.3 L 374.5,231.3 L 387.0,231.3 L 399.5,231.3 L 412.0,231.3 L 424.5,231.3 L 437.0,231.3 L 449.5,231.3 L 462.0,231.3 L 474.5,231.3 L 487.0,231.3 L 499.5,231.3 L 512.0,231.3 L 524.5,231.3 L 537.0,231.3 L 549.5,231.3 L 562.0,231.3 L 574.5,231.3 L 587.0,231.3 L 599.5,231.3 L 612.0,231.3 L 624.5,231.3 L 637.0,231.3 L 649.5,231.3 L 662.0,231.3 L 674.5,231.3 L 687.0,231.3 L 699.5,231.3 L 712.0,231.3 L 724.5,231.3 L 737.0,231.3 L 749.5,231.3 L 762.0,231.3" fill="none" stroke="#f2c14e" stroke-width="1.8" opacity="0.9" stroke-dasharray="8 6" stroke-linecap="round" stroke-linejoin="round"/>
<path d="M 62.0,121.7 L 74.5,239.6 L 87.0,95.5 L 99.5,216.0 L 112.0,147.9 L 124.5,104.7 L 137.0,87.6 L 149.5,74.5 L 162.0,98.1 L 174.5,102.1 L 187.0,100.7 L 199.5,88.9 L 212.0,117.8 L 224.5,107.3 L 237.0,126.9 L 249.5,103.4 L 262.0,137.4 L 274.5,151.8 L 287.0,145.3 L 299.5,150.5 L 312.0,159.7 L 324.5,180.7 L 337.0,175.4 L 349.5,185.9 L 362.0,183.3 L 374.5,180.7 L 387.0,187.2 L 399.5,202.9 L 412.0,206.8 L 424.5,223.9 L 437.0,221.3 L 449.5,217.3 L 462.0,216.0 L 474.5,217.3 L 487.0,208.2 L 499.5,201.6 L 512.0,210.8 L 524.5,214.7 L 537.0,218.6 L 549.5,219.9 L 562.0,226.5 L 574.5,223.9 L 587.0,233.1 L 599.5,235.7 L 612.0,227.8 L 624.5,230.4 L 637.0,235.7 L 649.5,239.6 L 662.0,246.2 L 674.5,246.2 L 687.0,246.2 L 699.5,238.3 L 712.0,243.5 L 724.5,242.2 L 737.0,246.2 L 749.5,238.3 L 762.0,231.7" fill="none" stroke="#7aa5ff" stroke-width="2.5" stroke-linecap="round" stroke-linejoin="round"/>
<path d="M 62.0,121.7 L 74.5,239.6 L 87.0,95.5 L 99.5,216.0 L 112.0,147.9 L 124.5,104.7 L 137.0,87.6 L 149.5,74.5 L 162.0,98.1 L 174.5,102.1 L 187.0,100.7 L 199.5,88.9 L 212.0,117.8 L 224.5,107.3 L 237.0,126.9 L 249.5,103.4 L 262.0,137.4 L 274.5,151.8 L 287.0,145.3 L 299.5,150.5 L 312.0,159.7 L 324.5,180.7 L 337.0,175.4 L 349.5,185.9 L 362.0,183.3 L 374.5,180.7 L 387.0,187.2 L 399.5,202.9 L 412.0,206.8 L 424.5,223.9 L 437.0,221.3 L 449.5,217.3 L 462.0,216.0 L 474.5,217.3 L 487.0,208.2 L 499.5,201.6 L 512.0,210.8 L 524.5,214.7 L 537.0,218.6 L 549.5,219.9 L 562.0,226.5 L 574.5,223.9 L 587.0,233.1 L 599.5,235.7 L 612.0,227.8 L 624.5,230.4 L 637.0,235.7 L 649.5,239.6 L 662.0,246.2 L 674.5,246.2 L 687.0,246.2 L 699.5,238.3 L 712.0,243.5 L 724.5,242.2 L 737.0,246.2 L 749.5,238.3 L 762.0,231.7 L 762.0,292.0 L 62.0,292.0 Z" fill="#7aa5ff" opacity="0.08"/>
<circle cx="62.0" cy="121.7" r="4" fill="#7aa5ff" stroke="#0f1115" stroke-width="1.5"><title>8/13: 63.0</title></circle>
<circle cx="74.5" cy="239.6" r="4" fill="#7aa5ff" stroke="#0f1115" stroke-width="1.5"><title>8/14: 54.0</title></circle>
<circle cx="87.0" cy="95.5" r="4" fill="#7aa5ff" stroke="#0f1115" stroke-width="1.5"><title>8/15: 65.0</title></circle>
<circle cx="99.5" cy="216.0" r="4" fill="#7aa5ff" stroke="#0f1115" stroke-width="1.5"><title>8/16: 55.8</title></circle>
<circle cx="112.0" cy="147.9" r="4" fill="#7aa5ff" stroke="#0f1115" stroke-width="1.5"><title>8/17: 61.0</title></circle>
<circle cx="124.5" cy="104.7" r="4" fill="#7aa5ff" stroke="#0f1115" stroke-width="1.5"><title>8/18: 64.3</title></circle>
<circle cx="137.0" cy="87.6" r="4" fill="#7aa5ff" stroke="#0f1115" stroke-width="1.5"><title>8/20: 65.6</title></circle>
<circle cx="149.5" cy="74.5" r="4" fill="#7aa5ff" stroke="#0f1115" stroke-width="1.5"><title>8/21: 66.6</title></circle>
<circle cx="162.0" cy="98.1" r="4" fill="#7aa5ff" stroke="#0f1115" stroke-width="1.5"><title>8/22: 64.8</title></circle>
<circle cx="174.5" cy="102.1" r="4" fill="#7aa5ff" stroke="#0f1115" stroke-width="1.5"><title>8/23: 64.5</title></circle>
<circle cx="187.0" cy="100.7" r="4" fill="#7aa5ff" stroke="#0f1115" stroke-width="1.5"><title>8/24: 64.6</title></circle>
<circle cx="199.5" cy="88.9" r="4" fill="#7aa5ff" stroke="#0f1115" stroke-width="1.5"><title>8/25: 65.5</title></circle>
<circle cx="212.0" cy="117.8" r="4" fill="#7aa5ff" stroke="#0f1115" stroke-width="1.5"><title>8/26: 63.3</title></circle>
<circle cx="224.5" cy="107.3" r="4" fill="#7aa5ff" stroke="#0f1115" stroke-width="1.5"><title>8/27: 64.1</title></circle>
<circle cx="237.0" cy="126.9" r="4" fill="#7aa5ff" stroke="#0f1115" stroke-width="1.5"><title>8/29: 62.6</title></circle>
<circle cx="249.5" cy="103.4" r="4" fill="#7aa5ff" stroke="#0f1115" stroke-width="1.5"><title>8/30: 64.4</title></circle>
<circle cx="262.0" cy="137.4" r="4" fill="#7aa5ff" stroke="#0f1115" stroke-width="1.5"><title>8/31: 61.8</title></circle>
<circle cx="274.5" cy="151.8" r="4" fill="#7aa5ff" stroke="#0f1115" stroke-width="1.5"><title>9/1: 60.7</title></circle>
<circle cx="287.0" cy="145.3" r="4" fill="#7aa5ff" stroke="#0f1115" stroke-width="1.5"><title>9/2: 61.2</title></circle>
<circle cx="299.5" cy="150.5" r="4" fill="#7aa5ff" stroke="#0f1115" stroke-width="1.5"><title>9/3: 60.8</title></circle>
<circle cx="312.0" cy="159.7" r="4" fill="#7aa5ff" stroke="#0f1115" stroke-width="1.5"><title>9/4: 60.1</title></circle>
<circle cx="324.5" cy="180.7" r="4" fill="#7aa5ff" stroke="#0f1115" stroke-width="1.5"><title>9/5: 58.5</title></circle>
<circle cx="337.0" cy="175.4" r="4" fill="#7aa5ff" stroke="#0f1115" stroke-width="1.5"><title>9/6: 58.9</title></circle>
<circle cx="349.5" cy="185.9" r="4" fill="#7aa5ff" stroke="#0f1115" stroke-width="1.5"><title>9/7: 58.1</title></circle>
<circle cx="362.0" cy="183.3" r="4" fill="#7aa5ff" stroke="#0f1115" stroke-width="1.5"><title>9/8: 58.3</title></circle>
<circle cx="374.5" cy="180.7" r="4" fill="#7aa5ff" stroke="#0f1115" stroke-width="1.5"><title>9/9: 58.5</title></circle>
<circle cx="387.0" cy="187.2" r="4" fill="#7aa5ff" stroke="#0f1115" stroke-width="1.5"><title>9/10: 58.0</title></circle>
<circle cx="399.5" cy="202.9" r="4" fill="#7aa5ff" stroke="#0f1115" stroke-width="1.5"><title>9/11: 56.8</title></circle>
<circle cx="412.0" cy="206.8" r="4" fill="#7aa5ff" stroke="#0f1115" stroke-width="1.5"><title>9/12: 56.5</title></circle>
<circle cx="424.5" cy="223.9" r="4" fill="#7aa5ff" stroke="#0f1115" stroke-width="1.5"><title>9/13: 55.2</title></circle>
<circle cx="437.0" cy="221.3" r="4" fill="#7aa5ff" stroke="#0f1115" stroke-width="1.5"><title>9/14: 55.4</title></circle>
<circle cx="449.5" cy="217.3" r="4" fill="#7aa5ff" stroke="#0f1115" stroke-width="1.5"><title>9/15: 55.7</title></circle>
<circle cx="462.0" cy="216.0" r="4" fill="#7aa5ff" stroke="#0f1115" stroke-width="1.5"><title>9/16: 55.8</title></circle>
<circle cx="474.5" cy="217.3" r="4" fill="#7aa5ff" stroke="#0f1115" stroke-width="1.5"><title>9/17: 55.7</title></circle>
<circle cx="487.0" cy="208.2" r="4" fill="#7aa5ff" stroke="#0f1115" stroke-width="1.5"><title>9/18: 56.4</title></circle>
<circle cx="499.5" cy="201.6" r="4" fill="#7aa5ff" stroke="#0f1115" stroke-width="1.5"><title>9/19: 56.9</title></circle>
<circle cx="512.0" cy="210.8" r="4" fill="#7aa5ff" stroke="#0f1115" stroke-width="1.5"><title>9/20: 56.2</title></circle>
<circle cx="524.5" cy="214.7" r="4" fill="#7aa5ff" stroke="#0f1115" stroke-width="1.5"><title>9/21: 55.9</title></circle>
<circle cx="537.0" cy="218.6" r="4" fill="#7aa5ff" stroke="#0f1115" stroke-width="1.5"><title>9/22: 55.6</title></circle>
<circle cx="549.5" cy="219.9" r="4" fill="#7aa5ff" stroke="#0f1115" stroke-width="1.5"><title>9/23: 55.5</title></circle>
<circle cx="562.0" cy="226.5" r="4" fill="#7aa5ff" stroke="#0f1115" stroke-width="1.5"><title>9/24: 55.0</title></circle>
<circle cx="574.5" cy="223.9" r="4" fill="#7aa5ff" stroke="#0f1115" stroke-width="1.5"><title>9/25: 55.2</title></circle>
<circle cx="587.0" cy="233.1" r="4" fill="#7aa5ff" stroke="#0f1115" stroke-width="1.5"><title>9/26: 54.5</title></circle>
<circle cx="599.5" cy="235.7" r="4" fill="#7aa5ff" stroke="#0f1115" stroke-width="1.5"><title>9/27: 54.3</title></circle>
<circle cx="612.0" cy="227.8" r="4" fill="#7aa5ff" stroke="#0f1115" stroke-width="1.5"><title>9/28: 54.9</title></circle>
<circle cx="624.5" cy="230.4" r="4" fill="#7aa5ff" stroke="#0f1115" stroke-width="1.5"><title>9/29: 54.7</title></circle>
<circle cx="637.0" cy="235.7" r="4" fill="#7aa5ff" stroke="#0f1115" stroke-width="1.5"><title>9/30: 54.3</title></circle>
<circle cx="649.5" cy="239.6" r="4" fill="#7aa5ff" stroke="#0f1115" stroke-width="1.5"><title>10/1: 54.0</title></circle>
<circle cx="662.0" cy="246.2" r="4" fill="#7aa5ff" stroke="#0f1115" stroke-width="1.5"><title>10/2: 53.5</title></circle>
<circle cx="674.5" cy="246.2" r="4" fill="#7aa5ff" stroke="#0f1115" stroke-width="1.5"><title>10/3: 53.5</title></circle>
<circle cx="687.0" cy="246.2" r="4" fill="#7aa5ff" stroke="#0f1115" stroke-width="1.5"><title>10/4: 53.5</title></circle>
<circle cx="699.5" cy="238.3" r="4" fill="#7aa5ff" stroke="#0f1115" stroke-width="1.5"><title>10/5: 54.1</title></circle>
<circle cx="712.0" cy="243.5" r="4" fill="#7aa5ff" stroke="#0f1115" stroke-width="1.5"><title>10/6: 53.7</title></circle>
<circle cx="724.5" cy="242.2" r="4" fill="#7aa5ff" stroke="#0f1115" stroke-width="1.5"><title>10/7: 53.8</title></circle>
<circle cx="737.0" cy="246.2" r="4" fill="#7aa5ff" stroke="#0f1115" stroke-width="1.5"><title>10/8: 53.5</title></circle>
<circle cx="749.5" cy="238.3" r="4" fill="#7aa5ff" stroke="#0f1115" stroke-width="1.5"><title>10/9: 54.1</title></circle>
<circle cx="762.0" cy="231.7" r="4" fill="#7aa5ff" stroke="#0f1115" stroke-width="1.5"><title>10/10: 54.6</title></circle>
<text x="149.5" y="64.5" text-anchor="middle" font-family="sans-serif" font-size="10" font-weight="700" fill="#e6e6e6">66.6</text>
<text x="662.0" y="260.1" text-anchor="middle" font-family="sans-serif" font-size="10" font-weight="700" fill="#e6e6e6">53.5</text>
<text x="674.5" y="260.1" text-anchor="middle" font-family="sans-serif" font-size="10" font-weight="700" fill="#e6e6e6">53.5</text>
<text x="687.0" y="260.1" text-anchor="middle" font-family="sans-serif" font-size="10" font-weight="700" fill="#e6e6e6">53.5</text>
<text x="737.0" y="260.1" text-anchor="middle" font-family="sans-serif" font-size="10" font-weight="700" fill="#e6e6e6">53.5</text>
</svg>