<svg viewBox="0 0 780 340" width="100%" height="340" xmlns="http://www.w3.org/2000/svg" role="img" aria-label="Cumulative Average Percentile Over Time">
<rect width="780" height="340" fill="#0f1115" rx="12"/>
<text x="390.0" y="20" text-anchor="middle" font-family="sans-serif" font-size="14" font-weight="600" fill="#e6e6e6">Cumulative Average Percentile Over Time</text>
<line x1="62" x2="762" y1="292.0" y2="292.0" stroke="#2a2f3a" stroke-width="1" stroke-dasharray="4 6"/>
<text x="54" y="296.0" text-anchor="end" font-family="sans-serif" font-size="11" fill="#9aa0ad">50</text>
<line x1="62" x2="762" y1="226.5" y2="226.5" stroke="#2a2f3a" stroke-width="1" stroke-dasharray="4 6"/>
<text x="54" y="230.5" text-anchor="end" font-family="sans-serif" font-size="11" fill="#9aa0ad">55</text>
<line x1="62" x2="762" y1="161.0" y2="161.0" stroke="#2a2f3a" stroke-width="1" stroke-dasharray="4 6"/>
<text x="54" y="165.0" text-anchor="end" font-family="sans-serif" font-size="11" fill="#9aa0ad">60</text>
<line x1="62" x2="762" y1="95.5" y2="95.5" stroke="#2a2f3a" stroke-width="1" stroke-dasharray="4 6"/>
<text x="54" y="99.5" text-anchor="end" font-family="sans-serif" font-size="11" fill="#9aa0ad">65</text>
<line x1="62" x2="762" y1="30.0" y2="30.0" stroke="#2a2f3a" stroke-width="1" stroke-dasharray="4 6"/>
<text x="54" y="34.0" text-anchor="end" font-family="sans-serif" font-size="11" fill="#9aa0ad">70</text>
<line x1="62.0" x2="62.0" y1="292" y2="296" stroke="#3a4150" stroke-width="1"/>
<text x="62.0" y="326" text-anchor="middle" font-family="sans-serif" font-size="11" fill="#9aa0ad">8/13</text>
<line x1="78.7" x2="78.7" y1="292" y2="296" stroke="#3a4150" stroke-width="1"/>
<text x="78.7" y="326" text-anchor="middle" font-family="sans-serif" font-size="11" fill="#9aa0ad">8/14</text>
<line x1="95.3" x2="95.3" y1="292" y2="296" stroke="#3a4150" stroke-width="1"/>
<text x="95.3" y="326" text-anchor="middle" font-family="sans-serif" font-size="11" fill="#9aa0ad">8/15</text>
<line x1="112.0" x2="112.0" y1="292" y2="296" stroke="#3a4150" stroke-width="1"/>
<text x="112.0" y="326" text-anchor="middle" font-family="sans-serif" font-size="11" fill="#9aa0ad">8/16</text>
<line x1="128.7" x2="128.7" y1="292" y2="296" stroke="#3a4150" stroke-width="1"/>
<text x="128.7" y="326" text-anchor="middle" font-family="sans-serif" font-size="11" fill="#9aa0ad">8/17</text>
<line x1="145.3" x2="145.3" y1="292" y2="296" stroke="#3a4150" stroke-width="1"/>
<text x="145.3" y="326" text-anchor="middle" font-family="sans-serif" font-size="11" fill="#9aa0ad">8/18</text>
<line x1="162.0" x2="162.0" y1="292" y2="296" stroke="#3a4150" stroke-width="1"/>
<text x="162.0" y="326" text-anchor="middle" font-family="sans-serif" font-size="11" fill="#9aa0ad">8/20</text>
<line x1="178.7" x2="178.7" y1="292" y2="296" stroke="#3a4150" stroke-width="1"/>
<text x="178.7" y="326" text-anchor="middle" font-family="sans-serif" font-size="11" fill="#9aa0ad">8/21</text>
<line x1="195.3" x2="195.3" y1="292" y2="296" stroke="#3a4150" stroke-width="1"/>
<text x="195.3" y="326" text-anchor="middle" font-family="sans-serif" font-size="11" fill="#9aa0ad">8/22</text>
<line x1="212.0" x2="212.0" y1="292" y2="296" stroke="#3a4150" stroke-width="1"/>
<text x="212.0" y="326" text-anchor="middle" font-family="sans-serif" font-size="11" fill="#9aa0ad">8/23</text>
<line x1="228.7" x2="228.7" y1="292" y2="296" stroke="#3a4150" stroke-width="1"/>
<text x="228.7" y="326" text-anchor="middle" font-family="sans-serif" font-size="11" fill="#9aa0ad">8/24</text>
<line x1="245.3" x2="245.3" y1="292" y2="296" stroke="#3a4150" stroke-width="1"/>
<text x="245.3" y="326" text-anchor="middle" font-family="sans-serif" font-size="11" fill="#9aa0ad">8/25</text>
<line x1="262.0" x2="262.0" y1="292" y2="296" stroke="#3a4150" stroke-width="1"/>
<text x="262.0" y="326" text-anchor="middle" font-family="sans-serif" font-size="11" fill="#9aa0ad">8/26</text>
<line x1="278.7" x2="278.7" y1="292" y2="296" stroke="#3a4150" stroke-width="1"/>
<text x="278.7" y="326" text-anchor="middle" font-family="sans-serif" font-size="11" fill="#9aa0ad">8/27</text>
<line x1="295.3" x2="295.3" y1="292" y2="296" stroke="#3a4150" stroke-width="1"/>
<text x="295.3" y="326" text-anchor="middle" font-family="sans-serif" font-size="11" fill="#9aa0ad">8/29</text>
<line x1="312.0" x2="312.0" y1="292" y2="296" stroke="#3a4150" stroke-width="1"/>
<text x="312.0" y="326" text-anchor="middle" font-family="sans-serif" font-size="11" fill="#9aa0ad">8/30</text>
<line x1="328.7" x2="328.7" y1="292" y2="296" stroke="#3a4150" stroke-width="1"/>
<text x="328.7" y="326" text-anchor="middle" font-family="sans-serif" font-size="11" fill="#9aa0ad">8/31</text>
<line x1="345.3" x2="345.3" y1="292" y2="296" stroke="#3a4150" stroke-width="1"/>
<text x="345.3" y="326" text-anchor="middle" font-family="sans-serif" font-size="11" fill="#9aa0ad">9/1</text>
<line x1="362.0" x2="362.0" y1="292" y2="296" stroke="#3a4150" stroke-width="1"/>
<text x="362.0" y="326" text-anchor="middle" font-family="sans-serif" font-size="11" fill="#9aa0ad">9/2</text>
<line x1="378.7" x2="378.7" y1="292" y2="296" stroke="#3a4150" stroke-width="1"/>
<text x="378.7" y="326" text-anchor="middle" font-family="sans-serif" font-size="11" fill="#9aa0ad">9/3</text>
<line x1="395.3" x2="395.3" y1="292" y2="296" stroke="#3a4150" stroke-width="1"/>
<text x="395.3" y="326" text-anchor="middle" font-family="sans-serif" font-size="11" fill="#9aa0ad">9/4</text>
<line x1="412.0" x2="412.0" y1="292" y2="296" stroke="#3a4150" stroke-width="1"/>
<text x="412.0" y="326" text-anchor="middle" font-family="sans-serif" font-size="11" fill="#9aa0ad">9/5</text>
<line x1="428.7" x2="428.7" y1="292" y2="296" stroke="#3a4150" stroke-width="1"/>
<text x="428.7" y="326" text-anchor="middle" font-family="sans-serif" font-size="11" fill="#9aa0ad">9/6</text>
<line x1="445.3" x2="445.3" y1="292" y2="296" stroke="#3a4150" stroke-width="1"/>
<text x="445.3" y="326" text-anchor="middle" font-family="sans-serif" font-size="11" fill="#9aa0ad">9/7</text>
<line x1="462.0" x2="462.0" y1="292" y2="296" stroke="#3a4150" stroke-width="1"/>
<text x="462.0" y="326" text-anchor="middle" font-family="sans-serif" font-size="11" fill="#9aa0ad">9/8</text>
<line x1="478.7" x2="478.7" y1="292" y2="296" stroke="#3a4150" stroke-width="1"/>
<text x="478.7" y="326" text-anchor="middle" font-family="sans-serif" font-size="11" fill="#9aa0ad">9/9</text>
<line x1="495.3" x2="495.3" y1="292" y2="296" stroke="#3a4150" stroke-width="1"/>
<text x="495.3" y="326" text-anchor="middle" font-family="sans-serif" font-size="11" fill="#9aa0ad">9/10</text>
<line x1="512.0" x2="512.0" y1="292" y2="296" stroke="#3a4150" stroke-width="1"/>
<text x="512.0" y="326" text-anchor="middle" font-family="sans-serif" font-size="11" fill="#9aa0ad">9/11</text>
<line x1="528.7" x2="528.7" y1="292" y2="296" stroke="#3a4150" stroke-width="1"/>
<text x="528.7" y="326" text-anchor="middle" font-family="sans-serif" font-size="11" fill="#9aa0ad">9/12</text>
<line x1="545.3" x2="545.3" y1="292" y2="296" stroke="#3a4150" stroke-width="1"/>
<text x="545.3" y="326" text-anchor="middle" font-family="sans-serif" font-size="11" fill="#9aa0ad">9/13</text>
<line x1="562.0" x2="562.0" y1="292" y2="296" stroke="#3a4150" stroke-width="1"/>
<text x="562.0" y="326" text-anchor="middle" font-family="sans-serif" font-size="11" fill="#9aa0ad">9/14</text>
<line x1="578.7" x2="578.7" y1="292" y2="296" stroke="#3a4150" stroke-width="1"/>
<text x="578.7" y="326" text-anchor="middle" font-family="sans-serif" font-size="11" fill="#9aa0ad">9/15</text>
<line x1="595.3" x2="595.3" y1="292" y2="296" stroke="#3a4150" stroke-width="1"/>
<text x="595.3" y="326" text-anchor="middle" font-family="sans-serif" font-size="11" fill="#9aa0ad">9/16</text>
<line x1="612.0" x2="612.0" y1="292" y2="296" stroke="#3a4150" stroke-width="1"/>
<text x="612.0" y="326" text-anchor="middle" font-family="sans-serif" font-size="11" fill="#9aa0ad">9/17</text>
<line x1="628.7" x2="628.7" y1="292" y2="296" stroke="#3a4150" stroke-width="1"/>
<text x="628.7" y="326" text-anchor="middle" font-family="sans-serif" font-size="11" fill="#9aa0ad">9/18</text>
<line x1="645.3" x2="645.3" y1="292" y2="296" stroke="#3a4150" stroke-width="1"/>
<text x="645.3" y="326" text-anchor="middle" font-family="sans-serif" font-size="11" fill="#9aa0ad">9/19</text>
<line x1="662.0" x2="662.0" y1="292" y2="296" stroke="#3a4150" stroke-width="1"/>
<text x="662.0" y="326" text-anchor="middle" font-family="sans-serif" font-size="11" fill="#9aa0ad">9/20</text>
<line x1="678.7" x2="678.7" y1="292" y2="296" stroke="#3a4150" stroke-width="1"/>
<text x="678.7" y="326" text-anchor="middle" font-family="sans-serif" font-size="11" fill="#9aa0ad">9/21</text>
<line x1="695.3" x2="695.3" y1="292" y2="296" stroke="#3a4150" stroke-width="1"/>
<text x="695.3" y="326" text-anchor="middle" font-family="sans-serif" font-size="11" fill="#9aa0ad">9/22</text>
<line x1="712.0" x2="712.0" y1="292" y2="296" stroke="#3a4150" stroke-width="1"/>
<text x="712.0" y="326" text-anchor="middle" font-family="sans-serif" font-size="11" fill="#9aa0ad">9/23</text>
<line x1="728.7" x2="728.7" y1="292" y2="296" stroke="#3a4150" stroke-width="1"/>
<text x="728.7" y="326" text-anchor="middle" font-family="sans-serif" font-size="11" fill="#9aa0ad">9/24</text>
<line x1="745.3" x2="745.3" y1="292" y2="296" stroke="#3a4150" stroke-width="1"/>
<text x="745.3" y="326" text-anchor="middle" font-family="sans-serif" font-size="11" fill="#9aa0ad">9/25</text>
<line x1="762.0" x2="762.0" y1="292" y2="296" stroke="#3a4150" stroke-width="1"/>
<text x="762.0" y="326" text-anchor="middle" font-family="sans-serif" font-size="11" fill="#9aa0ad">9/26</text>
<line x1="62" x2="62" y1="30" y2="292" stroke="#3a4150" stroke-width="1.2"/>
<line x1="62" x2="762" y1="292" y2="292" stroke="#3a4150" stroke-width="1.2"/>
<text x="14" y="161.0" text-anchor="middle" transform="rotate(-90,14,161.0)" font-family="sans-serif" font-size="11" fill="#9aa0ad">Avg Top %</text>
<path d="M 62.0,232.9 L 78.7,232.9 L 95.3,232.9 L 112.0,232.9 L 128.7,232.9 L 145.3,232.9 L 162.0,232.9 L 178.7,232.9 L 195.3,232.9 L 212.0,232.9 L 228.7,232.9 L 245.3,232.9 L 262.0,232.9 L 278.7,232.9 L 295.3,232.9 L 312.0,232.9 L 328.7,232.9 L 345.3,232.9 L 362.0,232.9 L 378.7,232.9 L 395.3,232.9 L 412.0,232.9 L 428.7,232.9 L 445.3,232.9 L 462.0,232.9 L 478.7,232.9 L 495.3,232.9 L 512.0,232.9 L 528.7,232.9 L 545.3,232.9 L 562.0,232.9 L 578.7,232.9 L 595.3,232.9 L 612.0,232.9 L 628.7,232.9 L 645.3,232.9 L 662.0,232.9 L 678.7,232.9 L 695.3,232.9 L 712.0,232.9 L 728.7,232.9 L 745.3,232.9 L 762.0,232.9" fill="none" stroke="#f2c14e" stroke-width="1.8" opacity="0.9" stroke-dasharray="8 6" stroke-linecap="round" stroke-linejoin="round"/>
<path d="M 62.0,121.7 L 78.7,239.6 L 95.3,95.5 L 112.0,216.0 L 128.7,147.9 L 145.3,104.7 L 162.0,87.6 L 178.7,74.5 L 195.3,98.1 L 212.0,102.1 L 228.7,100.7 L 245.3,88.9 L 262.0,117.8 L 278.7,107.3 L 295.3,126.9 L 312.0,103.4 L 328.7,137.4 L 345.3,151.8 L 362.0,145.3 L 378.7,150.5 L 395.3,159.7 L 412.0,180.7 L 428.7,175.4 L 445.3,185.9 L 462.0,183.3 L 478.7,180.7 L 495.3,187.2 L 512.0,202.9 L 528.7,206.8 L 545.3,223.9 L 562.0,221.3 L 578.7,217.3 L 595.3,216.0 L 612.0,217.3 L 628.7,208.2 L 645.3,201.6 L 662.0,210.8 L 678.7,214.7 L 695.3,218.6 L 712.0,219.9 L 728.7,226.5 L 745.3,223.9 L 762.0,233.1" fill="none" stroke="#7aa5ff" stroke-width="2.5" stroke-linecap="round" stroke-linejoin="round"/>
<path d="M 62.0,121.7 L 78.7,239.6 L 95.3,95.5 L 112.0,216.0 L 128.7,147.9 L 145.3,104.7 L 162.0,87.6 L 178.7,74.5 L 195.3,98.1 L 212.0,102.1 L 228.7,100.7 L 245.3,88.9 L 262.0,117.8 L 278.7,107.3 L 295.3,126.9 L 312.0,103.4 L 328.7,137.4 L 345.3,151.8 L 362.0,145.3 L 378.7,150.5 L 395.3,159.7 L 412.0,180.7 L 428.7,175.4 L 445.3,185.9 L 462.0,183.3 L 478.7,180.7 L 495.3,187.2 L 512.0,202.9 L 528.7,206.8 L 545.3,223.9 L 562.0,221.3 L 578.7,217.3 L 595.3,216.0 L 612.0,217.3 L 628.7,208.2 L 645.3,201.6 L 662.0,210.8 L 678.7,214.7 L 695.3,218.6 L 712.0,219.9 L 728.7,226.5 L 745.3,223.9 L 762.0,233.1 L 762.0,292.0 L 62.0,292.0 Z" fill="#7aa5ff" opacity="0.08"/>
<circle cx="62.0" cy="121.7" r="4" fill="#7aa5ff" stroke="#0f1115" stroke-width="1.5"><title>8/13: 63.0</title></circle>
<circle cx="78.7" cy="239.6" r="4" fill="#7aa5ff" stroke="#0f1115" stroke-width="1.5"><title>8/14: 54.0</title></circle>
<circle cx="95.3" cy="95.5" r="4" fill="#7aa5ff" stroke="#0f1115" stroke-width="1.5"><title>8/15: 65.0</title></circle>
<circle cx="112.0" cy="216.0" r="4" fill="#7aa5ff" stroke="#0f1115" stroke-width="1.5"><title>8/16: 55.8</title></circle>
<circle cx="128.7" cy="147.9" r="4" fill="#7aa5ff" stroke="#0f1115" stroke-width="1.5"><title>8/17: 61.0</title></circle>
<circle cx="145.3" cy="104.7" r="4" fill="#7aa5ff" stroke="#0f1115" stroke-width="1.5"><title>8/18: 64.3</title></circle>
<circle cx="162.0" cy="87.6" r="4" fill="#7aa5ff" stroke="#0f1115" stroke-width="1.5"><title>8/20: 65.6</title></circle>
<circle cx="178.7" cy="74.5" r="4" fill="#7aa5ff" stroke="#0f1115" stroke-width="1.5"><title>8/21: 66.6</title></circle>
<circle cx="195.3" cy="98.1" r="4" fill="#7aa5ff" stroke="#0f1115" stroke-width="1.5"><title>8/22: 64.8</title></circle>
<circle cx="212.0" cy="102.1" r="4" fill="#7aa5ff" stroke="#0f1115" stroke-width="1.5"><title>8/23: 64.5</title></circle>
<circle cx="228.7" cy="100.7" r="4" fill="#7aa5ff" stroke="#0f1115" stroke-width="1.5"><title>8/24: 64.6</title></circle>
<circle cx="245.3" cy="88.9" r="4" fill="#7aa5ff" stroke="#0f1115" stroke-width="1.5"><title>8/25: 65.5</title></circle>
<circle cx="262.0" cy="117.8" r="4" fill="#7aa5ff" stroke="#0f1115" stroke-width="1.5"><title>8/26: 63.3</title></circle>
<circle cx="278.7" cy="107.3" r="4" fill="#7aa5ff" stroke="#0f1115" stroke-width="1.5"><title>8/27: 64.1</title></circle>
<circle cx="295.3" cy="126.9" r="4" fill="#7aa5ff" stroke="#0f1115" stroke-width="1.5"><title>8/29: 62.6</title></circle>
<circle cx="312.0" cy="103.4" r="4" fill="#7aa5ff" stroke="#0f1115" stroke-width="1.5"><title>8/30: 64.4</title></circle>
<circle cx="328.7" cy="137.4" r="4" fill="#7aa5ff" stroke="#0f1115" stroke-width="1.5"><title>8/31: 61.8</title></circle>
<circle cx="345.3" cy="151.8" r="4" fill="#7aa5ff" stroke="#0f1115" stroke-width="1.5"><title>9/1: 60.7</title></circle>
<circle cx="362.0" cy="145.3" r="4" fill="#7aa5ff" stroke="#0f1115" stroke-width="1.5"><title>9/2: 61.2</title></circle>
<circle cx="378.7" cy="150.5" r="4" fill="#7aa5ff" stroke="#0f1115" stroke-width="1.5"><title>9/3: 60.8</title></circle>
<circle cx="395.3" cy="159.7" r="4" fill="#7aa5ff" stroke="#0f1115" stroke-width="1.5"><title>9/4: 60.1</title></circle>
<circle cx="412.0" cy="180.7" r="4" fill="#7aa5ff" stroke="#0f1115" stroke-width="1.5"><title>9/5: 58.5</title></circle>
<circle cx="428.7" cy="175.4" r="4" fill="#7aa5ff" stroke="#0f1115" stroke-width="1.5"><title>9/6: 58.9</title></circle>
<circle cx="445.3" cy="185.9" r="4" fill="#7aa5ff" stroke="#0f1115" stroke-width="1.5"><title>9/7: 58.1</title></circle>
<circle cx="462.0" cy="183.3" r="4" fill="#7aa5ff" stroke="#0f1115" stroke-width="1.5"><title>9/8: 58.3</title></circle>
<circle cx="478.7" cy="180.7" r="4" fill="#7aa5ff" stroke="#0f1115" stroke-width="1.5"><title>9/9: 58.5</title></circle>
<circle cx="495.3" cy="187.2" r="4" fill="#7aa5ff" stroke="#0f1115" stroke-width="1.5"><title>9/10: 58.0</title></circle>
<circle cx="512.0" cy="202.9" r="4" fill="#7aa5ff" stroke="#0f1115" stroke-width="1.5"><title>9/11: 56.8</title></circle>
<circle cx="528.7" cy="206.8" r="4" fill="#7aa5ff" stroke="#0f1115" stroke-width="1.5"><title>9/12: 56.5</title></circle>
<circle cx="545.3" cy="223.9" r="4" fill="#7aa5ff" stroke="#0f1115" stroke-width="1.5"><title>9/13: 55.2</title></circle>
<circle cx="562.0" cy="221.3" r="4" fill="#7aa5ff" stroke="#0f1115" stroke-width="1.5"><title>9/14: 55.4</title></circle>
<circle cx="578.7" cy="217.3" r="4" fill="#7aa5ff" stroke="#0f1115" stroke-width="1.5"><title>9/15: 55.7</title></circle>
<circle cx="595.3" cy="216.0" r="4" fill="#7aa5ff" stroke="#0f1115" stroke-width="1.5"><title>9/16: 55.8</title></circle>
<circle cx="612.0" cy="217.3" r="4" fill="#7aa5ff" stroke="#0f1115" stroke-width="1.5"><title>9/17: 55.7</title></circle>
<circle cx="628.7" cy="208.2" r="4" fill="#7aa5ff" stroke="#0f1115" stroke-width="1.5"><title>9/18: 56.4</title></circle>
<circle cx="645.3" cy="201.6" r="4" fill="#7aa5ff" stroke="#0f1115" stroke-width="1.5"><title>9/19: 56.9</title></circle>
<circle cx="662.0" cy="210.8" r="4" fill="#7aa5ff" stroke="#0f1115" stroke-width="1.5"><title>9/20: 56.2</title></circle>
<circle cx="678.7" cy="214.7" r="4" fill="#7aa5ff" stroke="#0f1115" stroke-width="1.5"><title>9/21: 55.9</title></circle>
<circle cx="695.3" cy="218.6" r="4" fill="#7aa5ff" stroke="#0f1115" stroke-width="1.5"><title>9/22: 55.6</title></circle>
<circle cx="712.0" cy="219.9" r="4" fill="#7aa5ff" stroke="#0f1115" stroke-width="1.5"><title>9/23: 55.5</title></circle>
<circle cx="728.7" cy="226.5" r="4" fill="#7aa5ff" stroke="#0f1115" stroke-width="1.5"><title>9/24: 55.0</title></circle>
<circle cx="745.3" cy="223.9" r="4" fill="#7aa5ff" stroke="#0f1115" stroke-width="1.5"><title>9/25: 55.2</title></circle>
<circle cx="762.0" cy="233.1" r="4" fill="#7aa5ff" stroke="#0f1115" stroke-width="1.5"><title>9/26: 54.5</title></circle>
<text x="78.7" y="253.6" text-anchor="middle" font-family="sans-serif" font-size="10" font-weight="700" fill="#e6e6e6">54.0</text>
<text x="178.7" y="64.5" text-anchor="middle" font-family="sans-serif" font-size="10" font-weight="700" fill="#e6e6e6">66.6</text>
</svg>