<svg viewBox="0 0 780 340" width="100%" height="340" xmlns="http://www.w3.org/2000/svg" role="img" aria-label="Percentile Over Time (lower is better)">
<rect width="780" height="340" fill="#0f1115" rx="12"/>
<text x="390.0" y="20" text-anchor="middle" font-family="sans-serif" font-size="14" font-weight="600" fill="#e6e6e6">Percentile Over Time (lower is better)</text>
<line x1="62" x2="762" y1="275.6" y2="275.6" stroke="#2a2f3a" stroke-width="1" stroke-dasharray="4 6"/>
<text x="54" y="279.6" text-anchor="end" font-family="sans-serif" font-size="11" fill="#9aa0ad">20</text>
<line x1="62" x2="762" y1="210.1" y2="210.1" stroke="#2a2f3a" stroke-width="1" stroke-dasharray="4 6"/>
<text x="54" y="214.1" text-anchor="end" font-family="sans-serif" font-size="11" fill="#9aa0ad">40</text>
<line x1="62" x2="762" y1="144.6" y2="144.6" stroke="#2a2f3a" stroke-width="1" stroke-dasharray="4 6"/>
<text x="54" y="148.6" text-anchor="end" font-family="sans-serif" font-size="11" fill="#9aa0ad">60</text>
<line x1="62" x2="762" y1="79.1" y2="79.1" stroke="#2a2f3a" stroke-width="1" stroke-dasharray="4 6"/>
<text x="54" y="83.1" text-anchor="end" font-family="sans-serif" font-size="11" fill="#9aa0ad">80</text>
<line x1="62" x2="762" y1="46.4" y2="46.4" stroke="#2a2f3a" stroke-width="1" stroke-dasharray="4 6"/>
<text x="54" y="50.4" text-anchor="end" font-family="sans-serif" font-size="11" fill="#9aa0ad">90</text>
<line x1="62.0" x2="62.0" y1="292" y2="296" stroke="#3a4150" stroke-width="1"/>
<text x="62.0" y="326" text-anchor="middle" font-family="sans-serif" font-size="11" fill="#9aa0ad">8/13</text>
<line x1="92.4" x2="92.4" y1="292" y2="296" stroke="#3a4150" stroke-width="1"/>
<text x="92.4" y="326" text-anchor="middle" font-family="sans-serif" font-size="11" fill="#9aa0ad">8/14</text>
<line x1="122.9" x2="122.9" y1="292" y2="296" stroke="#3a4150" stroke-width="1"/>
<text x="122.9" y="326" text-anchor="middle" font-family="sans-serif" font-size="11" fill="#9aa0ad">8/15</text>
<line x1="153.3" x2="153.3" y1="292" y2="296" stroke="#3a4150" stroke-width="1"/>
<text x="153.3" y="326" text-anchor="middle" font-family="sans-serif" font-size="11" fill="#9aa0ad">8/16</text>
<line x1="183.7" x2="183.7" y1="292" y2="296" stroke="#3a4150" stroke-width="1"/>
<text x="183.7" y="326" text-anchor="middle" font-family="sans-serif" font-size="11" fill="#9aa0ad">8/17</text>
<line x1="214.2" x2="214.2" y1="292" y2="296" stroke="#3a4150" stroke-width="1"/>
<text x="214.2" y="326" text-anchor="middle" font-family="sans-serif" font-size="11" fill="#9aa0ad">8/18</text>
<line x1="244.6" x2="244.6" y1="292" y2="296" stroke="#3a4150" stroke-width="1"/>
<text x="244.6" y="326" text-anchor="middle" font-family="sans-serif" font-size="11" fill="#9aa0ad">8/20</text>
<line x1="275.0" x2="275.0" y1="292" y2="296" stroke="#3a4150" stroke-width="1"/>
<text x="275.0" y="326" text-anchor="middle" font-family="sans-serif" font-size="11" fill="#9aa0ad">8/21</text>
<line x1="305.5" x2="305.5" y1="292" y2="296" stroke="#3a4150" stroke-width="1"/>
<text x="305.5" y="326" text-anchor="middle" font-family="sans-serif" font-size="11" fill="#9aa0ad">8/22</text>
<line x1="335.9" x2="335.9" y1="292" y2="296" stroke="#3a4150" stroke-width="1"/>
<text x="335.9" y="326" text-anchor="middle" font-family="sans-serif" font-size="11" fill="#9aa0ad">8/23</text>
<line x1="366.3" x2="366.3" y1="292" y2="296" stroke="#3a4150" stroke-width="1"/>
<text x="366.3" y="326" text-anchor="middle" font-family="sans-serif" font-size="11" fill="#9aa0ad">8/24</text>
<line x1="396.8" x2="396.8" y1="292" y2="296" stroke="#3a4150" stroke-width="1"/>
<text x="396.8" y="326" text-anchor="middle" font-family="sans-serif" font-size="11" fill="#9aa0ad">8/25</text>
<line x1="427.2" x2="427.2" y1="292" y2="296" stroke="#3a4150" stroke-width="1"/>
<text x="427.2" y="326" text-anchor="middle" font-family="sans-serif" font-size="11" fill="#9aa0ad">8/26</text>
<line x1="457.7" x2="457.7" y1="292" y2="296" stroke="#3a4150" stroke-width="1"/>
<text x="457.7" y="326" text-anchor="middle" font-family="sans-serif" font-size="11" fill="#9aa0ad">8/27</text>
<line x1="488.1" x2="488.1" y1="292" y2="296" stroke="#3a4150" stroke-width="1"/>
<text x="488.1" y="326" text-anchor="middle" font-family="sans-serif" font-size="11" fill="#9aa0ad">8/29</text>
<line x1="518.5" x2="518.5" y1="292" y2="296" stroke="#3a4150" stroke-width="1"/>
<text x="518.5" y="326" text-anchor="middle" font-family="sans-serif" font-size="11" fill="#9aa0ad">8/30</text>
<line x1="549.0" x2="549.0" y1="292" y2="296" stroke="#3a4150" stroke-width="1"/>
<text x="549.0" y="326" text-anchor="middle" font-family="sans-serif" font-size="11" fill="#9aa0ad">8/31</text>
<line x1="579.4" x2="579.4" y1="292" y2="296" stroke="#3a4150" stroke-width="1"/>
<text x="579.4" y="326" text-anchor="middle" font-family="sans-serif" font-size="11" fill="#9aa0ad">9/1</text>
<line x1="609.8" x2="609.8" y1="292" y2="296" stroke="#3a4150" stroke-width="1"/>
<text x="609.8" y="326" text-anchor="middle" font-family="sans-serif" font-size="11" fill="#9aa0ad">9/2</text>
<line x1="640.3" x2="640.3" y1="292" y2="296" stroke="#3a4150" stroke-width="1"/>
<text x="640.3" y="326" text-anchor="middle" font-family="sans-serif" font-size="11" fill="#9aa0ad">9/3</text>
<line x1="670.7" x2="670.7" y1="292" y2="296" stroke="#3a4150" stroke-width="1"/>
<text x="670.7" y="326" text-anchor="middle" font-family="sans-serif" font-size="11" fill="#9aa0ad">9/4</text>
<line x1="701.1" x2="701.1" y1="292" y2="296" stroke="#3a4150" stroke-width="1"/>
<text x="701.1" y="326" text-anchor="middle" font-family="sans-serif" font-size="11" fill="#9aa0ad">9/5</text>
<line x1="731.6" x2="731.6" y1="292" y2="296" stroke="#3a4150" stroke-width="1"/>
<text x="731.6" y="326" text-anchor="middle" font-family="sans-serif" font-size="11" fill="#9aa0ad">9/6</text>
<line x1="762.0" x2="762.0" y1="292" y2="296" stroke="#3a4150" stroke-width="1"/>
<text x="762.0" y="326" text-anchor="middle" font-family="sans-serif" font-size="11" fill="#9aa0ad">9/7</text>
<line x1="62" x2="62" y1="30" y2="292" stroke="#3a4150" stroke-width="1.2"/>
<line x1="62" x2="762" y1="292" y2="292" stroke="#3a4150" stroke-width="1.2"/>
<text x="14" y="161.0" text-anchor="middle" transform="rotate(-90,14,161.0)" font-family="sans-serif" font-size="11" fill="#9aa0ad">Top %</text>
<path d="M 62.0,115.4 L 92.4,118.5 L 122.9,121.6 L 153.3,124.7 L 183.7,127.8 L 214.2,130.9 L 244.6,133.9 L 275.0,137.0 L 305.5,140.1 L 335.9,143.2 L 366.3,146.3 L 396.8,149.4 L 427.2,152.4 L 457.7,155.5 L 488.1,158.6 L 518.5,161.7 L 549.0,164.8 L 579.4,167.9 L 609.8,170.9 L 640.3,174.0 L 670.7,177.1 L 701.1,180.2 L 731.6,183.3 L 762.0,186.4" fill="none" stroke="#f2c14e" stroke-width="1.8" opacity="0.9" stroke-dasharray="8 6" stroke-linecap="round" stroke-linejoin="round"/>
<path d="M 62.0,134.8 L 92.4,193.8 L 122.9,56.2 L 153.3,249.4 L 183.7,72.6 L 214.2,75.9 L 244.6,102.1 L 275.0,98.8 L 305.5,177.4 L 335.9,138.1 L 366.3,125.0 L 396.8,95.5 L 427.2,219.9 L 457.7,95.5 L 488.1,206.8 L 518.5,39.8 L 549.0,278.9 L 579.4,203.6 L 609.8,108.6 L 640.3,167.6 L 670.7,187.2 L 701.1,262.5 L 731.6,118.4 L 762.0,213.4" fill="none" stroke="#7aa5ff" stroke-width="2.5" stroke-linecap="round" stroke-linejoin="round"/>
<path d="M 62.0,134.8 L 92.4,193.8 L 122.9,56.2 L 153.3,249.4 L 183.7,72.6 L 214.2,75.9 L 244.6,102.1 L 275.0,98.8 L 305.5,177.4 L 335.9,138.1 L 366.3,125.0 L 396.8,95.5 L 427.2,219.9 L 457.7,95.5 L 488.1,206.8 L 518.5,39.8 L 549.0,278.9 L 579.4,203.6 L 609.8,108.6 L 640.3,167.6 L 670.7,187.2 L 701.1,262.5 L 731.6,118.4 L 762.0,213.4 L 762.0,292.0 L 62.0,292.0 Z" fill="#7aa5ff" opacity="0.08"/>
<circle cx="62.0" cy="134.8" r="4" fill="#7aa5ff" stroke="#0f1115" stroke-width="1.5"><title>8/13: 63</title></circle>
<circle cx="92.4" cy="193.8" r="4" fill="#7aa5ff" stroke="#0f1115" stroke-width="1.5"><title>8/14: 45</title></circle>
<circle cx="122.9" cy="56.2" r="4" fill="#7aa5ff" stroke="#0f1115" stroke-width="1.5"><title>8/15: 87</title></circle>
<circle cx="153.3" cy="249.4" r="4" fill="#7aa5ff" stroke="#0f1115" stroke-width="1.5"><title>8/16: 28</title></circle>
<circle cx="183.7" cy="72.6" r="4" fill="#7aa5ff" stroke="#0f1115" stroke-width="1.5"><title>8/17: 82</title></circle>
<circle cx="214.2" cy="75.9" r="4" fill="#7aa5ff" stroke="#0f1115" stroke-width="1.5"><title>8/18: 81</title></circle>
<circle cx="244.6" cy="102.1" r="4" fill="#7aa5ff" stroke="#0f1115" stroke-width="1.5"><title>8/20: 73</title></circle>
<circle cx="275.0" cy="98.8" r="4" fill="#7aa5ff" stroke="#0f1115" stroke-width="1.5"><title>8/21: 74</title></circle>
<circle cx="305.5" cy="177.4" r="4" fill="#7aa5ff" stroke="#0f1115" stroke-width="1.5"><title>8/22: 50</title></circle>
<circle cx="335.9" cy="138.1" r="4" fill="#7aa5ff" stroke="#0f1115" stroke-width="1.5"><title>8/23: 62</title></circle>
<circle cx="366.3" cy="125.0" r="4" fill="#7aa5ff" stroke="#0f1115" stroke-width="1.5"><title>8/24: 66</title></circle>
<circle cx="396.8" cy="95.5" r="4" fill="#7aa5ff" stroke="#0f1115" stroke-width="1.5"><title>8/25: 75</title></circle>
<circle cx="427.2" cy="219.9" r="4" fill="#7aa5ff" stroke="#0f1115" stroke-width="1.5"><title>8/26: 37</title></circle>
<circle cx="457.7" cy="95.5" r="4" fill="#7aa5ff" stroke="#0f1115" stroke-width="1.5"><title>8/27: 75</title></circle>
<circle cx="488.1" cy="206.8" r="4" fill="#7aa5ff" stroke="#0f1115" stroke-width="1.5"><title>8/29: 41</title></circle>
<circle cx="518.5" cy="39.8" r="4" fill="#7aa5ff" stroke="#0f1115" stroke-width="1.5"><title>8/30: 92</title></circle>
<circle cx="549.0" cy="278.9" r="4" fill="#7aa5ff" stroke="#0f1115" stroke-width="1.5"><title>8/31: 19</title></circle>
<circle cx="579.4" cy="203.6" r="4" fill="#7aa5ff" stroke="#0f1115" stroke-width="1.5"><title>9/1: 42</title></circle>
<circle cx="609.8" cy="108.6" r="4" fill="#7aa5ff" stroke="#0f1115" stroke-width="1.5"><title>9/2: 71</title></circle>
<circle cx="640.3" cy="167.6" r="4" fill="#7aa5ff" stroke="#0f1115" stroke-width="1.5"><title>9/3: 53</title></circle>
<circle cx="670.7" cy="187.2" r="4" fill="#7aa5ff" stroke="#0f1115" stroke-width="1.5"><title>9/4: 47</title></circle>
<circle cx="701.1" cy="262.5" r="4" fill="#7aa5ff" stroke="#0f1115" stroke-width="1.5"><title>9/5: 24</title></circle>
<circle cx="731.6" cy="118.4" r="4" fill="#7aa5ff" stroke="#0f1115" stroke-width="1.5"><title>9/6: 68</title></circle>
<circle cx="762.0" cy="213.4" r="4" fill="#7aa5ff" stroke="#0f1115" stroke-width="1.5"><title>9/7: 39</title></circle>
<text x="518.5" y="29.8" text-anchor="middle" font-family="sans-serif" font-size="10" font-weight="700" fill="#e6e6e6">92</text>
<text x="549.0" y="292.9" text-anchor="middle" font-family="sans-serif" font-size="10" font-weight="700" fill="#e6e6e6">19</text>
</svg>