<svg viewBox="0 0 780 340" width="100%" height="340" xmlns="http://www.w3.org/2000/svg" role="img" aria-label="Cumulative Average Percentile Over Time">
<rect width="780" height="340" fill="#0f1115" rx="12"/>
<text x="390.0" y="20" text-anchor="middle" font-family="sans-serif" font-size="14" font-weight="600" fill="#e6e6e6">Cumulative Average Percentile Over Time</text>
<line x1="62" x2="762" y1="292.0" y2="292.0" stroke="#2a2f3a" stroke-width="1" stroke-dasharray="4 6"/>
<text x="54" y="296.0" text-anchor="end" font-family="sans-serif" font-size="11" fill="#9aa0ad">50</text>
<line x1="62" x2="762" y1="226.5" y2="226.5" stroke="#2a2f3a" stroke-width="1" stroke-dasharray="4 6"/>
<text x="54" y="230.5" text-anchor="end" font-family="sans-serif" font-size="11" fill="#9aa0ad">55</text>
<line x1="62" x2="762" y1="161.0" y2="161.0" stroke="#2a2f3a" stroke-width="1" stroke-dasharray="4 6"/>
<text x="54" y="165.0" text-anchor="end" font-family="sans-serif" font-size="11" fill="#9aa0ad">60</text>
<line x1="62" x2="762" y1="95.5" y2="95.5" stroke="#2a2f3a" stroke-width="1" stroke-dasharray="4 6"/>
<text x="54" y="99.5" text-anchor="end" font-family="sans-serif" font-size="11" fill="#9aa0ad">65</text>
<line x1="62" x2="762" y1="30.0" y2="30.0" stroke="#2a2f3a" stroke-width="1" stroke-dasharray="4 6"/>
<text x="54" y="34.0" text-anchor="end" font-family="sans-serif" font-size="11" fill="#9aa0ad">70</text>
<line x1="62.0" x2="62.0" y1="292" y2="296" stroke="#3a4150" stroke-width="1"/>
<text x="62.0" y="326" text-anchor="middle" font-family="sans-serif" font-size="11" fill="#9aa0ad">8/13</text>
<line x1="83.9" x2="83.9" y1="292" y2="296" stroke="#3a4150" stroke-width="1"/>
<text x="83.9" y="326" text-anchor="middle" font-family="sans-serif" font-size="11" fill="#9aa0ad">8/14</text>
<line x1="105.8" x2="105.8" y1="292" y2="296" stroke="#3a4150" stroke-width="1"/>
<text x="105.8" y="326" text-anchor="middle" font-family="sans-serif" font-size="11" fill="#9aa0ad">8/15</text>
<line x1="127.6" x2="127.6" y1="292" y2="296" stroke="#3a4150" stroke-width="1"/>
<text x="127.6" y="326" text-anchor="middle" font-family="sans-serif" font-size="11" fill="#9aa0ad">8/16</text>
<line x1="149.5" x2="149.5" y1="292" y2="296" stroke="#3a4150" stroke-width="1"/>
<text x="149.5" y="326" text-anchor="middle" font-family="sans-serif" font-size="11" fill="#9aa0ad">8/17</text>
<line x1="171.4" x2="171.4" y1="292" y2="296" stroke="#3a4150" stroke-width="1"/>
<text x="171.4" y="326" text-anchor="middle" font-family="sans-serif" font-size="11" fill="#9aa0ad">8/18</text>
<line x1="193.2" x2="193.2" y1="292" y2="296" stroke="#3a4150" stroke-width="1"/>
<text x="193.2" y="326" text-anchor="middle" font-family="sans-serif" font-size="11" fill="#9aa0ad">8/20</text>
<line x1="215.1" x2="215.1" y1="292" y2="296" stroke="#3a4150" stroke-width="1"/>
<text x="215.1" y="326" text-anchor="middle" font-family="sans-serif" font-size="11" fill="#9aa0ad">8/21</text>
<line x1="237.0" x2="237.0" y1="292" y2="296" stroke="#3a4150" stroke-width="1"/>
<text x="237.0" y="326" text-anchor="middle" font-family="sans-serif" font-size="11" fill="#9aa0ad">8/22</text>
<line x1="258.9" x2="258.9" y1="292" y2="296" stroke="#3a4150" stroke-width="1"/>
<text x="258.9" y="326" text-anchor="middle" font-family="sans-serif" font-size="11" fill="#9aa0ad">8/23</text>
<line x1="280.8" x2="280.8" y1="292" y2="296" stroke="#3a4150" stroke-width="1"/>
<text x="280.8" y="326" text-anchor="middle" font-family="sans-serif" font-size="11" fill="#9aa0ad">8/24</text>
<line x1="302.6" x2="302.6" y1="292" y2="296" stroke="#3a4150" stroke-width="1"/>
<text x="302.6" y="326" text-anchor="middle" font-family="sans-serif" font-size="11" fill="#9aa0ad">8/25</text>
<line x1="324.5" x2="324.5" y1="292" y2="296" stroke="#3a4150" stroke-width="1"/>
<text x="324.5" y="326" text-anchor="middle" font-family="sans-serif" font-size="11" fill="#9aa0ad">8/26</text>
<line x1="346.4" x2="346.4" y1="292" y2="296" stroke="#3a4150" stroke-width="1"/>
<text x="346.4" y="326" text-anchor="middle" font-family="sans-serif" font-size="11" fill="#9aa0ad">8/27</text>
<line x1="368.2" x2="368.2" y1="292" y2="296" stroke="#3a4150" stroke-width="1"/>
<text x="368.2" y="326" text-anchor="middle" font-family="sans-serif" font-size="11" fill="#9aa0ad">8/29</text>
<line x1="390.1" x2="390.1" y1="292" y2="296" stroke="#3a4150" stroke-width="1"/>
<text x="390.1" y="326" text-anchor="middle" font-family="sans-serif" font-size="11" fill="#9aa0ad">8/30</text>
<line x1="412.0" x2="412.0" y1="292" y2="296" stroke="#3a4150" stroke-width="1"/>
<text x="412.0" y="326" text-anchor="middle" font-family="sans-serif" font-size="11" fill="#9aa0ad">8/31</text>
<line x1="433.9" x2="433.9" y1="292" y2="296" stroke="#3a4150" stroke-width="1"/>
<text x="433.9" y="326" text-anchor="middle" font-family="sans-serif" font-size="11" fill="#9aa0ad">9/1</text>
<line x1="455.8" x2="455.8" y1="292" y2="296" stroke="#3a4150" stroke-width="1"/>
<text x="455.8" y="326" text-anchor="middle" font-family="sans-serif" font-size="11" fill="#9aa0ad">9/2</text>
<line x1="477.6" x2="477.6" y1="292" y2="296" stroke="#3a4150" stroke-width="1"/>
<text x="477.6" y="326" text-anchor="middle" font-family="sans-serif" font-size="11" fill="#9aa0ad">9/3</text>
<line x1="499.5" x2="499.5" y1="292" y2="296" stroke="#3a4150" stroke-width="1"/>
<text x="499.5" y="326" text-anchor="middle" font-family="sans-serif" font-size="11" fill="#9aa0ad">9/4</text>
<line x1="521.4" x2="521.4" y1="292" y2="296" stroke="#3a4150" stroke-width="1"/>
<text x="521.4" y="326" text-anchor="middle" font-family="sans-serif" font-size="11" fill="#9aa0ad">9/5</text>
<line x1="543.2" x2="543.2" y1="292" y2="296" stroke="#3a4150" stroke-width="1"/>
<text x="543.2" y="326" text-anchor="middle" font-family="sans-serif" font-size="11" fill="#9aa0ad">9/6</text>
<line x1="565.1" x2="565.1" y1="292" y2="296" stroke="#3a4150" stroke-width="1"/>
<text x="565.1" y="326" text-anchor="middle" font-family="sans-serif" font-size="11" fill="#9aa0ad">9/7</text>
<line x1="587.0" x2="587.0" y1="292" y2="296" stroke="#3a4150" stroke-width="1"/>
<text x="587.0" y="326" text-anchor="middle" font-family="sans-serif" font-size="11" fill="#9aa0ad">9/8</text>
<line x1="608.9" x2="608.9" y1="292" y2="296" stroke="#3a4150" stroke-width="1"/>
<text x="608.9" y="326" text-anchor="middle" font-family="sans-serif" font-size="11" fill="#9aa0ad">9/9</text>
<line x1="630.8" x2="630.8" y1="292" y2="296" stroke="#3a4150" stroke-width="1"/>
<text x="630.8" y="326" text-anchor="middle" font-family="sans-serif" font-size="11" fill="#9aa0ad">9/10</text>
<line x1="652.6" x2="652.6" y1="292" y2="296" stroke="#3a4150" stroke-width="1"/>
<text x="652.6" y="326" text-anchor="middle" font-family="sans-serif" font-size="11" fill="#9aa0ad">9/11</text>
<line x1="674.5" x2="674.5" y1="292" y2="296" stroke="#3a4150" stroke-width="1"/>
<text x="674.5" y="326" text-anchor="middle" font-family="sans-serif" font-size="11" fill="#9aa0ad">9/12</text>
<line x1="696.4" x2="696.4" y1="292" y2="296" stroke="#3a4150" stroke-width="1"/>
<text x="696.4" y="326" text-anchor="middle" font-family="sans-serif" font-size="11" fill="#9aa0ad">9/13</text>
<line x1="718.2" x2="718.2" y1="292" y2="296" stroke="#3a4150" stroke-width="1"/>
<text x="718.2" y="326" text-anchor="middle" font-family="sans-serif" font-size="11" fill="#9aa0ad">9/14</text>
<line x1="740.1" x2="740.1" y1="292" y2="296" stroke="#3a4150" stroke-width="1"/>
<text x="740.1" y="326" text-anchor="middle" font-family="sans-serif" font-size="11" fill="#9aa0ad">9/15</text>
<line x1="762.0" x2="762.0" y1="292" y2="296" stroke="#3a4150" stroke-width="1"/>
<text x="762.0" y="326" text-anchor="middle" font-family="sans-serif" font-size="11" fill="#9aa0ad">9/16</text>
<line x1="62" x2="62" y1="30" y2="292" stroke="#3a4150" stroke-width="1.2"/>
<line x1="62" x2="762" y1="292" y2="292" stroke="#3a4150" stroke-width="1.2"/>
<text x="14" y="161.0" text-anchor="middle" transform="rotate(-90,14,161.0)" font-family="sans-serif" font-size="11" fill="#9aa0ad">Avg Top %</text>
<path d="M 62.0,216.2 L 83.9,216.2 L 105.8,216.2 L 127.6,216.2 L 149.5,216.2 L 171.4,216.2 L 193.2,216.2 L 215.1,216.2 L 237.0,216.2 L 258.9,216.2 L 280.8,216.2 L 302.6,216.2 L 324.5,216.2 L 346.4,216.2 L 368.2,216.2 L 390.1,216.2 L 412.0,216.2 L 433.9,216.2 L 455.8,216.2 L 477.6,216.2 L 499.5,216.2 L 521.4,216.2 L 543.2,216.2 L 565.1,216.2 L 587.0,216.2 L 608.9,216.2 L 630.8,216.2 L 652.6,216.2 L 674.5,216.2 L 696.4,216.2 L 718.2,216.2 L 740.1,216.2 L 762.0,216.2" fill="none" stroke="#f2c14e" stroke-width="1.8" opacity="0.9" stroke-dasharray="8 6" stroke-linecap="round" stroke-linejoin="round"/>
<path d="M 62.0,121.7 L 83.9,239.6 L 105.8,95.5 L 127.6,216.0 L 149.5,147.9 L 171.4,104.7 L 193.2,87.6 L 215.1,74.5 L 237.0,98.1 L 258.9,102.1 L 280.8,100.7 L 302.6,88.9 L 324.5,117.8 L 346.4,107.3 L 368.2,126.9 L 390.1,103.4 L 412.0,137.4 L 433.9,151.8 L 455.8,145.3 L 477.6,150.5 L 499.5,159.7 L 521.4,180.7 L 543.2,175.4 L 565.1,185.9 L 587.0,183.3 L 608.9,180.7 L 630.8,187.2 L 652.6,202.9 L 674.5,206.8 L 696.4,223.9 L 718.2,221.3 L 740.1,217.3 L 762.0,216.0" fill="none" stroke="#7aa5ff" stroke-width="2.5" stroke-linecap="round" stroke-linejoin="round"/>
<path d="M 62.0,121.7 L 83.9,239.6 L 105.8,95.5 L 127.6,216.0 L 149.5,147.9 L 171.4,104.7 L 193.2,87.6 L 215.1,74.5 L 237.0,98.1 L 258.9,102.1 L 280.8,100.7 L 302.6,88.9 L 324.5,117.8 L 346.4,107.3 L 368.2,126.9 L 390.1,103.4 L 412.0,137.4 L 433.9,151.8 L 455.8,145.3 L 477.6,150.5 L 499.5,159.7 L 521.4,180.7 L 543.2,175.4 L 565.1,185.9 L 587.0,183.3 L 608.9,180.7 L 630.8,187.2 L 652.6,202.9 L 674.5,206.8 L 696.4,223.9 L 718.2,221.3 L 740.1,217.3 L 762.0,216.0 L 762.0,292.0 L 62.0,292.0 Z" fill="#7aa5ff" opacity="0.08"/>
<circle cx="62.0" cy="121.7" r="4" fill="#7aa5ff" stroke="#0f1115" stroke-width="1.5"><title>8/13: 63.0</title></circle>
<circle cx="83.9" cy="239.6" r="4" fill="#7aa5ff" stroke="#0f1115" stroke-width="1.5"><title>8/14: 54.0</title></circle>
<circle cx="105.8" cy="95.5" r="4" fill="#7aa5ff" stroke="#0f1115" stroke-width="1.5"><title>8/15: 65.0</title></circle>
<circle cx="127.6" cy="216.0" r="4" fill="#7aa5ff" stroke="#0f1115" stroke-width="1.5"><title>8/16: 55.8</title></circle>
<circle cx="149.5" cy="147.9" r="4" fill="#7aa5ff" stroke="#0f1115" stroke-width="1.5"><title>8/17: 61.0</title></circle>
<circle cx="171.4" cy="104.7" r="4" fill="#7aa5ff" stroke="#0f1115" stroke-width="1.5"><title>8/18: 64.3</title></circle>
<circle cx="193.2" cy="87.6" r="4" fill="#7aa5ff" stroke="#0f1115" stroke-width="1.5"><title>8/20: 65.6</title></circle>
<circle cx="215.1" cy="74.5" r="4" fill="#7aa5ff" stroke="#0f1115" stroke-width="1.5"><title>8/21: 66.6</title></circle>
<circle cx="237.0" cy="98.1" r="4" fill="#7aa5ff" stroke="#0f1115" stroke-width="1.5"><title>8/22: 64.8</title></circle>
<circle cx="258.9" cy="102.1" r="4" fill="#7aa5ff" stroke="#0f1115" stroke-width="1.5"><title>8/23: 64.5</title></circle>
<circle cx="280.8" cy="100.7" r="4" fill="#7aa5ff" stroke="#0f1115" stroke-width="1.5"><title>8/24: 64.6</title></circle>
<circle cx="302.6" cy="88.9" r="4" fill="#7aa5ff" stroke="#0f1115" stroke-width="1.5"><title>8/25: 65.5</title></circle>
<circle cx="324.5" cy="117.8" r="4" fill="#7aa5ff" stroke="#0f1115" stroke-width="1.5"><title>8/26: 63.3</title></circle>
<circle cx="346.4" cy="107.3" r="4" fill="#7aa5ff" stroke="#0f1115" stroke-width="1.5"><title>8/27: 64.1</title></circle>
<circle cx="368.2" cy="126.9" r="4" fill="#7aa5ff" stroke="#0f1115" stroke-width="1.5"><title>8/29: 62.6</title></circle>
<circle cx="390.1" cy="103.4" r="4" fill="#7aa5ff" stroke="#0f1115" stroke-width="1.5"><title>8/30: 64.4</title></circle>
<circle cx="412.0" cy="137.4" r="4" fill="#7aa5ff" stroke="#0f1115" stroke-width="1.5"><title>8/31: 61.8</title></circle>
<circle cx="433.9" cy="151.8" r="4" fill="#7aa5ff" stroke="#0f1115" stroke-width="1.5"><title>9/1: 60.7</title></circle>
<circle cx="455.8" cy="145.3" r="4" fill="#7aa5ff" stroke="#0f1115" stroke-width="1.5"><title>9/2: 61.2</title></circle>
<circle cx="477.6" cy="150.5" r="4" fill="#7aa5ff" stroke="#0f1115" stroke-width="1.5"><title>9/3: 60.8</title></circle>
<circle cx="499.5" cy="159.7" r="4" fill="#7aa5ff" stroke="#0f1115" stroke-width="1.5"><title>9/4: 60.1</title></circle>
<circle cx="521.4" cy="180.7" r="4" fill="#7aa5ff" stroke="#0f1115" stroke-width="1.5"><title>9/5: 58.5</title></circle>
<circle cx="543.2" cy="175.4" r="4" fill="#7aa5ff" stroke="#0f1115" stroke-width="1.5"><title>9/6: 58.9</title></circle>
<circle cx="565.1" cy="185.9" r="4" fill="#7aa5ff" stroke="#0f1115" stroke-width="1.5"><title>9/7: 58.1</title></circle>
<circle cx="587.0" cy="183.3" r="4" fill="#7aa5ff" stroke="#0f1115" stroke-width="1.5"><title>9/8: 58.3</title></circle>
<circle cx="608.9" cy="180.7" r="4" fill="#7aa5ff" stroke="#0f1115" stroke-width="1.5"><title>9/9: 58.5</title></circle>
<circle cx="630.8" cy="187.2" r="4" fill="#7aa5ff" stroke="#0f1115" stroke-width="1.5"><title>9/10: 58.0</title></circle>
<circle cx="652.6" cy="202.9" r="4" fill="#7aa5ff" stroke="#0f1115" stroke-width="1.5"><title>9/11: 56.8</title></circle>
<circle cx="674.5" cy="206.8" r="4" fill="#7aa5ff" stroke="#0f1115" stroke-width="1.5"><title>9/12: 56.5</title></circle>
<circle cx="696.4" cy="223.9" r="4" fill="#7aa5ff" stroke="#0f1115" stroke-width="1.5"><title>9/13: 55.2</title></circle>
<circle cx="718.2" cy="221.3" r="4" fill="#7aa5ff" stroke="#0f1115" stroke-width="1.5"><title>9/14: 55.4</title></circle>
<circle cx="740.1" cy="217.3" r="4" fill="#7aa5ff" stroke="#0f1115" stroke-width="1.5"><title>9/15: 55.7</title></circle>
<circle cx="762.0" cy="216.0" r="4" fill="#7aa5ff" stroke="#0f1115" stroke-width="1.5"><title>9/16: 55.8</title></circle>
<text x="83.9" y="253.6" text-anchor="middle" font-family="sans-serif" font-size="10" font-weight="700" fill="#e6e6e6">54.0</text>
<text x="215.1" y="64.5" text-anchor="middle" font-family="sans-serif" font-size="10" font-weight="700" fill="#e6e6e6">66.6</text>
</svg>