<svg viewBox="0 0 780 340" width="100%" height="340" xmlns="http://www.w3.org/2000/svg" role="img" aria-label="Cumulative Average Percentile Over Time">
<rect width="780" height="340" fill="#0f1115" rx="12"/>
<text x="390.0" y="20" text-anchor="middle" font-family="sans-serif" font-size="14" font-weight="600" fill="#e6e6e6">Cumulative Average Percentile Over Time</text>
<line x1="62" x2="762" y1="292.0" y2="292.0" stroke="#2a2f3a" stroke-width="1" stroke-dasharray="4 6"/>
<text x="54" y="296.0" text-anchor="end" font-family="sans-serif" font-size="11" fill="#9aa0ad">50</text>
<line x1="62" x2="762" y1="226.5" y2="226.5" stroke="#2a2f3a" stroke-width="1" stroke-dasharray="4 6"/>
<text x="54" y="230.5" text-anchor="end" font-family="sans-serif" font-size="11" fill="#9aa0ad">55</text>
<line x1="62" x2="762" y1="161.0" y2="161.0" stroke="#2a2f3a" stroke-width="1" stroke-dasharray="4 6"/>
<text x="54" y="165.0" text-anchor="end" font-family="sans-serif" font-size="11" fill="#9aa0ad">60</text>
<line x1="62" x2="762" y1="95.5" y2="95.5" stroke="#2a2f3a" stroke-width="1" stroke-dasharray="4 6"/>
<text x="54" y="99.5" text-anchor="end" font-family="sans-serif" font-size="11" fill="#9aa0ad">65</text>
<line x1="62" x2="762" y1="30.0" y2="30.0" stroke="#2a2f3a" stroke-width="1" stroke-dasharray="4 6"/>
<text x="54" y="34.0" text-anchor="end" font-family="sans-serif" font-size="11" fill="#9aa0ad">70</text>
<line x1="62.0" x2="62.0" y1="292" y2="296" stroke="#3a4150" stroke-width="1"/>
<text x="62.0" y="326" text-anchor="middle" font-family="sans-serif" font-size="11" fill="#9aa0ad">8/13</text>
<line x1="77.2" x2="77.2" y1="292" y2="296" stroke="#3a4150" stroke-width="1"/>
<text x="77.2" y="326" text-anchor="middle" font-family="sans-serif" font-size="11" fill="#9aa0ad">8/14</text>
<line x1="92.4" x2="92.4" y1="292" y2="296" stroke="#3a4150" stroke-width="1"/>
<text x="92.4" y="326" text-anchor="middle" font-family="sans-serif" font-size="11" fill="#9aa0ad">8/15</text>
<line x1="107.7" x2="107.7" y1="292" y2="296" stroke="#3a4150" stroke-width="1"/>
<text x="107.7" y="326" text-anchor="middle" font-family="sans-serif" font-size="11" fill="#9aa0ad">8/16</text>
<line x1="122.9" x2="122.9" y1="292" y2="296" stroke="#3a4150" stroke-width="1"/>
<text x="122.9" y="326" text-anchor="middle" font-family="sans-serif" font-size="11" fill="#9aa0ad">8/17</text>
<line x1="138.1" x2="138.1" y1="292" y2="296" stroke="#3a4150" stroke-width="1"/>
<text x="138.1" y="326" text-anchor="middle" font-family="sans-serif" font-size="11" fill="#9aa0ad">8/18</text>
<line x1="153.3" x2="153.3" y1="292" y2="296" stroke="#3a4150" stroke-width="1"/>
<text x="153.3" y="326" text-anchor="middle" font-family="sans-serif" font-size="11" fill="#9aa0ad">8/20</text>
<line x1="168.5" x2="168.5" y1="292" y2="296" stroke="#3a4150" stroke-width="1"/>
<text x="168.5" y="326" text-anchor="middle" font-family="sans-serif" font-size="11" fill="#9aa0ad">8/21</text>
<line x1="183.7" x2="183.7" y1="292" y2="296" stroke="#3a4150" stroke-width="1"/>
<text x="183.7" y="326" text-anchor="middle" font-family="sans-serif" font-size="11" fill="#9aa0ad">8/22</text>
<line x1="199.0" x2="199.0" y1="292" y2="296" stroke="#3a4150" stroke-width="1"/>
<text x="199.0" y="326" text-anchor="middle" font-family="sans-serif" font-size="11" fill="#9aa0ad">8/23</text>
<line x1="214.2" x2="214.2" y1="292" y2="296" stroke="#3a4150" stroke-width="1"/>
<text x="214.2" y="326" text-anchor="middle" font-family="sans-serif" font-size="11" fill="#9aa0ad">8/24</text>
<line x1="229.4" x2="229.4" y1="292" y2="296" stroke="#3a4150" stroke-width="1"/>
<text x="229.4" y="326" text-anchor="middle" font-family="sans-serif" font-size="11" fill="#9aa0ad">8/25</text>
<line x1="244.6" x2="244.6" y1="292" y2="296" stroke="#3a4150" stroke-width="1"/>
<text x="244.6" y="326" text-anchor="middle" font-family="sans-serif" font-size="11" fill="#9aa0ad">8/26</text>
<line x1="259.8" x2="259.8" y1="292" y2="296" stroke="#3a4150" stroke-width="1"/>
<text x="259.8" y="326" text-anchor="middle" font-family="sans-serif" font-size="11" fill="#9aa0ad">8/27</text>
<line x1="275.0" x2="275.0" y1="292" y2="296" stroke="#3a4150" stroke-width="1"/>
<text x="275.0" y="326" text-anchor="middle" font-family="sans-serif" font-size="11" fill="#9aa0ad">8/29</text>
<line x1="290.3" x2="290.3" y1="292" y2="296" stroke="#3a4150" stroke-width="1"/>
<text x="290.3" y="326" text-anchor="middle" font-family="sans-serif" font-size="11" fill="#9aa0ad">8/30</text>
<line x1="305.5" x2="305.5" y1="292" y2="296" stroke="#3a4150" stroke-width="1"/>
<text x="305.5" y="326" text-anchor="middle" font-family="sans-serif" font-size="11" fill="#9aa0ad">8/31</text>
<line x1="320.7" x2="320.7" y1="292" y2="296" stroke="#3a4150" stroke-width="1"/>
<text x="320.7" y="326" text-anchor="middle" font-family="sans-serif" font-size="11" fill="#9aa0ad">9/1</text>
<line x1="335.9" x2="335.9" y1="292" y2="296" stroke="#3a4150" stroke-width="1"/>
<text x="335.9" y="326" text-anchor="middle" font-family="sans-serif" font-size="11" fill="#9aa0ad">9/2</text>
<line x1="351.1" x2="351.1" y1="292" y2="296" stroke="#3a4150" stroke-width="1"/>
<text x="351.1" y="326" text-anchor="middle" font-family="sans-serif" font-size="11" fill="#9aa0ad">9/3</text>
<line x1="366.3" x2="366.3" y1="292" y2="296" stroke="#3a4150" stroke-width="1"/>
<text x="366.3" y="326" text-anchor="middle" font-family="sans-serif" font-size="11" fill="#9aa0ad">9/4</text>
<line x1="381.6" x2="381.6" y1="292" y2="296" stroke="#3a4150" stroke-width="1"/>
<text x="381.6" y="326" text-anchor="middle" font-family="sans-serif" font-size="11" fill="#9aa0ad">9/5</text>
<line x1="396.8" x2="396.8" y1="292" y2="296" stroke="#3a4150" stroke-width="1"/>
<text x="396.8" y="326" text-anchor="middle" font-family="sans-serif" font-size="11" fill="#9aa0ad">9/6</text>
<line x1="412.0" x2="412.0" y1="292" y2="296" stroke="#3a4150" stroke-width="1"/>
<text x="412.0" y="326" text-anchor="middle" font-family="sans-serif" font-size="11" fill="#9aa0ad">9/7</text>
<line x1="427.2" x2="427.2" y1="292" y2="296" stroke="#3a4150" stroke-width="1"/>
<text x="427.2" y="326" text-anchor="middle" font-family="sans-serif" font-size="11" fill="#9aa0ad">9/8</text>
<line x1="442.4" x2="442.4" y1="292" y2="296" stroke="#3a4150" stroke-width="1"/>
<text x="442.4" y="326" text-anchor="middle" font-family="sans-serif" font-size="11" fill="#9aa0ad">9/9</text>
<line x1="457.7" x2="457.7" y1="292" y2="296" stroke="#3a4150" stroke-width="1"/>
<text x="457.7" y="326" text-anchor="middle" font-family="sans-serif" font-size="11" fill="#9aa0ad">9/10</text>
<line x1="472.9" x2="472.9" y1="292" y2="296" stroke="#3a4150" stroke-width="1"/>
<text x="472.9" y="326" text-anchor="middle" font-family="sans-serif" font-size="11" fill="#9aa0ad">9/11</text>
<line x1="488.1" x2="488.1" y1="292" y2="296" stroke="#3a4150" stroke-width="1"/>
<text x="488.1" y="326" text-anchor="middle" font-family="sans-serif" font-size="11" fill="#9aa0ad">9/12</text>
<line x1="503.3" x2="503.3" y1="292" y2="296" stroke="#3a4150" stroke-width="1"/>
<text x="503.3" y="326" text-anchor="middle" font-family="sans-serif" font-size="11" fill="#9aa0ad">9/13</text>
<line x1="518.5" x2="518.5" y1="292" y2="296" stroke="#3a4150" stroke-width="1"/>
<text x="518.5" y="326" text-anchor="middle" font-family="sans-serif" font-size="11" fill="#9aa0ad">9/14</text>
<line x1="533.7" x2="533.7" y1="292" y2="296" stroke="#3a4150" stroke-width="1"/>
<text x="533.7" y="326" text-anchor="middle" font-family="sans-serif" font-size="11" fill="#9aa0ad">9/15</text>
<line x1="549.0" x2="549.0" y1="292" y2="296" stroke="#3a4150" stroke-width="1"/>
<text x="549.0" y="326" text-anchor="middle" font-family="sans-serif" font-size="11" fill="#9aa0ad">9/16</text>
<line x1="564.2" x2="564.2" y1="292" y2="296" stroke="#3a4150" stroke-width="1"/>
<text x="564.2" y="326" text-anchor="middle" font-family="sans-serif" font-size="11" fill="#9aa0ad">9/17</text>
<line x1="579.4" x2="579.4" y1="292" y2="296" stroke="#3a4150" stroke-width="1"/>
<text x="579.4" y="326" text-anchor="middle" font-family="sans-serif" font-size="11" fill="#9aa0ad">9/18</text>
<line x1="594.6" x2="594.6" y1="292" y2="296" stroke="#3a4150" stroke-width="1"/>
<text x="594.6" y="326" text-anchor="middle" font-family="sans-serif" font-size="11" fill="#9aa0ad">9/19</text>
<line x1="609.8" x2="609.8" y1="292" y2="296" stroke="#3a4150" stroke-width="1"/>
<text x="609.8" y="326" text-anchor="middle" font-family="sans-serif" font-size="11" fill="#9aa0ad">9/20</text>
<line x1="625.0" x2="625.0" y1="292" y2="296" stroke="#3a4150" stroke-width="1"/>
<text x="625.0" y="326" text-anchor="middle" font-family="sans-serif" font-size="11" fill="#9aa0ad">9/21</text>
<line x1="640.3" x2="640.3" y1="292" y2="296" stroke="#3a4150" stroke-width="1"/>
<text x="640.3" y="326" text-anchor="middle" font-family="sans-serif" font-size="11" fill="#9aa0ad">9/22</text>
<line x1="655.5" x2="655.5" y1="292" y2="296" stroke="#3a4150" stroke-width="1"/>
<text x="655.5" y="326" text-anchor="middle" font-family="sans-serif" font-size="11" fill="#9aa0ad">9/23</text>
<line x1="670.7" x2="670.7" y1="292" y2="296" stroke="#3a4150" stroke-width="1"/>
<text x="670.7" y="326" text-anchor="middle" font-family="sans-serif" font-size="11" fill="#9aa0ad">9/24</text>
<line x1="685.9" x2="685.9" y1="292" y2="296" stroke="#3a4150" stroke-width="1"/>
<text x="685.9" y="326" text-anchor="middle" font-family="sans-serif" font-size="11" fill="#9aa0ad">9/25</text>
<line x1="701.1" x2="701.1" y1="292" y2="296" stroke="#3a4150" stroke-width="1"/>
<text x="701.1" y="326" text-anchor="middle" font-family="sans-serif" font-size="11" fill="#9aa0ad">9/26</text>
<line x1="716.3" x2="716.3" y1="292" y2="296" stroke="#3a4150" stroke-width="1"/>
<text x="716.3" y="326" text-anchor="middle" font-family="sans-serif" font-size="11" fill="#9aa0ad">9/27</text>
<line x1="731.6" x2="731.6" y1="292" y2="296" stroke="#3a4150" stroke-width="1"/>
<text x="731.6" y="326" text-anchor="middle" font-family="sans-serif" font-size="11" fill="#9aa0ad">9/28</text>
<line x1="746.8" x2="746.8" y1="292" y2="296" stroke="#3a4150" stroke-width="1"/>
<text x="746.8" y="326" text-anchor="middle" font-family="sans-serif" font-size="11" fill="#9aa0ad">9/29</text>
<line x1="762.0" x2="762.0" y1="292" y2="296" stroke="#3a4150" stroke-width="1"/>
<text x="762.0" y="326" text-anchor="middle" font-family="sans-serif" font-size="11" fill="#9aa0ad">9/30</text>
<line x1="62" x2="62" y1="30" y2="292" stroke="#3a4150" stroke-width="1.2"/>
<line x1="62" x2="762" y1="292" y2="292" stroke="#3a4150" stroke-width="1.2"/>
<text x="14" y="161.0" text-anchor="middle" transform="rotate(-90,14,161.0)" font-family="sans-serif" font-size="11" fill="#9aa0ad">Avg Top %</text>
<path d="M 62.0,235.4 L 77.2,235.4 L 92.4,235.4 L 107.7,235.4 L 122.9,235.4 L 138.1,235.4 L 153.3,235.4 L 168.5,235.4 L 183.7,235.4 L 199.0,235.4 L 214.2,235.4 L 229.4,235.4 L 244.6,235.4 L 259.8,235.4 L 275.0,235.4 L 290.3,235.4 L 305.5,235.4 L 320.7,235.4 L 335.9,235.4 L 351.1,235.4 L 366.3,235.4 L 381.6,235.4 L 396.8,235.4 L 412.0,235.4 L 427.2,235.4 L 442.4,235.4 L 457.7,235.4 L 472.9,235.4 L 488.1,235.4 L 503.3,235.4 L 518.5,235.4 L 533.7,235.4 L 549.0,235.4 L 564.2,235.4 L 579.4,235.4 L 594.6,235.4 L 609.8,235.4 L 625.0,235.4 L 640.3,235.4 L 655.5,235.4 L 670.7,235.4 L 685.9,235.4 L 701.1,235.4 L 716.3,235.4 L 731.6,235.4 L 746.8,235.4 L 762.0,235.4" fill="none" stroke="#f2c14e" stroke-width="1.8" opacity="0.9" stroke-dasharray="8 6" stroke-linecap="round" stroke-linejoin="round"/>
<path d="M 62.0,121.7 L 77.2,239.6 L 92.4,95.5 L 107.7,216.0 L 122.9,147.9 L 138.1,104.7 L 153.3,87.6 L 168.5,74.5 L 183.7,98.1 L 199.0,102.1 L 214.2,100.7 L 229.4,88.9 L 244.6,117.8 L 259.8,107.3 L 275.0,126.9 L 290.3,103.4 L 305.5,137.4 L 320.7,151.8 L 335.9,145.3 L 351.1,150.5 L 366.3,159.7 L 381.6,180.7 L 396.8,175.4 L 412.0,185.9 L 427.2,183.3 L 442.4,180.7 L 457.7,187.2 L 472.9,202.9 L 488.1,206.8 L 503.3,223.9 L 518.5,221.3 L 533.7,217.3 L 549.0,216.0 L 564.2,217.3 L 579.4,208.2 L 594.6,201.6 L 609.8,210.8 L 625.0,214.7 L 640.3,218.6 L 655.5,219.9 L 670.7,226.5 L 685.9,223.9 L 701.1,233.1 L 716.3,235.7 L 731.6,227.8 L 746.8,230.4 L 762.0,235.7" fill="none" stroke="#7aa5ff" stroke-width="2.5" stroke-linecap="round" stroke-linejoin="round"/>
<path d="M 62.0,121.7 L 77.2,239.6 L 92.4,95.5 L 107.7,216.0 L 122.9,147.9 L 138.1,104.7 L 153.3,87.6 L 168.5,74.5 L 183.7,98.1 L 199.0,102.1 L 214.2,100.7 L 229.4,88.9 L 244.6,117.8 L 259.8,107.3 L 275.0,126.9 L 290.3,103.4 L 305.5,137.4 L 320.7,151.8 L 335.9,145.3 L 351.1,150.5 L 366.3,159.7 L 381.6,180.7 L 396.8,175.4 L 412.0,185.9 L 427.2,183.3 L 442.4,180.7 L 457.7,187.2 L 472.9,202.9 L 488.1,206.8 L 503.3,223.9 L 518.5,221.3 L 533.7,217.3 L 549.0,216.0 L 564.2,217.3 L 579.4,208.2 L 594.6,201.6 L 609.8,210.8 L 625.0,214.7 L 640.3,218.6 L 655.5,219.9 L 670.7,226.5 L 685.9,223.9 L 701.1,233.1 L 716.3,235.7 L 731.6,227.8 L 746.8,230.4 L 762.0,235.7 L 762.0,292.0 L 62.0,292.0 Z" fill="#7aa5ff" opacity="0.08"/>
<circle cx="62.0" cy="121.7" r="4" fill="#7aa5ff" stroke="#0f1115" stroke-width="1.5"><title>8/13: 63.0</title></circle>
<circle cx="77.2" cy="239.6" r="4" fill="#7aa5ff" stroke="#0f1115" stroke-width="1.5"><title>8/14: 54.0</title></circle>
<circle cx="92.4" cy="95.5" r="4" fill="#7aa5ff" stroke="#0f1115" stroke-width="1.5"><title>8/15: 65.0</title></circle>
<circle cx="107.7" cy="216.0" r="4" fill="#7aa5ff" stroke="#0f1115" stroke-width="1.5"><title>8/16: 55.8</title></circle>
<circle cx="122.9" cy="147.9" r="4" fill="#7aa5ff" stroke="#0f1115" stroke-width="1.5"><title>8/17: 61.0</title></circle>
<circle cx="138.1" cy="104.7" r="4" fill="#7aa5ff" stroke="#0f1115" stroke-width="1.5"><title>8/18: 64.3</title></circle>
<circle cx="153.3" cy="87.6" r="4" fill="#7aa5ff" stroke="#0f1115" stroke-width="1.5"><title>8/20: 65.6</title></circle>
<circle cx="168.5" cy="74.5" r="4" fill="#7aa5ff" stroke="#0f1115" stroke-width="1.5"><title>8/21: 66.6</title></circle>
<circle cx="183.7" cy="98.1" r="4" fill="#7aa5ff" stroke="#0f1115" stroke-width="1.5"><title>8/22: 64.8</title></circle>
<circle cx="199.0" cy="102.1" r="4" fill="#7aa5ff" stroke="#0f1115" stroke-width="1.5"><title>8/23: 64.5</title></circle>
<circle cx="214.2" cy="100.7" r="4" fill="#7aa5ff" stroke="#0f1115" stroke-width="1.5"><title>8/24: 64.6</title></circle>
<circle cx="229.4" cy="88.9" r="4" fill="#7aa5ff" stroke="#0f1115" stroke-width="1.5"><title>8/25: 65.5</title></circle>
<circle cx="244.6" cy="117.8" r="4" fill="#7aa5ff" stroke="#0f1115" stroke-width="1.5"><title>8/26: 63.3</title></circle>
<circle cx="259.8" cy="107.3" r="4" fill="#7aa5ff" stroke="#0f1115" stroke-width="1.5"><title>8/27: 64.1</title></circle>
<circle cx="275.0" cy="126.9" r="4" fill="#7aa5ff" stroke="#0f1115" stroke-width="1.5"><title>8/29: 62.6</title></circle>
<circle cx="290.3" cy="103.4" r="4" fill="#7aa5ff" stroke="#0f1115" stroke-width="1.5"><title>8/30: 64.4</title></circle>
<circle cx="305.5" cy="137.4" r="4" fill="#7aa5ff" stroke="#0f1115" stroke-width="1.5"><title>8/31: 61.8</title></circle>
<circle cx="320.7" cy="151.8" r="4" fill="#7aa5ff" stroke="#0f1115" stroke-width="1.5"><title>9/1: 60.7</title></circle>
<circle cx="335.9" cy="145.3" r="4" fill="#7aa5ff" stroke="#0f1115" stroke-width="1.5"><title>9/2: 61.2</title></circle>
<circle cx="351.1" cy="150.5" r="4" fill="#7aa5ff" stroke="#0f1115" stroke-width="1.5"><title>9/3: 60.8</title></circle>
<circle cx="366.3" cy="159.7" r="4" fill="#7aa5ff" stroke="#0f1115" stroke-width="1.5"><title>9/4: 60.1</title></circle>
<circle cx="381.6" cy="180.7" r="4" fill="#7aa5ff" stroke="#0f1115" stroke-width="1.5"><title>9/5: 58.5</title></circle>
<circle cx="396.8" cy="175.4" r="4" fill="#7aa5ff" stroke="#0f1115" stroke-width="1.5"><title>9/6: 58.9</title></circle>
<circle cx="412.0" cy="185.9" r="4" fill="#7aa5ff" stroke="#0f1115" stroke-width="1.5"><title>9/7: 58.1</title></circle>
<circle cx="427.2" cy="183.3" r="4" fill="#7aa5ff" stroke="#0f1115" stroke-width="1.5"><title>9/8: 58.3</title></circle>
<circle cx="442.4" cy="180.7" r="4" fill="#7aa5ff" stroke="#0f1115" stroke-width="1.5"><title>9/9: 58.5</title></circle>
<circle cx="457.7" cy="187.2" r="4" fill="#7aa5ff" stroke="#0f1115" stroke-width="1.5"><title>9/10: 58.0</title></circle>
<circle cx="472.9" cy="202.9" r="4" fill="#7aa5ff" stroke="#0f1115" stroke-width="1.5"><title>9/11: 56.8</title></circle>
<circle cx="488.1" cy="206.8" r="4" fill="#7aa5ff" stroke="#0f1115" stroke-width="1.5"><title>9/12: 56.5</title></circle>
<circle cx="503.3" cy="223.9" r="4" fill="#7aa5ff" stroke="#0f1115" stroke-width="1.5"><title>9/13: 55.2</title></circle>
<circle cx="518.5" cy="221.3" r="4" fill="#7aa5ff" stroke="#0f1115" stroke-width="1.5"><title>9/14: 55.4</title></circle>
<circle cx="533.7" cy="217.3" r="4" fill="#7aa5ff" stroke="#0f1115" stroke-width="1.5"><title>9/15: 55.7</title></circle>
<circle cx="549.0" cy="216.0" r="4" fill="#7aa5ff" stroke="#0f1115" stroke-width="1.5"><title>9/16: 55.8</title></circle>
<circle cx="564.2" cy="217.3" r="4" fill="#7aa5ff" stroke="#0f1115" stroke-width="1.5"><title>9/17: 55.7</title></circle>
<circle cx="579.4" cy="208.2" r="4" fill="#7aa5ff" stroke="#0f1115" stroke-width="1.5"><title>9/18: 56.4</title></circle>
<circle cx="594.6" cy="201.6" r="4" fill="#7aa5ff" stroke="#0f1115" stroke-width="1.5"><title>9/19: 56.9</title></circle>
<circle cx="609.8" cy="210.8" r="4" fill="#7aa5ff" stroke="#0f1115" stroke-width="1.5"><title>9/20: 56.2</title></circle>
<circle cx="625.0" cy="214.7" r="4" fill="#7aa5ff" stroke="#0f1115" stroke-width="1.5"><title>9/21: 55.9</title></circle>
<circle cx="640.3" cy="218.6" r="4" fill="#7aa5ff" stroke="#0f1115" stroke-width="1.5"><title>9/22: 55.6</title></circle>
<circle cx="655.5" cy="219.9" r="4" fill="#7aa5ff" stroke="#0f1115" stroke-width="1.5"><title>9/23: 55.5</title></circle>
<circle cx="670.7" cy="226.5" r="4" fill="#7aa5ff" stroke="#0f1115" stroke-width="1.5"><title>9/24: 55.0</title></circle>
<circle cx="685.9" cy="223.9" r="4" fill="#7aa5ff" stroke="#0f1115" stroke-width="1.5"><title>9/25: 55.2</title></circle>
<circle cx="701.1" cy="233.1" r="4" fill="#7aa5ff" stroke="#0f1115" stroke-width="1.5"><title>9/26: 54.5</title></circle>
<circle cx="716.3" cy="235.7" r="4" fill="#7aa5ff" stroke="#0f1115" stroke-width="1.5"><title>9/27: 54.3</title></circle>
<circle cx="731.6" cy="227.8" r="4" fill="#7aa5ff" stroke="#0f1115" stroke-width="1.5"><title>9/28: 54.9</title></circle>
<circle cx="746.8" cy="230.4" r="4" fill="#7aa5ff" stroke="#0f1115" stroke-width="1.5"><title>9/29: 54.7</title></circle>
<circle cx="762.0" cy="235.7" r="4" fill="#7aa5ff" stroke="#0f1115" stroke-width="1.5"><title>9/30: 54.3</title></circle>
<text x="77.2" y="253.6" text-anchor="middle" font-family="sans-serif" font-size="10" font-weight="700" fill="#e6e6e6">54.0</text>
<text x="168.5" y="64.5" text-anchor="middle" font-family="sans-serif" font-size="10" font-weight="700" fill="#e6e6e6">66.6</text>
</svg>