<svg viewBox="0 0 780 340" width="100%" height="340" xmlns="http://www.w3.org/2000/svg" role="img" aria-label="Percentile Over Time (lower is better)">
<rect width="780" height="340" fill="#0f1115" rx="12"/>
<text x="390.0" y="20" text-anchor="middle" font-family="sans-serif" font-size="14" font-weight="600" fill="#e6e6e6">Percentile Over Time (lower is better)</text>
<line x1="62" x2="762" y1="275.6" y2="275.6" stroke="#2a2f3a" stroke-width="1" stroke-dasharray="4 6"/>
<text x="54" y="279.6" text-anchor="end" font-family="sans-serif" font-size="11" fill="#9aa0ad">20</text>
<line x1="62" x2="762" y1="210.1" y2="210.1" stroke="#2a2f3a" stroke-width="1" stroke-dasharray="4 6"/>
<text x="54" y="214.1" text-anchor="end" font-family="sans-serif" font-size="11" fill="#9aa0ad">40</text>
<line x1="62" x2="762" y1="144.6" y2="144.6" stroke="#2a2f3a" stroke-width="1" stroke-dasharray="4 6"/>
<text x="54" y="148.6" text-anchor="end" font-family="sans-serif" font-size="11" fill="#9aa0ad">60</text>
<line x1="62" x2="762" y1="79.1" y2="79.1" stroke="#2a2f3a" stroke-width="1" stroke-dasharray="4 6"/>
<text x="54" y="83.1" text-anchor="end" font-family="sans-serif" font-size="11" fill="#9aa0ad">80</text>
<line x1="62" x2="762" y1="46.4" y2="46.4" stroke="#2a2f3a" stroke-width="1" stroke-dasharray="4 6"/>
<text x="54" y="50.4" text-anchor="end" font-family="sans-serif" font-size="11" fill="#9aa0ad">90</text>
<line x1="62.0" x2="62.0" y1="292" y2="296" stroke="#3a4150" stroke-width="1"/>
<text x="62.0" y="326" text-anchor="middle" font-family="sans-serif" font-size="11" fill="#9aa0ad">8/13</text>
<line x1="78.3" x2="78.3" y1="292" y2="296" stroke="#3a4150" stroke-width="1"/>
<text x="78.3" y="326" text-anchor="middle" font-family="sans-serif" font-size="11" fill="#9aa0ad">8/14</text>
<line x1="94.6" x2="94.6" y1="292" y2="296" stroke="#3a4150" stroke-width="1"/>
<text x="94.6" y="326" text-anchor="middle" font-family="sans-serif" font-size="11" fill="#9aa0ad">8/15</text>
<line x1="110.8" x2="110.8" y1="292" y2="296" stroke="#3a4150" stroke-width="1"/>
<text x="110.8" y="326" text-anchor="middle" font-family="sans-serif" font-size="11" fill="#9aa0ad">8/16</text>
<line x1="127.1" x2="127.1" y1="292" y2="296" stroke="#3a4150" stroke-width="1"/>
<text x="127.1" y="326" text-anchor="middle" font-family="sans-serif" font-size="11" fill="#9aa0ad">8/17</text>
<line x1="143.4" x2="143.4" y1="292" y2="296" stroke="#3a4150" stroke-width="1"/>
<text x="143.4" y="326" text-anchor="middle" font-family="sans-serif" font-size="11" fill="#9aa0ad">8/18</text>
<line x1="159.7" x2="159.7" y1="292" y2="296" stroke="#3a4150" stroke-width="1"/>
<text x="159.7" y="326" text-anchor="middle" font-family="sans-serif" font-size="11" fill="#9aa0ad">8/20</text>
<line x1="176.0" x2="176.0" y1="292" y2="296" stroke="#3a4150" stroke-width="1"/>
<text x="176.0" y="326" text-anchor="middle" font-family="sans-serif" font-size="11" fill="#9aa0ad">8/21</text>
<line x1="192.2" x2="192.2" y1="292" y2="296" stroke="#3a4150" stroke-width="1"/>
<text x="192.2" y="326" text-anchor="middle" font-family="sans-serif" font-size="11" fill="#9aa0ad">8/22</text>
<line x1="208.5" x2="208.5" y1="292" y2="296" stroke="#3a4150" stroke-width="1"/>
<text x="208.5" y="326" text-anchor="middle" font-family="sans-serif" font-size="11" fill="#9aa0ad">8/23</text>
<line x1="224.8" x2="224.8" y1="292" y2="296" stroke="#3a4150" stroke-width="1"/>
<text x="224.8" y="326" text-anchor="middle" font-family="sans-serif" font-size="11" fill="#9aa0ad">8/24</text>
<line x1="241.1" x2="241.1" y1="292" y2="296" stroke="#3a4150" stroke-width="1"/>
<text x="241.1" y="326" text-anchor="middle" font-family="sans-serif" font-size="11" fill="#9aa0ad">8/25</text>
<line x1="257.3" x2="257.3" y1="292" y2="296" stroke="#3a4150" stroke-width="1"/>
<text x="257.3" y="326" text-anchor="middle" font-family="sans-serif" font-size="11" fill="#9aa0ad">8/26</text>
<line x1="273.6" x2="273.6" y1="292" y2="296" stroke="#3a4150" stroke-width="1"/>
<text x="273.6" y="326" text-anchor="middle" font-family="sans-serif" font-size="11" fill="#9aa0ad">8/27</text>
<line x1="289.9" x2="289.9" y1="292" y2="296" stroke="#3a4150" stroke-width="1"/>
<text x="289.9" y="326" text-anchor="middle" font-family="sans-serif" font-size="11" fill="#9aa0ad">8/29</text>
<line x1="306.2" x2="306.2" y1="292" y2="296" stroke="#3a4150" stroke-width="1"/>
<text x="306.2" y="326" text-anchor="middle" font-family="sans-serif" font-size="11" fill="#9aa0ad">8/30</text>
<line x1="322.5" x2="322.5" y1="292" y2="296" stroke="#3a4150" stroke-width="1"/>
<text x="322.5" y="326" text-anchor="middle" font-family="sans-serif" font-size="11" fill="#9aa0ad">8/31</text>
<line x1="338.7" x2="338.7" y1="292" y2="296" stroke="#3a4150" stroke-width="1"/>
<text x="338.7" y="326" text-anchor="middle" font-family="sans-serif" font-size="11" fill="#9aa0ad">9/1</text>
<line x1="355.0" x2="355.0" y1="292" y2="296" stroke="#3a4150" stroke-width="1"/>
<text x="355.0" y="326" text-anchor="middle" font-family="sans-serif" font-size="11" fill="#9aa0ad">9/2</text>
<line x1="371.3" x2="371.3" y1="292" y2="296" stroke="#3a4150" stroke-width="1"/>
<text x="371.3" y="326" text-anchor="middle" font-family="sans-serif" font-size="11" fill="#9aa0ad">9/3</text>
<line x1="387.6" x2="387.6" y1="292" y2="296" stroke="#3a4150" stroke-width="1"/>
<text x="387.6" y="326" text-anchor="middle" font-family="sans-serif" font-size="11" fill="#9aa0ad">9/4</text>
<line x1="403.9" x2="403.9" y1="292" y2="296" stroke="#3a4150" stroke-width="1"/>
<text x="403.9" y="326" text-anchor="middle" font-family="sans-serif" font-size="11" fill="#9aa0ad">9/5</text>
<line x1="420.1" x2="420.1" y1="292" y2="296" stroke="#3a4150" stroke-width="1"/>
<text x="420.1" y="326" text-anchor="middle" font-family="sans-serif" font-size="11" fill="#9aa0ad">9/6</text>
<line x1="436.4" x2="436.4" y1="292" y2="296" stroke="#3a4150" stroke-width="1"/>
<text x="436.4" y="326" text-anchor="middle" font-family="sans-serif" font-size="11" fill="#9aa0ad">9/7</text>
<line x1="452.7" x2="452.7" y1="292" y2="296" stroke="#3a4150" stroke-width="1"/>
<text x="452.7" y="326" text-anchor="middle" font-family="sans-serif" font-size="11" fill="#9aa0ad">9/8</text>
<line x1="469.0" x2="469.0" y1="292" y2="296" stroke="#3a4150" stroke-width="1"/>
<text x="469.0" y="326" text-anchor="middle" font-family="sans-serif" font-size="11" fill="#9aa0ad">9/9</text>
<line x1="485.3" x2="485.3" y1="292" y2="296" stroke="#3a4150" stroke-width="1"/>
<text x="485.3" y="326" text-anchor="middle" font-family="sans-serif" font-size="11" fill="#9aa0ad">9/10</text>
<line x1="501.5" x2="501.5" y1="292" y2="296" stroke="#3a4150" stroke-width="1"/>
<text x="501.5" y="326" text-anchor="middle" font-family="sans-serif" font-size="11" fill="#9aa0ad">9/11</text>
<line x1="517.8" x2="517.8" y1="292" y2="296" stroke="#3a4150" stroke-width="1"/>
<text x="517.8" y="326" text-anchor="middle" font-family="sans-serif" font-size="11" fill="#9aa0ad">9/12</text>
<line x1="534.1" x2="534.1" y1="292" y2="296" stroke="#3a4150" stroke-width="1"/>
<text x="534.1" y="326" text-anchor="middle" font-family="sans-serif" font-size="11" fill="#9aa0ad">9/13</text>
<line x1="550.4" x2="550.4" y1="292" y2="296" stroke="#3a4150" stroke-width="1"/>
<text x="550.4" y="326" text-anchor="middle" font-family="sans-serif" font-size="11" fill="#9aa0ad">9/14</text>
<line x1="566.7" x2="566.7" y1="292" y2="296" stroke="#3a4150" stroke-width="1"/>
<text x="566.7" y="326" text-anchor="middle" font-family="sans-serif" font-size="11" fill="#9aa0ad">9/15</text>
<line x1="582.9" x2="582.9" y1="292" y2="296" stroke="#3a4150" stroke-width="1"/>
<text x="582.9" y="326" text-anchor="middle" font-family="sans-serif" font-size="11" fill="#9aa0ad">9/16</text>
<line x1="599.2" x2="599.2" y1="292" y2="296" stroke="#3a4150" stroke-width="1"/>
<text x="599.2" y="326" text-anchor="middle" font-family="sans-serif" font-size="11" fill="#9aa0ad">9/17</text>
<line x1="615.5" x2="615.5" y1="292" y2="296" stroke="#3a4150" stroke-width="1"/>
<text x="615.5" y="326" text-anchor="middle" font-family="sans-serif" font-size="11" fill="#9aa0ad">9/18</text>
<line x1="631.8" x2="631.8" y1="292" y2="296" stroke="#3a4150" stroke-width="1"/>
<text x="631.8" y="326" text-anchor="middle" font-family="sans-serif" font-size="11" fill="#9aa0ad">9/19</text>
<line x1="648.0" x2="648.0" y1="292" y2="296" stroke="#3a4150" stroke-width="1"/>
<text x="648.0" y="326" text-anchor="middle" font-family="sans-serif" font-size="11" fill="#9aa0ad">9/20</text>
<line x1="664.3" x2="664.3" y1="292" y2="296" stroke="#3a4150" stroke-width="1"/>
<text x="664.3" y="326" text-anchor="middle" font-family="sans-serif" font-size="11" fill="#9aa0ad">9/21</text>
<line x1="680.6" x2="680.6" y1="292" y2="296" stroke="#3a4150" stroke-width="1"/>
<text x="680.6" y="326" text-anchor="middle" font-family="sans-serif" font-size="11" fill="#9aa0ad">9/22</text>
<line x1="696.9" x2="696.9" y1="292" y2="296" stroke="#3a4150" stroke-width="1"/>
<text x="696.9" y="326" text-anchor="middle" font-family="sans-serif" font-size="11" fill="#9aa0ad">9/23</text>
<line x1="713.2" x2="713.2" y1="292" y2="296" stroke="#3a4150" stroke-width="1"/>
<text x="713.2" y="326" text-anchor="middle" font-family="sans-serif" font-size="11" fill="#9aa0ad">9/24</text>
<line x1="729.4" x2="729.4" y1="292" y2="296" stroke="#3a4150" stroke-width="1"/>
<text x="729.4" y="326" text-anchor="middle" font-family="sans-serif" font-size="11" fill="#9aa0ad">9/25</text>
<line x1="745.7" x2="745.7" y1="292" y2="296" stroke="#3a4150" stroke-width="1"/>
<text x="745.7" y="326" text-anchor="middle" font-family="sans-serif" font-size="11" fill="#9aa0ad">9/26</text>
<line x1="762.0" x2="762.0" y1="292" y2="296" stroke="#3a4150" stroke-width="1"/>
<text x="762.0" y="326" text-anchor="middle" font-family="sans-serif" font-size="11" fill="#9aa0ad">9/27</text>
<line x1="62" x2="62" y1="30" y2="292" stroke="#3a4150" stroke-width="1.2"/>
<line x1="62" x2="762" y1="292" y2="292" stroke="#3a4150" stroke-width="1.2"/>
<text x="14" y="161.0" text-anchor="middle" transform="rotate(-90,14,161.0)" font-family="sans-serif" font-size="11" fill="#9aa0ad">Top %</text>
<path d="M 62.0,130.4 L 78.3,131.9 L 94.6,133.5 L 110.8,135.0 L 127.1,136.5 L 143.4,138.0 L 159.7,139.6 L 176.0,141.1 L 192.2,142.6 L 208.5,144.1 L 224.8,145.6 L 241.1,147.2 L 257.3,148.7 L 273.6,150.2 L 289.9,151.7 L 306.2,153.3 L 322.5,154.8 L 338.7,156.3 L 355.0,157.8 L 371.3,159.4 L 387.6,160.9 L 403.9,162.4 L 420.1,163.9 L 436.4,165.4 L 452.7,167.0 L 469.0,168.5 L 485.3,170.0 L 501.5,171.5 L 517.8,173.1 L 534.1,174.6 L 550.4,176.1 L 566.7,177.6 L 582.9,179.1 L 599.2,180.7 L 615.5,182.2 L 631.8,183.7 L 648.0,185.2 L 664.3,186.8 L 680.6,188.3 L 696.9,189.8 L 713.2,191.3 L 729.4,192.8 L 745.7,194.4 L 762.0,195.9" fill="none" stroke="#f2c14e" stroke-width="1.8" opacity="0.9" stroke-dasharray="8 6" stroke-linecap="round" stroke-linejoin="round"/>
<path d="M 62.0,134.8 L 78.3,193.8 L 94.6,56.2 L 110.8,249.4 L 127.1,72.6 L 143.4,75.9 L 159.7,102.1 L 176.0,98.8 L 192.2,177.4 L 208.5,138.1 L 224.8,125.0 L 241.1,95.5 L 257.3,219.9 L 273.6,95.5 L 289.9,206.8 L 306.2,39.8 L 322.5,278.9 L 338.7,203.6 L 355.0,108.6 L 371.3,167.6 L 387.6,187.2 L 403.9,262.5 L 420.1,118.4 L 436.4,213.4 L 452.7,134.8 L 469.0,134.8 L 485.3,193.8 L 501.5,259.2 L 517.8,180.7 L 534.1,282.2 L 550.4,141.4 L 566.7,128.2 L 582.9,151.2 L 599.2,167.6 L 615.5,75.9 L 631.8,105.3 L 648.0,236.3 L 664.3,187.2 L 680.6,200.3 L 696.9,174.1 L 713.2,223.2 L 729.4,141.4 L 745.7,252.7 L 762.0,187.2" fill="none" stroke="#7aa5ff" stroke-width="2.5" stroke-linecap="round" stroke-linejoin="round"/>
<path d="M 62.0,134.8 L 78.3,193.8 L 94.6,56.2 L 110.8,249.4 L 127.1,72.6 L 143.4,75.9 L 159.7,102.1 L 176.0,98.8 L 192.2,177.4 L 208.5,138.1 L 224.8,125.0 L 241.1,95.5 L 257.3,219.9 L 273.6,95.5 L 289.9,206.8 L 306.2,39.8 L 322.5,278.9 L 338.7,203.6 L 355.0,108.6 L 371.3,167.6 L 387.6,187.2 L 403.9,262.5 L 420.1,118.4 L 436.4,213.4 L 452.7,134.8 L 469.0,134.8 L 485.3,193.8 L 501.5,259.2 L 517.8,180.7 L 534.1,282.2 L 550.4,141.4 L 566.7,128.2 L 582.9,151.2 L 599.2,167.6 L 615.5,75.9 L 631.8,105.3 L 648.0,236.3 L 664.3,187.2 L 680.6,200.3 L 696.9,174.1 L 713.2,223.2 L 729.4,141.4 L 745.7,252.7 L 762.0,187.2 L 762.0,292.0 L 62.0,292.0 Z" fill="#7aa5ff" opacity="0.08"/>
<circle cx="62.0" cy="134.8" r="4" fill="#7aa5ff" stroke="#0f1115" stroke-width="1.5"><title>8/13: 63</title></circle>
<circle cx="78.3" cy="193.8" r="4" fill="#7aa5ff" stroke="#0f1115" stroke-width="1.5"><title>8/14: 45</title></circle>
<circle cx="94.6" cy="56.2" r="4" fill="#7aa5ff" stroke="#0f1115" stroke-width="1.5"><title>8/15: 87</title></circle>
<circle cx="110.8" cy="249.4" r="4" fill="#7aa5ff" stroke="#0f1115" stroke-width="1.5"><title>8/16: 28</title></circle>
<circle cx="127.1" cy="72.6" r="4" fill="#7aa5ff" stroke="#0f1115" stroke-width="1.5"><title>8/17: 82</title></circle>
<circle cx="143.4" cy="75.9" r="4" fill="#7aa5ff" stroke="#0f1115" stroke-width="1.5"><title>8/18: 81</title></circle>
<circle cx="159.7" cy="102.1" r="4" fill="#7aa5ff" stroke="#0f1115" stroke-width="1.5"><title>8/20: 73</title></circle>
<circle cx="176.0" cy="98.8" r="4" fill="#7aa5ff" stroke="#0f1115" stroke-width="1.5"><title>8/21: 74</title></circle>
<circle cx="192.2" cy="177.4" r="4" fill="#7aa5ff" stroke="#0f1115" stroke-width="1.5"><title>8/22: 50</title></circle>
<circle cx="208.5" cy="138.1" r="4" fill="#7aa5ff" stroke="#0f1115" stroke-width="1.5"><title>8/23: 62</title></circle>
<circle cx="224.8" cy="125.0" r="4" fill="#7aa5ff" stroke="#0f1115" stroke-width="1.5"><title>8/24: 66</title></circle>
<circle cx="241.1" cy="95.5" r="4" fill="#7aa5ff" stroke="#0f1115" stroke-width="1.5"><title>8/25: 75</title></circle>
<circle cx="257.3" cy="219.9" r="4" fill="#7aa5ff" stroke="#0f1115" stroke-width="1.5"><title>8/26: 37</title></circle>
<circle cx="273.6" cy="95.5" r="4" fill="#7aa5ff" stroke="#0f1115" stroke-width="1.5"><title>8/27: 75</title></circle>
<circle cx="289.9" cy="206.8" r="4" fill="#7aa5ff" stroke="#0f1115" stroke-width="1.5"><title>8/29: 41</title></circle>
<circle cx="306.2" cy="39.8" r="4" fill="#7aa5ff" stroke="#0f1115" stroke-width="1.5"><title>8/30: 92</title></circle>
<circle cx="322.5" cy="278.9" r="4" fill="#7aa5ff" stroke="#0f1115" stroke-width="1.5"><title>8/31: 19</title></circle>
<circle cx="338.7" cy="203.6" r="4" fill="#7aa5ff" stroke="#0f1115" stroke-width="1.5"><title>9/1: 42</title></circle>
<circle cx="355.0" cy="108.6" r="4" fill="#7aa5ff" stroke="#0f1115" stroke-width="1.5"><title>9/2: 71</title></circle>
<circle cx="371.3" cy="167.6" r="4" fill="#7aa5ff" stroke="#0f1115" stroke-width="1.5"><title>9/3: 53</title></circle>
<circle cx="387.6" cy="187.2" r="4" fill="#7aa5ff" stroke="#0f1115" stroke-width="1.5"><title>9/4: 47</title></circle>
<circle cx="403.9" cy="262.5" r="4" fill="#7aa5ff" stroke="#0f1115" stroke-width="1.5"><title>9/5: 24</title></circle>
<circle cx="420.1" cy="118.4" r="4" fill="#7aa5ff" stroke="#0f1115" stroke-width="1.5"><title>9/6: 68</title></circle>
<circle cx="436.4" cy="213.4" r="4" fill="#7aa5ff" stroke="#0f1115" stroke-width="1.5"><title>9/7: 39</title></circle>
<circle cx="452.7" cy="134.8" r="4" fill="#7aa5ff" stroke="#0f1115" stroke-width="1.5"><title>9/8: 63</title></circle>
<circle cx="469.0" cy="134.8" r="4" fill="#7aa5ff" stroke="#0f1115" stroke-width="1.5"><title>9/9: 63</title></circle>
<circle cx="485.3" cy="193.8" r="4" fill="#7aa5ff" stroke="#0f1115" stroke-width="1.5"><title>9/10: 45</title></circle>
<circle cx="501.5" cy="259.2" r="4" fill="#7aa5ff" stroke="#0f1115" stroke-width="1.5"><title>9/11: 25</title></circle>
<circle cx="517.8" cy="180.7" r="4" fill="#7aa5ff" stroke="#0f1115" stroke-width="1.5"><title>9/12: 49</title></circle>
<circle cx="534.1" cy="282.2" r="4" fill="#7aa5ff" stroke="#0f1115" stroke-width="1.5"><title>9/13: 18</title></circle>
<circle cx="550.4" cy="141.4" r="4" fill="#7aa5ff" stroke="#0f1115" stroke-width="1.5"><title>9/14: 61</title></circle>
<circle cx="566.7" cy="128.2" r="4" fill="#7aa5ff" stroke="#0f1115" stroke-width="1.5"><title>9/15: 65</title></circle>
<circle cx="582.9" cy="151.2" r="4" fill="#7aa5ff" stroke="#0f1115" stroke-width="1.5"><title>9/16: 58</title></circle>
<circle cx="599.2" cy="167.6" r="4" fill="#7aa5ff" stroke="#0f1115" stroke-width="1.5"><title>9/17: 53</title></circle>
<circle cx="615.5" cy="75.9" r="4" fill="#7aa5ff" stroke="#0f1115" stroke-width="1.5"><title>9/18: 81</title></circle>
<circle cx="631.8" cy="105.3" r="4" fill="#7aa5ff" stroke="#0f1115" stroke-width="1.5"><title>9/19: 72</title></circle>
<circle cx="648.0" cy="236.3" r="4" fill="#7aa5ff" stroke="#0f1115" stroke-width="1.5"><title>9/20: 32</title></circle>
<circle cx="664.3" cy="187.2" r="4" fill="#7aa5ff" stroke="#0f1115" stroke-width="1.5"><title>9/21: 47</title></circle>
<circle cx="680.6" cy="200.3" r="4" fill="#7aa5ff" stroke="#0f1115" stroke-width="1.5"><title>9/22: 43</title></circle>
<circle cx="696.9" cy="174.1" r="4" fill="#7aa5ff" stroke="#0f1115" stroke-width="1.5"><title>9/23: 51</title></circle>
<circle cx="713.2" cy="223.2" r="4" fill="#7aa5ff" stroke="#0f1115" stroke-width="1.5"><title>9/24: 36</title></circle>
<circle cx="729.4" cy="141.4" r="4" fill="#7aa5ff" stroke="#0f1115" stroke-width="1.5"><title>9/25: 61</title></circle>
<circle cx="745.7" cy="252.7" r="4" fill="#7aa5ff" stroke="#0f1115" stroke-width="1.5"><title>9/26: 27</title></circle>
<circle cx="762.0" cy="187.2" r="4" fill="#7aa5ff" stroke="#0f1115" stroke-width="1.5"><title>9/27: 47</title></circle>
<text x="306.2" y="29.8" text-anchor="middle" font-family="sans-serif" font-size="10" font-weight="700" fill="#e6e6e6">92</text>
<text x="534.1" y="296.2" text-anchor="middle" font-family="sans-serif" font-size="10" font-weight="700" fill="#e6e6e6">18</text>
</svg>