<svg viewBox="0 0 780 340" width="100%" height="340" xmlns="http://www.w3.org/2000/svg" role="img" aria-label="Anthropeum — Score Over Time">
<rect width="780" height="340" fill="#0f1115" rx="12"/>
<text x="390.0" y="20" text-anchor="middle" font-family="sans-serif" font-size="14" font-weight="600" fill="#e6e6e6">Anthropeum — Score Over Time</text>
<line x1="62" x2="762" y1="292.0" y2="292.0" stroke="#2a2f3a" stroke-width="1" stroke-dasharray="4 6"/>
<text x="54" y="296.0" text-anchor="end" font-family="sans-serif" font-size="11" fill="#9aa0ad">35,000</text>
<line x1="62" x2="762" y1="233.8" y2="233.8" stroke="#2a2f3a" stroke-width="1" stroke-dasharray="4 6"/>
<text x="54" y="237.8" text-anchor="end" font-family="sans-serif" font-size="11" fill="#9aa0ad">45,000</text>
<line x1="62" x2="762" y1="175.6" y2="175.6" stroke="#2a2f3a" stroke-width="1" stroke-dasharray="4 6"/>
<text x="54" y="179.6" text-anchor="end" font-family="sans-serif" font-size="11" fill="#9aa0ad">55,000</text>
<line x1="62" x2="762" y1="117.3" y2="117.3" stroke="#2a2f3a" stroke-width="1" stroke-dasharray="4 6"/>
<text x="54" y="121.3" text-anchor="end" font-family="sans-serif" font-size="11" fill="#9aa0ad">65,000</text>
<line x1="62" x2="762" y1="59.1" y2="59.1" stroke="#2a2f3a" stroke-width="1" stroke-dasharray="4 6"/>
<text x="54" y="63.1" text-anchor="end" font-family="sans-serif" font-size="11" fill="#9aa0ad">75,000</text>
<line x1="62.0" x2="62.0" y1="292" y2="296" stroke="#3a4150" stroke-width="1"/>
<text x="62.0" y="326" text-anchor="middle" font-family="sans-serif" font-size="11" fill="#9aa0ad">8/13</text>
<line x1="76.3" x2="76.3" y1="292" y2="296" stroke="#3a4150" stroke-width="1"/>
<text x="76.3" y="326" text-anchor="middle" font-family="sans-serif" font-size="11" fill="#9aa0ad">8/14</text>
<line x1="90.6" x2="90.6" y1="292" y2="296" stroke="#3a4150" stroke-width="1"/>
<text x="90.6" y="326" text-anchor="middle" font-family="sans-serif" font-size="11" fill="#9aa0ad">8/15</text>
<line x1="104.9" x2="104.9" y1="292" y2="296" stroke="#3a4150" stroke-width="1"/>
<text x="104.9" y="326" text-anchor="middle" font-family="sans-serif" font-size="11" fill="#9aa0ad">8/16</text>
<line x1="119.1" x2="119.1" y1="292" y2="296" stroke="#3a4150" stroke-width="1"/>
<text x="119.1" y="326" text-anchor="middle" font-family="sans-serif" font-size="11" fill="#9aa0ad">8/17</text>
<line x1="133.4" x2="133.4" y1="292" y2="296" stroke="#3a4150" stroke-width="1"/>
<text x="133.4" y="326" text-anchor="middle" font-family="sans-serif" font-size="11" fill="#9aa0ad">8/18</text>
<line x1="147.7" x2="147.7" y1="292" y2="296" stroke="#3a4150" stroke-width="1"/>
<text x="147.7" y="326" text-anchor="middle" font-family="sans-serif" font-size="11" fill="#9aa0ad">8/20</text>
<line x1="162.0" x2="162.0" y1="292" y2="296" stroke="#3a4150" stroke-width="1"/>
<text x="162.0" y="326" text-anchor="middle" font-family="sans-serif" font-size="11" fill="#9aa0ad">8/21</text>
<line x1="176.3" x2="176.3" y1="292" y2="296" stroke="#3a4150" stroke-width="1"/>
<text x="176.3" y="326" text-anchor="middle" font-family="sans-serif" font-size="11" fill="#9aa0ad">8/22</text>
<line x1="190.6" x2="190.6" y1="292" y2="296" stroke="#3a4150" stroke-width="1"/>
<text x="190.6" y="326" text-anchor="middle" font-family="sans-serif" font-size="11" fill="#9aa0ad">8/23</text>
<line x1="204.9" x2="204.9" y1="292" y2="296" stroke="#3a4150" stroke-width="1"/>
<text x="204.9" y="326" text-anchor="middle" font-family="sans-serif" font-size="11" fill="#9aa0ad">8/24</text>
<line x1="219.1" x2="219.1" y1="292" y2="296" stroke="#3a4150" stroke-width="1"/>
<text x="219.1" y="326" text-anchor="middle" font-family="sans-serif" font-size="11" fill="#9aa0ad">8/25</text>
<line x1="233.4" x2="233.4" y1="292" y2="296" stroke="#3a4150" stroke-width="1"/>
<text x="233.4" y="326" text-anchor="middle" font-family="sans-serif" font-size="11" fill="#9aa0ad">8/26</text>
<line x1="247.7" x2="247.7" y1="292" y2="296" stroke="#3a4150" stroke-width="1"/>
<text x="247.7" y="326" text-anchor="middle" font-family="sans-serif" font-size="11" fill="#9aa0ad">8/27</text>
<line x1="262.0" x2="262.0" y1="292" y2="296" stroke="#3a4150" stroke-width="1"/>
<text x="262.0" y="326" text-anchor="middle" font-family="sans-serif" font-size="11" fill="#9aa0ad">8/29</text>
<line x1="276.3" x2="276.3" y1="292" y2="296" stroke="#3a4150" stroke-width="1"/>
<text x="276.3" y="326" text-anchor="middle" font-family="sans-serif" font-size="11" fill="#9aa0ad">8/30</text>
<line x1="290.6" x2="290.6" y1="292" y2="296" stroke="#3a4150" stroke-width="1"/>
<text x="290.6" y="326" text-anchor="middle" font-family="sans-serif" font-size="11" fill="#9aa0ad">8/31</text>
<line x1="304.9" x2="304.9" y1="292" y2="296" stroke="#3a4150" stroke-width="1"/>
<text x="304.9" y="326" text-anchor="middle" font-family="sans-serif" font-size="11" fill="#9aa0ad">9/1</text>
<line x1="319.1" x2="319.1" y1="292" y2="296" stroke="#3a4150" stroke-width="1"/>
<text x="319.1" y="326" text-anchor="middle" font-family="sans-serif" font-size="11" fill="#9aa0ad">9/2</text>
<line x1="333.4" x2="333.4" y1="292" y2="296" stroke="#3a4150" stroke-width="1"/>
<text x="333.4" y="326" text-anchor="middle" font-family="sans-serif" font-size="11" fill="#9aa0ad">9/3</text>
<line x1="347.7" x2="347.7" y1="292" y2="296" stroke="#3a4150" stroke-width="1"/>
<text x="347.7" y="326" text-anchor="middle" font-family="sans-serif" font-size="11" fill="#9aa0ad">9/4</text>
<line x1="362.0" x2="362.0" y1="292" y2="296" stroke="#3a4150" stroke-width="1"/>
<text x="362.0" y="326" text-anchor="middle" font-family="sans-serif" font-size="11" fill="#9aa0ad">9/5</text>
<line x1="376.3" x2="376.3" y1="292" y2="296" stroke="#3a4150" stroke-width="1"/>
<text x="376.3" y="326" text-anchor="middle" font-family="sans-serif" font-size="11" fill="#9aa0ad">9/6</text>
<line x1="390.6" x2="390.6" y1="292" y2="296" stroke="#3a4150" stroke-width="1"/>
<text x="390.6" y="326" text-anchor="middle" font-family="sans-serif" font-size="11" fill="#9aa0ad">9/7</text>
<line x1="404.9" x2="404.9" y1="292" y2="296" stroke="#3a4150" stroke-width="1"/>
<text x="404.9" y="326" text-anchor="middle" font-family="sans-serif" font-size="11" fill="#9aa0ad">9/8</text>
<line x1="419.1" x2="419.1" y1="292" y2="296" stroke="#3a4150" stroke-width="1"/>
<text x="419.1" y="326" text-anchor="middle" font-family="sans-serif" font-size="11" fill="#9aa0ad">9/9</text>
<line x1="433.4" x2="433.4" y1="292" y2="296" stroke="#3a4150" stroke-width="1"/>
<text x="433.4" y="326" text-anchor="middle" font-family="sans-serif" font-size="11" fill="#9aa0ad">9/10</text>
<line x1="447.7" x2="447.7" y1="292" y2="296" stroke="#3a4150" stroke-width="1"/>
<text x="447.7" y="326" text-anchor="middle" font-family="sans-serif" font-size="11" fill="#9aa0ad">9/11</text>
<line x1="462.0" x2="462.0" y1="292" y2="296" stroke="#3a4150" stroke-width="1"/>
<text x="462.0" y="326" text-anchor="middle" font-family="sans-serif" font-size="11" fill="#9aa0ad">9/12</text>
<line x1="476.3" x2="476.3" y1="292" y2="296" stroke="#3a4150" stroke-width="1"/>
<text x="476.3" y="326" text-anchor="middle" font-family="sans-serif" font-size="11" fill="#9aa0ad">9/13</text>
<line x1="490.6" x2="490.6" y1="292" y2="296" stroke="#3a4150" stroke-width="1"/>
<text x="490.6" y="326" text-anchor="middle" font-family="sans-serif" font-size="11" fill="#9aa0ad">9/14</text>
<line x1="504.9" x2="504.9" y1="292" y2="296" stroke="#3a4150" stroke-width="1"/>
<text x="504.9" y="326" text-anchor="middle" font-family="sans-serif" font-size="11" fill="#9aa0ad">9/15</text>
<line x1="519.1" x2="519.1" y1="292" y2="296" stroke="#3a4150" stroke-width="1"/>
<text x="519.1" y="326" text-anchor="middle" font-family="sans-serif" font-size="11" fill="#9aa0ad">9/16</text>
<line x1="533.4" x2="533.4" y1="292" y2="296" stroke="#3a4150" stroke-width="1"/>
<text x="533.4" y="326" text-anchor="middle" font-family="sans-serif" font-size="11" fill="#9aa0ad">9/17</text>
<line x1="547.7" x2="547.7" y1="292" y2="296" stroke="#3a4150" stroke-width="1"/>
<text x="547.7" y="326" text-anchor="middle" font-family="sans-serif" font-size="11" fill="#9aa0ad">9/18</text>
<line x1="562.0" x2="562.0" y1="292" y2="296" stroke="#3a4150" stroke-width="1"/>
<text x="562.0" y="326" text-anchor="middle" font-family="sans-serif" font-size="11" fill="#9aa0ad">9/19</text>
<line x1="576.3" x2="576.3" y1="292" y2="296" stroke="#3a4150" stroke-width="1"/>
<text x="576.3" y="326" text-anchor="middle" font-family="sans-serif" font-size="11" fill="#9aa0ad">9/20</text>
<line x1="590.6" x2="590.6" y1="292" y2="296" stroke="#3a4150" stroke-width="1"/>
<text x="590.6" y="326" text-anchor="middle" font-family="sans-serif" font-size="11" fill="#9aa0ad">9/21</text>
<line x1="604.9" x2="604.9" y1="292" y2="296" stroke="#3a4150" stroke-width="1"/>
<text x="604.9" y="326" text-anchor="middle" font-family="sans-serif" font-size="11" fill="#9aa0ad">9/22</text>
<line x1="619.1" x2="619.1" y1="292" y2="296" stroke="#3a4150" stroke-width="1"/>
<text x="619.1" y="326" text-anchor="middle" font-family="sans-serif" font-size="11" fill="#9aa0ad">9/23</text>
<line x1="633.4" x2="633.4" y1="292" y2="296" stroke="#3a4150" stroke-width="1"/>
<text x="633.4" y="326" text-anchor="middle" font-family="sans-serif" font-size="11" fill="#9aa0ad">9/24</text>
<line x1="647.7" x2="647.7" y1="292" y2="296" stroke="#3a4150" stroke-width="1"/>
<text x="647.7" y="326" text-anchor="middle" font-family="sans-serif" font-size="11" fill="#9aa0ad">9/25</text>
<line x1="662.0" x2="662.0" y1="292" y2="296" stroke="#3a4150" stroke-width="1"/>
<text x="662.0" y="326" text-anchor="middle" font-family="sans-serif" font-size="11" fill="#9aa0ad">9/26</text>
<line x1="676.3" x2="676.3" y1="292" y2="296" stroke="#3a4150" stroke-width="1"/>
<text x="676.3" y="326" text-anchor="middle" font-family="sans-serif" font-size="11" fill="#9aa0ad">9/27</text>
<line x1="690.6" x2="690.6" y1="292" y2="296" stroke="#3a4150" stroke-width="1"/>
<text x="690.6" y="326" text-anchor="middle" font-family="sans-serif" font-size="11" fill="#9aa0ad">9/28</text>
<line x1="704.9" x2="704.9" y1="292" y2="296" stroke="#3a4150" stroke-width="1"/>
<text x="704.9" y="326" text-anchor="middle" font-family="sans-serif" font-size="11" fill="#9aa0ad">9/29</text>
<line x1="719.1" x2="719.1" y1="292" y2="296" stroke="#3a4150" stroke-width="1"/>
<text x="719.1" y="326" text-anchor="middle" font-family="sans-serif" font-size="11" fill="#9aa0ad">9/30</text>
<line x1="733.4" x2="733.4" y1="292" y2="296" stroke="#3a4150" stroke-width="1"/>
<text x="733.4" y="326" text-anchor="middle" font-family="sans-serif" font-size="11" fill="#9aa0ad">10/1</text>
<line x1="747.7" x2="747.7" y1="292" y2="296" stroke="#3a4150" stroke-width="1"/>
<text x="747.7" y="326" text-anchor="middle" font-family="sans-serif" font-size="11" fill="#9aa0ad">10/2</text>
<line x1="762.0" x2="762.0" y1="292" y2="296" stroke="#3a4150" stroke-width="1"/>
<text x="762.0" y="326" text-anchor="middle" font-family="sans-serif" font-size="11" fill="#9aa0ad">10/3</text>
<line x1="62" x2="62" y1="30" y2="292" stroke="#3a4150" stroke-width="1.2"/>
<line x1="62" x2="762" y1="292" y2="292" stroke="#3a4150" stroke-width="1.2"/>
<text x="14" y="161.0" text-anchor="middle" transform="rotate(-90,14,161.0)" font-family="sans-serif" font-size="11" fill="#9aa0ad">Score</text>
<path d="M 62.0,148.0 L 76.3,147.0 L 90.6,146.0 L 104.9,145.0 L 119.1,143.9 L 133.4,142.9 L 147.7,141.9 L 162.0,140.9 L 176.3,139.8 L 190.6,138.8 L 204.9,137.8 L 219.1,136.8 L 233.4,135.7 L 247.7,134.7 L 262.0,133.7 L 276.3,132.7 L 290.6,131.6 L 304.9,130.6 L 319.1,129.6 L 333.4,128.6 L 347.7,127.5 L 362.0,126.5 L 376.3,125.5 L 390.6,124.5 L 404.9,123.4 L 419.1,122.4 L 433.4,121.4 L 447.7,120.4 L 462.0,119.3 L 476.3,118.3 L 490.6,117.3 L 504.9,116.3 L 519.1,115.3 L 533.4,114.2 L 547.7,113.2 L 562.0,112.2 L 576.3,111.2 L 590.6,110.1 L 604.9,109.1 L 619.1,108.1 L 633.4,107.1 L 647.7,106.0 L 662.0,105.0 L 676.3,104.0 L 690.6,103.0 L 704.9,101.9 L 719.1,100.9 L 733.4,99.9 L 747.7,98.9 L 762.0,97.8" fill="none" stroke="#f2c14e" stroke-width="1.8" opacity="0.95" stroke-dasharray="8 6" stroke-linecap="round" stroke-linejoin="round"/>
<path d="M 62.0,120.3 L 76.3,109.7 L 90.6,213.0 L 104.9,58.7 L 119.1,167.9 L 133.4,204.5 L 147.7,122.1 L 162.0,149.1 L 176.3,158.7 L 190.6,105.3 L 204.9,180.9 L 219.1,208.4 L 233.4,88.9 L 247.7,226.1 L 262.0,85.7 L 276.3,267.3 L 290.6,54.7 L 304.9,111.4 L 319.1,162.6 L 333.4,89.4 L 347.7,60.9 L 362.0,56.8 L 376.3,145.2 L 390.6,108.4 L 404.9,140.2 L 419.1,117.9 L 433.4,108.0 L 447.7,99.0 L 462.0,109.2 L 476.3,41.2 L 490.6,111.4 L 504.9,135.6 L 519.1,126.0 L 533.4,125.2 L 547.7,141.4 L 562.0,170.0 L 576.3,73.3 L 590.6,84.9 L 604.9,83.8 L 619.1,123.4 L 633.4,122.9 L 647.7,169.9 L 662.0,128.5 L 676.3,83.4 L 690.6,164.8 L 704.9,75.8 L 719.1,66.1 L 733.4,106.8 L 747.7,79.3 L 762.0,102.7" fill="none" stroke="#7aa5ff" stroke-width="2.5" stroke-linecap="round" stroke-linejoin="round"/>
<path d="M 62.0,120.3 L 76.3,109.7 L 90.6,213.0 L 104.9,58.7 L 119.1,167.9 L 133.4,204.5 L 147.7,122.1 L 162.0,149.1 L 176.3,158.7 L 190.6,105.3 L 204.9,180.9 L 219.1,208.4 L 233.4,88.9 L 247.7,226.1 L 262.0,85.7 L 276.3,267.3 L 290.6,54.7 L 304.9,111.4 L 319.1,162.6 L 333.4,89.4 L 347.7,60.9 L 362.0,56.8 L 376.3,145.2 L 390.6,108.4 L 404.9,140.2 L 419.1,117.9 L 433.4,108.0 L 447.7,99.0 L 462.0,109.2 L 476.3,41.2 L 490.6,111.4 L 504.9,135.6 L 519.1,126.0 L 533.4,125.2 L 547.7,141.4 L 562.0,170.0 L 576.3,73.3 L 590.6,84.9 L 604.9,83.8 L 619.1,123.4 L 633.4,122.9 L 647.7,169.9 L 662.0,128.5 L 676.3,83.4 L 690.6,164.8 L 704.9,75.8 L 719.1,66.1 L 733.4,106.8 L 747.7,79.3 L 762.0,102.7 L 762.0,292.0 L 62.0,292.0 Z" fill="#7aa5ff" opacity="0.08"/>
<circle cx="62.0" cy="120.3" r="4" fill="#7aa5ff" stroke="#0f1115" stroke-width="1.5"><title>8/13: 64,497</title></circle>
<circle cx="76.3" cy="109.7" r="4" fill="#7aa5ff" stroke="#0f1115" stroke-width="1.5"><title>8/14: 66,309</title></circle>
<circle cx="90.6" cy="213.0" r="4" fill="#7aa5ff" stroke="#0f1115" stroke-width="1.5"><title>8/15: 48,569</title></circle>
<circle cx="104.9" cy="58.7" r="4" fill="#7aa5ff" stroke="#0f1115" stroke-width="1.5"><title>8/16: 75,078</title></circle>
<circle cx="119.1" cy="167.9" r="4" fill="#7aa5ff" stroke="#0f1115" stroke-width="1.5"><title>8/17: 56,316</title></circle>
<circle cx="133.4" cy="204.5" r="4" fill="#7aa5ff" stroke="#0f1115" stroke-width="1.5"><title>8/18: 50,037</title></circle>
<circle cx="147.7" cy="122.1" r="4" fill="#7aa5ff" stroke="#0f1115" stroke-width="1.5"><title>8/20: 64,181</title></circle>
<circle cx="162.0" cy="149.1" r="4" fill="#7aa5ff" stroke="#0f1115" stroke-width="1.5"><title>8/21: 59,541</title></circle>
<circle cx="176.3" cy="158.7" r="4" fill="#7aa5ff" stroke="#0f1115" stroke-width="1.5"><title>8/22: 57,891</title></circle>
<circle cx="190.6" cy="105.3" r="4" fill="#7aa5ff" stroke="#0f1115" stroke-width="1.5"><title>8/23: 67,070</title></circle>
<circle cx="204.9" cy="180.9" r="4" fill="#7aa5ff" stroke="#0f1115" stroke-width="1.5"><title>8/24: 54,082</title></circle>
<circle cx="219.1" cy="208.4" r="4" fill="#7aa5ff" stroke="#0f1115" stroke-width="1.5"><title>8/25: 49,359</title></circle>
<circle cx="233.4" cy="88.9" r="4" fill="#7aa5ff" stroke="#0f1115" stroke-width="1.5"><title>8/26: 69,883</title></circle>
<circle cx="247.7" cy="226.1" r="4" fill="#7aa5ff" stroke="#0f1115" stroke-width="1.5"><title>8/27: 46,314</title></circle>
<circle cx="262.0" cy="85.7" r="4" fill="#7aa5ff" stroke="#0f1115" stroke-width="1.5"><title>8/29: 70,427</title></circle>
<circle cx="276.3" cy="267.3" r="4" fill="#7aa5ff" stroke="#0f1115" stroke-width="1.5"><title>8/30: 39,248</title></circle>
<circle cx="290.6" cy="54.7" r="4" fill="#7aa5ff" stroke="#0f1115" stroke-width="1.5"><title>8/31: 75,763</title></circle>
<circle cx="304.9" cy="111.4" r="4" fill="#7aa5ff" stroke="#0f1115" stroke-width="1.5"><title>9/1: 66,013</title></circle>
<circle cx="319.1" cy="162.6" r="4" fill="#7aa5ff" stroke="#0f1115" stroke-width="1.5"><title>9/2: 57,221</title></circle>
<circle cx="333.4" cy="89.4" r="4" fill="#7aa5ff" stroke="#0f1115" stroke-width="1.5"><title>9/3: 69,801</title></circle>
<circle cx="347.7" cy="60.9" r="4" fill="#7aa5ff" stroke="#0f1115" stroke-width="1.5"><title>9/4: 74,700</title></circle>
<circle cx="362.0" cy="56.8" r="4" fill="#7aa5ff" stroke="#0f1115" stroke-width="1.5"><title>9/5: 75,404</title></circle>
<circle cx="376.3" cy="145.2" r="4" fill="#7aa5ff" stroke="#0f1115" stroke-width="1.5"><title>9/6: 60,210</title></circle>
<circle cx="390.6" cy="108.4" r="4" fill="#7aa5ff" stroke="#0f1115" stroke-width="1.5"><title>9/7: 66,528</title></circle>
<circle cx="404.9" cy="140.2" r="4" fill="#7aa5ff" stroke="#0f1115" stroke-width="1.5"><title>9/8: 61,073</title></circle>
<circle cx="419.1" cy="117.9" r="4" fill="#7aa5ff" stroke="#0f1115" stroke-width="1.5"><title>9/9: 64,901</title></circle>
<circle cx="433.4" cy="108.0" r="4" fill="#7aa5ff" stroke="#0f1115" stroke-width="1.5"><title>9/10: 66,608</title></circle>
<circle cx="447.7" cy="99.0" r="4" fill="#7aa5ff" stroke="#0f1115" stroke-width="1.5"><title>9/11: 68,150</title></circle>
<circle cx="462.0" cy="109.2" r="4" fill="#7aa5ff" stroke="#0f1115" stroke-width="1.5"><title>9/12: 66,405</title></circle>
<circle cx="476.3" cy="41.2" r="4" fill="#7aa5ff" stroke="#0f1115" stroke-width="1.5"><title>9/13: 78,080</title></circle>
<circle cx="490.6" cy="111.4" r="4" fill="#7aa5ff" stroke="#0f1115" stroke-width="1.5"><title>9/14: 66,024</title></circle>
<circle cx="504.9" cy="135.6" r="4" fill="#7aa5ff" stroke="#0f1115" stroke-width="1.5"><title>9/15: 61,856</title></circle>
<circle cx="519.1" cy="126.0" r="4" fill="#7aa5ff" stroke="#0f1115" stroke-width="1.5"><title>9/16: 63,514</title></circle>
<circle cx="533.4" cy="125.2" r="4" fill="#7aa5ff" stroke="#0f1115" stroke-width="1.5"><title>9/17: 63,646</title></circle>
<circle cx="547.7" cy="141.4" r="4" fill="#7aa5ff" stroke="#0f1115" stroke-width="1.5"><title>9/18: 60,865</title></circle>
<circle cx="562.0" cy="170.0" r="4" fill="#7aa5ff" stroke="#0f1115" stroke-width="1.5"><title>9/19: 55,950</title></circle>
<circle cx="576.3" cy="73.3" r="4" fill="#7aa5ff" stroke="#0f1115" stroke-width="1.5"><title>9/20: 72,557</title></circle>
<circle cx="590.6" cy="84.9" r="4" fill="#7aa5ff" stroke="#0f1115" stroke-width="1.5"><title>9/21: 70,570</title></circle>
<circle cx="604.9" cy="83.8" r="4" fill="#7aa5ff" stroke="#0f1115" stroke-width="1.5"><title>9/22: 70,754</title></circle>
<circle cx="619.1" cy="123.4" r="4" fill="#7aa5ff" stroke="#0f1115" stroke-width="1.5"><title>9/23: 63,964</title></circle>
<circle cx="633.4" cy="122.9" r="4" fill="#7aa5ff" stroke="#0f1115" stroke-width="1.5"><title>9/24: 64,040</title></circle>
<circle cx="647.7" cy="169.9" r="4" fill="#7aa5ff" stroke="#0f1115" stroke-width="1.5"><title>9/25: 55,964</title></circle>
<circle cx="662.0" cy="128.5" r="4" fill="#7aa5ff" stroke="#0f1115" stroke-width="1.5"><title>9/26: 63,084</title></circle>
<circle cx="676.3" cy="83.4" r="4" fill="#7aa5ff" stroke="#0f1115" stroke-width="1.5"><title>9/27: 70,821</title></circle>
<circle cx="690.6" cy="164.8" r="4" fill="#7aa5ff" stroke="#0f1115" stroke-width="1.5"><title>9/28: 56,855</title></circle>
<circle cx="704.9" cy="75.8" r="4" fill="#7aa5ff" stroke="#0f1115" stroke-width="1.5"><title>9/29: 72,133</title></circle>
<circle cx="719.1" cy="66.1" r="4" fill="#7aa5ff" stroke="#0f1115" stroke-width="1.5"><title>9/30: 73,804</title></circle>
<circle cx="733.4" cy="106.8" r="4" fill="#7aa5ff" stroke="#0f1115" stroke-width="1.5"><title>10/1: 66,805</title></circle>
<circle cx="747.7" cy="79.3" r="4" fill="#7aa5ff" stroke="#0f1115" stroke-width="1.5"><title>10/2: 71,524</title></circle>
<circle cx="762.0" cy="102.7" r="4" fill="#7aa5ff" stroke="#0f1115" stroke-width="1.5"><title>10/3: 67,521</title></circle>
<text x="276.3" y="281.3" text-anchor="middle" font-family="sans-serif" font-size="10" font-weight="700" fill="#e6e6e6">39,248</text>
<text x="476.3" y="31.2" text-anchor="middle" font-family="sans-serif" font-size="10" font-weight="700" fill="#e6e6e6">78,080</text>
</svg>