<svg viewBox="0 0 780 340" width="100%" height="340" xmlns="http://www.w3.org/2000/svg" role="img" aria-label="Anthropeum — Score Over Time">
<rect width="780" height="340" fill="#0f1115" rx="12"/>
<text x="390.0" y="20" text-anchor="middle" font-family="sans-serif" font-size="14" font-weight="600" fill="#e6e6e6">Anthropeum — Score Over Time</text>
<line x1="62" x2="762" y1="292.0" y2="292.0" stroke="#2a2f3a" stroke-width="1" stroke-dasharray="4 6"/>
<text x="54" y="296.0" text-anchor="end" font-family="sans-serif" font-size="11" fill="#9aa0ad">35,000</text>
<line x1="62" x2="762" y1="233.8" y2="233.8" stroke="#2a2f3a" stroke-width="1" stroke-dasharray="4 6"/>
<text x="54" y="237.8" text-anchor="end" font-family="sans-serif" font-size="11" fill="#9aa0ad">45,000</text>
<line x1="62" x2="762" y1="175.6" y2="175.6" stroke="#2a2f3a" stroke-width="1" stroke-dasharray="4 6"/>
<text x="54" y="179.6" text-anchor="end" font-family="sans-serif" font-size="11" fill="#9aa0ad">55,000</text>
<line x1="62" x2="762" y1="117.3" y2="117.3" stroke="#2a2f3a" stroke-width="1" stroke-dasharray="4 6"/>
<text x="54" y="121.3" text-anchor="end" font-family="sans-serif" font-size="11" fill="#9aa0ad">65,000</text>
<line x1="62" x2="762" y1="59.1" y2="59.1" stroke="#2a2f3a" stroke-width="1" stroke-dasharray="4 6"/>
<text x="54" y="63.1" text-anchor="end" font-family="sans-serif" font-size="11" fill="#9aa0ad">75,000</text>
<line x1="62.0" x2="62.0" y1="292" y2="296" stroke="#3a4150" stroke-width="1"/>
<text x="62.0" y="326" text-anchor="middle" font-family="sans-serif" font-size="11" fill="#9aa0ad">8/13</text>
<line x1="92.4" x2="92.4" y1="292" y2="296" stroke="#3a4150" stroke-width="1"/>
<text x="92.4" y="326" text-anchor="middle" font-family="sans-serif" font-size="11" fill="#9aa0ad">8/14</text>
<line x1="122.9" x2="122.9" y1="292" y2="296" stroke="#3a4150" stroke-width="1"/>
<text x="122.9" y="326" text-anchor="middle" font-family="sans-serif" font-size="11" fill="#9aa0ad">8/15</text>
<line x1="153.3" x2="153.3" y1="292" y2="296" stroke="#3a4150" stroke-width="1"/>
<text x="153.3" y="326" text-anchor="middle" font-family="sans-serif" font-size="11" fill="#9aa0ad">8/16</text>
<line x1="183.7" x2="183.7" y1="292" y2="296" stroke="#3a4150" stroke-width="1"/>
<text x="183.7" y="326" text-anchor="middle" font-family="sans-serif" font-size="11" fill="#9aa0ad">8/17</text>
<line x1="214.2" x2="214.2" y1="292" y2="296" stroke="#3a4150" stroke-width="1"/>
<text x="214.2" y="326" text-anchor="middle" font-family="sans-serif" font-size="11" fill="#9aa0ad">8/18</text>
<line x1="244.6" x2="244.6" y1="292" y2="296" stroke="#3a4150" stroke-width="1"/>
<text x="244.6" y="326" text-anchor="middle" font-family="sans-serif" font-size="11" fill="#9aa0ad">8/20</text>
<line x1="275.0" x2="275.0" y1="292" y2="296" stroke="#3a4150" stroke-width="1"/>
<text x="275.0" y="326" text-anchor="middle" font-family="sans-serif" font-size="11" fill="#9aa0ad">8/21</text>
<line x1="305.5" x2="305.5" y1="292" y2="296" stroke="#3a4150" stroke-width="1"/>
<text x="305.5" y="326" text-anchor="middle" font-family="sans-serif" font-size="11" fill="#9aa0ad">8/22</text>
<line x1="335.9" x2="335.9" y1="292" y2="296" stroke="#3a4150" stroke-width="1"/>
<text x="335.9" y="326" text-anchor="middle" font-family="sans-serif" font-size="11" fill="#9aa0ad">8/23</text>
<line x1="366.3" x2="366.3" y1="292" y2="296" stroke="#3a4150" stroke-width="1"/>
<text x="366.3" y="326" text-anchor="middle" font-family="sans-serif" font-size="11" fill="#9aa0ad">8/24</text>
<line x1="396.8" x2="396.8" y1="292" y2="296" stroke="#3a4150" stroke-width="1"/>
<text x="396.8" y="326" text-anchor="middle" font-family="sans-serif" font-size="11" fill="#9aa0ad">8/25</text>
<line x1="427.2" x2="427.2" y1="292" y2="296" stroke="#3a4150" stroke-width="1"/>
<text x="427.2" y="326" text-anchor="middle" font-family="sans-serif" font-size="11" fill="#9aa0ad">8/26</text>
<line x1="457.7" x2="457.7" y1="292" y2="296" stroke="#3a4150" stroke-width="1"/>
<text x="457.7" y="326" text-anchor="middle" font-family="sans-serif" font-size="11" fill="#9aa0ad">8/27</text>
<line x1="488.1" x2="488.1" y1="292" y2="296" stroke="#3a4150" stroke-width="1"/>
<text x="488.1" y="326" text-anchor="middle" font-family="sans-serif" font-size="11" fill="#9aa0ad">8/29</text>
<line x1="518.5" x2="518.5" y1="292" y2="296" stroke="#3a4150" stroke-width="1"/>
<text x="518.5" y="326" text-anchor="middle" font-family="sans-serif" font-size="11" fill="#9aa0ad">8/30</text>
<line x1="549.0" x2="549.0" y1="292" y2="296" stroke="#3a4150" stroke-width="1"/>
<text x="549.0" y="326" text-anchor="middle" font-family="sans-serif" font-size="11" fill="#9aa0ad">8/31</text>
<line x1="579.4" x2="579.4" y1="292" y2="296" stroke="#3a4150" stroke-width="1"/>
<text x="579.4" y="326" text-anchor="middle" font-family="sans-serif" font-size="11" fill="#9aa0ad">9/1</text>
<line x1="609.8" x2="609.8" y1="292" y2="296" stroke="#3a4150" stroke-width="1"/>
<text x="609.8" y="326" text-anchor="middle" font-family="sans-serif" font-size="11" fill="#9aa0ad">9/2</text>
<line x1="640.3" x2="640.3" y1="292" y2="296" stroke="#3a4150" stroke-width="1"/>
<text x="640.3" y="326" text-anchor="middle" font-family="sans-serif" font-size="11" fill="#9aa0ad">9/3</text>
<line x1="670.7" x2="670.7" y1="292" y2="296" stroke="#3a4150" stroke-width="1"/>
<text x="670.7" y="326" text-anchor="middle" font-family="sans-serif" font-size="11" fill="#9aa0ad">9/4</text>
<line x1="701.1" x2="701.1" y1="292" y2="296" stroke="#3a4150" stroke-width="1"/>
<text x="701.1" y="326" text-anchor="middle" font-family="sans-serif" font-size="11" fill="#9aa0ad">9/5</text>
<line x1="731.6" x2="731.6" y1="292" y2="296" stroke="#3a4150" stroke-width="1"/>
<text x="731.6" y="326" text-anchor="middle" font-family="sans-serif" font-size="11" fill="#9aa0ad">9/6</text>
<line x1="762.0" x2="762.0" y1="292" y2="296" stroke="#3a4150" stroke-width="1"/>
<text x="762.0" y="326" text-anchor="middle" font-family="sans-serif" font-size="11" fill="#9aa0ad">9/7</text>
<line x1="62" x2="62" y1="30" y2="292" stroke="#3a4150" stroke-width="1.2"/>
<line x1="62" x2="762" y1="292" y2="292" stroke="#3a4150" stroke-width="1.2"/>
<text x="14" y="161.0" text-anchor="middle" transform="rotate(-90,14,161.0)" font-family="sans-serif" font-size="11" fill="#9aa0ad">Score</text>
<path d="M 62.0,158.0 L 92.4,156.1 L 122.9,154.1 L 153.3,152.2 L 183.7,150.2 L 214.2,148.3 L 244.6,146.3 L 275.0,144.4 L 305.5,142.5 L 335.9,140.5 L 366.3,138.6 L 396.8,136.6 L 427.2,134.7 L 457.7,132.7 L 488.1,130.8 L 518.5,128.9 L 549.0,126.9 L 579.4,125.0 L 609.8,123.0 L 640.3,121.1 L 670.7,119.2 L 701.1,117.2 L 731.6,115.3 L 762.0,113.3" fill="none" stroke="#f2c14e" stroke-width="1.8" opacity="0.95" stroke-dasharray="8 6" stroke-linecap="round" stroke-linejoin="round"/>
<path d="M 62.0,120.3 L 92.4,109.7 L 122.9,213.0 L 153.3,58.7 L 183.7,167.9 L 214.2,204.5 L 244.6,122.1 L 275.0,149.1 L 305.5,158.7 L 335.9,105.3 L 366.3,180.9 L 396.8,208.4 L 427.2,88.9 L 457.7,226.1 L 488.1,85.7 L 518.5,267.3 L 549.0,54.7 L 579.4,111.4 L 609.8,162.6 L 640.3,89.4 L 670.7,60.9 L 701.1,56.8 L 731.6,145.2 L 762.0,108.4" fill="none" stroke="#7aa5ff" stroke-width="2.5" stroke-linecap="round" stroke-linejoin="round"/>
<path d="M 62.0,120.3 L 92.4,109.7 L 122.9,213.0 L 153.3,58.7 L 183.7,167.9 L 214.2,204.5 L 244.6,122.1 L 275.0,149.1 L 305.5,158.7 L 335.9,105.3 L 366.3,180.9 L 396.8,208.4 L 427.2,88.9 L 457.7,226.1 L 488.1,85.7 L 518.5,267.3 L 549.0,54.7 L 579.4,111.4 L 609.8,162.6 L 640.3,89.4 L 670.7,60.9 L 701.1,56.8 L 731.6,145.2 L 762.0,108.4 L 762.0,292.0 L 62.0,292.0 Z" fill="#7aa5ff" opacity="0.08"/>
<circle cx="62.0" cy="120.3" r="4" fill="#7aa5ff" stroke="#0f1115" stroke-width="1.5"><title>8/13: 64,497</title></circle>
<circle cx="92.4" cy="109.7" r="4" fill="#7aa5ff" stroke="#0f1115" stroke-width="1.5"><title>8/14: 66,309</title></circle>
<circle cx="122.9" cy="213.0" r="4" fill="#7aa5ff" stroke="#0f1115" stroke-width="1.5"><title>8/15: 48,569</title></circle>
<circle cx="153.3" cy="58.7" r="4" fill="#7aa5ff" stroke="#0f1115" stroke-width="1.5"><title>8/16: 75,078</title></circle>
<circle cx="183.7" cy="167.9" r="4" fill="#7aa5ff" stroke="#0f1115" stroke-width="1.5"><title>8/17: 56,316</title></circle>
<circle cx="214.2" cy="204.5" r="4" fill="#7aa5ff" stroke="#0f1115" stroke-width="1.5"><title>8/18: 50,037</title></circle>
<circle cx="244.6" cy="122.1" r="4" fill="#7aa5ff" stroke="#0f1115" stroke-width="1.5"><title>8/20: 64,181</title></circle>
<circle cx="275.0" cy="149.1" r="4" fill="#7aa5ff" stroke="#0f1115" stroke-width="1.5"><title>8/21: 59,541</title></circle>
<circle cx="305.5" cy="158.7" r="4" fill="#7aa5ff" stroke="#0f1115" stroke-width="1.5"><title>8/22: 57,891</title></circle>
<circle cx="335.9" cy="105.3" r="4" fill="#7aa5ff" stroke="#0f1115" stroke-width="1.5"><title>8/23: 67,070</title></circle>
<circle cx="366.3" cy="180.9" r="4" fill="#7aa5ff" stroke="#0f1115" stroke-width="1.5"><title>8/24: 54,082</title></circle>
<circle cx="396.8" cy="208.4" r="4" fill="#7aa5ff" stroke="#0f1115" stroke-width="1.5"><title>8/25: 49,359</title></circle>
<circle cx="427.2" cy="88.9" r="4" fill="#7aa5ff" stroke="#0f1115" stroke-width="1.5"><title>8/26: 69,883</title></circle>
<circle cx="457.7" cy="226.1" r="4" fill="#7aa5ff" stroke="#0f1115" stroke-width="1.5"><title>8/27: 46,314</title></circle>
<circle cx="488.1" cy="85.7" r="4" fill="#7aa5ff" stroke="#0f1115" stroke-width="1.5"><title>8/29: 70,427</title></circle>
<circle cx="518.5" cy="267.3" r="4" fill="#7aa5ff" stroke="#0f1115" stroke-width="1.5"><title>8/30: 39,248</title></circle>
<circle cx="549.0" cy="54.7" r="4" fill="#7aa5ff" stroke="#0f1115" stroke-width="1.5"><title>8/31: 75,763</title></circle>
<circle cx="579.4" cy="111.4" r="4" fill="#7aa5ff" stroke="#0f1115" stroke-width="1.5"><title>9/1: 66,013</title></circle>
<circle cx="609.8" cy="162.6" r="4" fill="#7aa5ff" stroke="#0f1115" stroke-width="1.5"><title>9/2: 57,221</title></circle>
<circle cx="640.3" cy="89.4" r="4" fill="#7aa5ff" stroke="#0f1115" stroke-width="1.5"><title>9/3: 69,801</title></circle>
<circle cx="670.7" cy="60.9" r="4" fill="#7aa5ff" stroke="#0f1115" stroke-width="1.5"><title>9/4: 74,700</title></circle>
<circle cx="701.1" cy="56.8" r="4" fill="#7aa5ff" stroke="#0f1115" stroke-width="1.5"><title>9/5: 75,404</title></circle>
<circle cx="731.6" cy="145.2" r="4" fill="#7aa5ff" stroke="#0f1115" stroke-width="1.5"><title>9/6: 60,210</title></circle>
<circle cx="762.0" cy="108.4" r="4" fill="#7aa5ff" stroke="#0f1115" stroke-width="1.5"><title>9/7: 66,528</title></circle>
<text x="518.5" y="281.3" text-anchor="middle" font-family="sans-serif" font-size="10" font-weight="700" fill="#e6e6e6">39,248</text>
<text x="549.0" y="44.7" text-anchor="middle" font-family="sans-serif" font-size="10" font-weight="700" fill="#e6e6e6">75,763</text>
</svg>