<svg viewBox="0 0 780 340" width="100%" height="340" xmlns="http://www.w3.org/2000/svg" role="img" aria-label="Anthropeum — Score Over Time">
<rect width="780" height="340" fill="#0f1115" rx="12"/>
<text x="390.0" y="20" text-anchor="middle" font-family="sans-serif" font-size="14" font-weight="600" fill="#e6e6e6">Anthropeum — Score Over Time</text>
<line x1="62" x2="762" y1="292.0" y2="292.0" stroke="#2a2f3a" stroke-width="1" stroke-dasharray="4 6"/>
<text x="54" y="296.0" text-anchor="end" font-family="sans-serif" font-size="11" fill="#9aa0ad">35,000</text>
<line x1="62" x2="762" y1="233.8" y2="233.8" stroke="#2a2f3a" stroke-width="1" stroke-dasharray="4 6"/>
<text x="54" y="237.8" text-anchor="end" font-family="sans-serif" font-size="11" fill="#9aa0ad">45,000</text>
<line x1="62" x2="762" y1="175.6" y2="175.6" stroke="#2a2f3a" stroke-width="1" stroke-dasharray="4 6"/>
<text x="54" y="179.6" text-anchor="end" font-family="sans-serif" font-size="11" fill="#9aa0ad">55,000</text>
<line x1="62" x2="762" y1="117.3" y2="117.3" stroke="#2a2f3a" stroke-width="1" stroke-dasharray="4 6"/>
<text x="54" y="121.3" text-anchor="end" font-family="sans-serif" font-size="11" fill="#9aa0ad">65,000</text>
<line x1="62" x2="762" y1="59.1" y2="59.1" stroke="#2a2f3a" stroke-width="1" stroke-dasharray="4 6"/>
<text x="54" y="63.1" text-anchor="end" font-family="sans-serif" font-size="11" fill="#9aa0ad">75,000</text>
<line x1="62.0" x2="62.0" y1="292" y2="296" stroke="#3a4150" stroke-width="1"/>
<text x="62.0" y="326" text-anchor="middle" font-family="sans-serif" font-size="11" fill="#9aa0ad">8/13</text>
<line x1="83.2" x2="83.2" y1="292" y2="296" stroke="#3a4150" stroke-width="1"/>
<text x="83.2" y="326" text-anchor="middle" font-family="sans-serif" font-size="11" fill="#9aa0ad">8/14</text>
<line x1="104.4" x2="104.4" y1="292" y2="296" stroke="#3a4150" stroke-width="1"/>
<text x="104.4" y="326" text-anchor="middle" font-family="sans-serif" font-size="11" fill="#9aa0ad">8/15</text>
<line x1="125.6" x2="125.6" y1="292" y2="296" stroke="#3a4150" stroke-width="1"/>
<text x="125.6" y="326" text-anchor="middle" font-family="sans-serif" font-size="11" fill="#9aa0ad">8/16</text>
<line x1="146.8" x2="146.8" y1="292" y2="296" stroke="#3a4150" stroke-width="1"/>
<text x="146.8" y="326" text-anchor="middle" font-family="sans-serif" font-size="11" fill="#9aa0ad">8/17</text>
<line x1="168.1" x2="168.1" y1="292" y2="296" stroke="#3a4150" stroke-width="1"/>
<text x="168.1" y="326" text-anchor="middle" font-family="sans-serif" font-size="11" fill="#9aa0ad">8/18</text>
<line x1="189.3" x2="189.3" y1="292" y2="296" stroke="#3a4150" stroke-width="1"/>
<text x="189.3" y="326" text-anchor="middle" font-family="sans-serif" font-size="11" fill="#9aa0ad">8/20</text>
<line x1="210.5" x2="210.5" y1="292" y2="296" stroke="#3a4150" stroke-width="1"/>
<text x="210.5" y="326" text-anchor="middle" font-family="sans-serif" font-size="11" fill="#9aa0ad">8/21</text>
<line x1="231.7" x2="231.7" y1="292" y2="296" stroke="#3a4150" stroke-width="1"/>
<text x="231.7" y="326" text-anchor="middle" font-family="sans-serif" font-size="11" fill="#9aa0ad">8/22</text>
<line x1="252.9" x2="252.9" y1="292" y2="296" stroke="#3a4150" stroke-width="1"/>
<text x="252.9" y="326" text-anchor="middle" font-family="sans-serif" font-size="11" fill="#9aa0ad">8/23</text>
<line x1="274.1" x2="274.1" y1="292" y2="296" stroke="#3a4150" stroke-width="1"/>
<text x="274.1" y="326" text-anchor="middle" font-family="sans-serif" font-size="11" fill="#9aa0ad">8/24</text>
<line x1="295.3" x2="295.3" y1="292" y2="296" stroke="#3a4150" stroke-width="1"/>
<text x="295.3" y="326" text-anchor="middle" font-family="sans-serif" font-size="11" fill="#9aa0ad">8/25</text>
<line x1="316.5" x2="316.5" y1="292" y2="296" stroke="#3a4150" stroke-width="1"/>
<text x="316.5" y="326" text-anchor="middle" font-family="sans-serif" font-size="11" fill="#9aa0ad">8/26</text>
<line x1="337.8" x2="337.8" y1="292" y2="296" stroke="#3a4150" stroke-width="1"/>
<text x="337.8" y="326" text-anchor="middle" font-family="sans-serif" font-size="11" fill="#9aa0ad">8/27</text>
<line x1="359.0" x2="359.0" y1="292" y2="296" stroke="#3a4150" stroke-width="1"/>
<text x="359.0" y="326" text-anchor="middle" font-family="sans-serif" font-size="11" fill="#9aa0ad">8/29</text>
<line x1="380.2" x2="380.2" y1="292" y2="296" stroke="#3a4150" stroke-width="1"/>
<text x="380.2" y="326" text-anchor="middle" font-family="sans-serif" font-size="11" fill="#9aa0ad">8/30</text>
<line x1="401.4" x2="401.4" y1="292" y2="296" stroke="#3a4150" stroke-width="1"/>
<text x="401.4" y="326" text-anchor="middle" font-family="sans-serif" font-size="11" fill="#9aa0ad">8/31</text>
<line x1="422.6" x2="422.6" y1="292" y2="296" stroke="#3a4150" stroke-width="1"/>
<text x="422.6" y="326" text-anchor="middle" font-family="sans-serif" font-size="11" fill="#9aa0ad">9/1</text>
<line x1="443.8" x2="443.8" y1="292" y2="296" stroke="#3a4150" stroke-width="1"/>
<text x="443.8" y="326" text-anchor="middle" font-family="sans-serif" font-size="11" fill="#9aa0ad">9/2</text>
<line x1="465.0" x2="465.0" y1="292" y2="296" stroke="#3a4150" stroke-width="1"/>
<text x="465.0" y="326" text-anchor="middle" font-family="sans-serif" font-size="11" fill="#9aa0ad">9/3</text>
<line x1="486.2" x2="486.2" y1="292" y2="296" stroke="#3a4150" stroke-width="1"/>
<text x="486.2" y="326" text-anchor="middle" font-family="sans-serif" font-size="11" fill="#9aa0ad">9/4</text>
<line x1="507.5" x2="507.5" y1="292" y2="296" stroke="#3a4150" stroke-width="1"/>
<text x="507.5" y="326" text-anchor="middle" font-family="sans-serif" font-size="11" fill="#9aa0ad">9/5</text>
<line x1="528.7" x2="528.7" y1="292" y2="296" stroke="#3a4150" stroke-width="1"/>
<text x="528.7" y="326" text-anchor="middle" font-family="sans-serif" font-size="11" fill="#9aa0ad">9/6</text>
<line x1="549.9" x2="549.9" y1="292" y2="296" stroke="#3a4150" stroke-width="1"/>
<text x="549.9" y="326" text-anchor="middle" font-family="sans-serif" font-size="11" fill="#9aa0ad">9/7</text>
<line x1="571.1" x2="571.1" y1="292" y2="296" stroke="#3a4150" stroke-width="1"/>
<text x="571.1" y="326" text-anchor="middle" font-family="sans-serif" font-size="11" fill="#9aa0ad">9/8</text>
<line x1="592.3" x2="592.3" y1="292" y2="296" stroke="#3a4150" stroke-width="1"/>
<text x="592.3" y="326" text-anchor="middle" font-family="sans-serif" font-size="11" fill="#9aa0ad">9/9</text>
<line x1="613.5" x2="613.5" y1="292" y2="296" stroke="#3a4150" stroke-width="1"/>
<text x="613.5" y="326" text-anchor="middle" font-family="sans-serif" font-size="11" fill="#9aa0ad">9/10</text>
<line x1="634.7" x2="634.7" y1="292" y2="296" stroke="#3a4150" stroke-width="1"/>
<text x="634.7" y="326" text-anchor="middle" font-family="sans-serif" font-size="11" fill="#9aa0ad">9/11</text>
<line x1="655.9" x2="655.9" y1="292" y2="296" stroke="#3a4150" stroke-width="1"/>
<text x="655.9" y="326" text-anchor="middle" font-family="sans-serif" font-size="11" fill="#9aa0ad">9/12</text>
<line x1="677.2" x2="677.2" y1="292" y2="296" stroke="#3a4150" stroke-width="1"/>
<text x="677.2" y="326" text-anchor="middle" font-family="sans-serif" font-size="11" fill="#9aa0ad">9/13</text>
<line x1="698.4" x2="698.4" y1="292" y2="296" stroke="#3a4150" stroke-width="1"/>
<text x="698.4" y="326" text-anchor="middle" font-family="sans-serif" font-size="11" fill="#9aa0ad">9/14</text>
<line x1="719.6" x2="719.6" y1="292" y2="296" stroke="#3a4150" stroke-width="1"/>
<text x="719.6" y="326" text-anchor="middle" font-family="sans-serif" font-size="11" fill="#9aa0ad">9/15</text>
<line x1="740.8" x2="740.8" y1="292" y2="296" stroke="#3a4150" stroke-width="1"/>
<text x="740.8" y="326" text-anchor="middle" font-family="sans-serif" font-size="11" fill="#9aa0ad">9/16</text>
<line x1="762.0" x2="762.0" y1="292" y2="296" stroke="#3a4150" stroke-width="1"/>
<text x="762.0" y="326" text-anchor="middle" font-family="sans-serif" font-size="11" fill="#9aa0ad">9/17</text>
<line x1="62" x2="62" y1="30" y2="292" stroke="#3a4150" stroke-width="1.2"/>
<line x1="62" x2="762" y1="292" y2="292" stroke="#3a4150" stroke-width="1.2"/>
<text x="14" y="161.0" text-anchor="middle" transform="rotate(-90,14,161.0)" font-family="sans-serif" font-size="11" fill="#9aa0ad">Score</text>
<path d="M 62.0,154.4 L 83.2,152.8 L 104.4,151.3 L 125.6,149.7 L 146.8,148.1 L 168.1,146.6 L 189.3,145.0 L 210.5,143.4 L 231.7,141.9 L 252.9,140.3 L 274.1,138.7 L 295.3,137.1 L 316.5,135.6 L 337.8,134.0 L 359.0,132.4 L 380.2,130.9 L 401.4,129.3 L 422.6,127.7 L 443.8,126.2 L 465.0,124.6 L 486.2,123.0 L 507.5,121.5 L 528.7,119.9 L 549.9,118.3 L 571.1,116.7 L 592.3,115.2 L 613.5,113.6 L 634.7,112.0 L 655.9,110.5 L 677.2,108.9 L 698.4,107.3 L 719.6,105.8 L 740.8,104.2 L 762.0,102.6" fill="none" stroke="#f2c14e" stroke-width="1.8" opacity="0.95" stroke-dasharray="8 6" stroke-linecap="round" stroke-linejoin="round"/>
<path d="M 62.0,120.3 L 83.2,109.7 L 104.4,213.0 L 125.6,58.7 L 146.8,167.9 L 168.1,204.5 L 189.3,122.1 L 210.5,149.1 L 231.7,158.7 L 252.9,105.3 L 274.1,180.9 L 295.3,208.4 L 316.5,88.9 L 337.8,226.1 L 359.0,85.7 L 380.2,267.3 L 401.4,54.7 L 422.6,111.4 L 443.8,162.6 L 465.0,89.4 L 486.2,60.9 L 507.5,56.8 L 528.7,145.2 L 549.9,108.4 L 571.1,140.2 L 592.3,117.9 L 613.5,108.0 L 634.7,99.0 L 655.9,109.2 L 677.2,41.2 L 698.4,111.4 L 719.6,135.6 L 740.8,126.0 L 762.0,125.2" fill="none" stroke="#7aa5ff" stroke-width="2.5" stroke-linecap="round" stroke-linejoin="round"/>
<path d="M 62.0,120.3 L 83.2,109.7 L 104.4,213.0 L 125.6,58.7 L 146.8,167.9 L 168.1,204.5 L 189.3,122.1 L 210.5,149.1 L 231.7,158.7 L 252.9,105.3 L 274.1,180.9 L 295.3,208.4 L 316.5,88.9 L 337.8,226.1 L 359.0,85.7 L 380.2,267.3 L 401.4,54.7 L 422.6,111.4 L 443.8,162.6 L 465.0,89.4 L 486.2,60.9 L 507.5,56.8 L 528.7,145.2 L 549.9,108.4 L 571.1,140.2 L 592.3,117.9 L 613.5,108.0 L 634.7,99.0 L 655.9,109.2 L 677.2,41.2 L 698.4,111.4 L 719.6,135.6 L 740.8,126.0 L 762.0,125.2 L 762.0,292.0 L 62.0,292.0 Z" fill="#7aa5ff" opacity="0.08"/>
<circle cx="62.0" cy="120.3" r="4" fill="#7aa5ff" stroke="#0f1115" stroke-width="1.5"><title>8/13: 64,497</title></circle>
<circle cx="83.2" cy="109.7" r="4" fill="#7aa5ff" stroke="#0f1115" stroke-width="1.5"><title>8/14: 66,309</title></circle>
<circle cx="104.4" cy="213.0" r="4" fill="#7aa5ff" stroke="#0f1115" stroke-width="1.5"><title>8/15: 48,569</title></circle>
<circle cx="125.6" cy="58.7" r="4" fill="#7aa5ff" stroke="#0f1115" stroke-width="1.5"><title>8/16: 75,078</title></circle>
<circle cx="146.8" cy="167.9" r="4" fill="#7aa5ff" stroke="#0f1115" stroke-width="1.5"><title>8/17: 56,316</title></circle>
<circle cx="168.1" cy="204.5" r="4" fill="#7aa5ff" stroke="#0f1115" stroke-width="1.5"><title>8/18: 50,037</title></circle>
<circle cx="189.3" cy="122.1" r="4" fill="#7aa5ff" stroke="#0f1115" stroke-width="1.5"><title>8/20: 64,181</title></circle>
<circle cx="210.5" cy="149.1" r="4" fill="#7aa5ff" stroke="#0f1115" stroke-width="1.5"><title>8/21: 59,541</title></circle>
<circle cx="231.7" cy="158.7" r="4" fill="#7aa5ff" stroke="#0f1115" stroke-width="1.5"><title>8/22: 57,891</title></circle>
<circle cx="252.9" cy="105.3" r="4" fill="#7aa5ff" stroke="#0f1115" stroke-width="1.5"><title>8/23: 67,070</title></circle>
<circle cx="274.1" cy="180.9" r="4" fill="#7aa5ff" stroke="#0f1115" stroke-width="1.5"><title>8/24: 54,082</title></circle>
<circle cx="295.3" cy="208.4" r="4" fill="#7aa5ff" stroke="#0f1115" stroke-width="1.5"><title>8/25: 49,359</title></circle>
<circle cx="316.5" cy="88.9" r="4" fill="#7aa5ff" stroke="#0f1115" stroke-width="1.5"><title>8/26: 69,883</title></circle>
<circle cx="337.8" cy="226.1" r="4" fill="#7aa5ff" stroke="#0f1115" stroke-width="1.5"><title>8/27: 46,314</title></circle>
<circle cx="359.0" cy="85.7" r="4" fill="#7aa5ff" stroke="#0f1115" stroke-width="1.5"><title>8/29: 70,427</title></circle>
<circle cx="380.2" cy="267.3" r="4" fill="#7aa5ff" stroke="#0f1115" stroke-width="1.5"><title>8/30: 39,248</title></circle>
<circle cx="401.4" cy="54.7" r="4" fill="#7aa5ff" stroke="#0f1115" stroke-width="1.5"><title>8/31: 75,763</title></circle>
<circle cx="422.6" cy="111.4" r="4" fill="#7aa5ff" stroke="#0f1115" stroke-width="1.5"><title>9/1: 66,013</title></circle>
<circle cx="443.8" cy="162.6" r="4" fill="#7aa5ff" stroke="#0f1115" stroke-width="1.5"><title>9/2: 57,221</title></circle>
<circle cx="465.0" cy="89.4" r="4" fill="#7aa5ff" stroke="#0f1115" stroke-width="1.5"><title>9/3: 69,801</title></circle>
<circle cx="486.2" cy="60.9" r="4" fill="#7aa5ff" stroke="#0f1115" stroke-width="1.5"><title>9/4: 74,700</title></circle>
<circle cx="507.5" cy="56.8" r="4" fill="#7aa5ff" stroke="#0f1115" stroke-width="1.5"><title>9/5: 75,404</title></circle>
<circle cx="528.7" cy="145.2" r="4" fill="#7aa5ff" stroke="#0f1115" stroke-width="1.5"><title>9/6: 60,210</title></circle>
<circle cx="549.9" cy="108.4" r="4" fill="#7aa5ff" stroke="#0f1115" stroke-width="1.5"><title>9/7: 66,528</title></circle>
<circle cx="571.1" cy="140.2" r="4" fill="#7aa5ff" stroke="#0f1115" stroke-width="1.5"><title>9/8: 61,073</title></circle>
<circle cx="592.3" cy="117.9" r="4" fill="#7aa5ff" stroke="#0f1115" stroke-width="1.5"><title>9/9: 64,901</title></circle>
<circle cx="613.5" cy="108.0" r="4" fill="#7aa5ff" stroke="#0f1115" stroke-width="1.5"><title>9/10: 66,608</title></circle>
<circle cx="634.7" cy="99.0" r="4" fill="#7aa5ff" stroke="#0f1115" stroke-width="1.5"><title>9/11: 68,150</title></circle>
<circle cx="655.9" cy="109.2" r="4" fill="#7aa5ff" stroke="#0f1115" stroke-width="1.5"><title>9/12: 66,405</title></circle>
<circle cx="677.2" cy="41.2" r="4" fill="#7aa5ff" stroke="#0f1115" stroke-width="1.5"><title>9/13: 78,080</title></circle>
<circle cx="698.4" cy="111.4" r="4" fill="#7aa5ff" stroke="#0f1115" stroke-width="1.5"><title>9/14: 66,024</title></circle>
<circle cx="719.6" cy="135.6" r="4" fill="#7aa5ff" stroke="#0f1115" stroke-width="1.5"><title>9/15: 61,856</title></circle>
<circle cx="740.8" cy="126.0" r="4" fill="#7aa5ff" stroke="#0f1115" stroke-width="1.5"><title>9/16: 63,514</title></circle>
<circle cx="762.0" cy="125.2" r="4" fill="#7aa5ff" stroke="#0f1115" stroke-width="1.5"><title>9/17: 63,646</title></circle>
<text x="380.2" y="281.3" text-anchor="middle" font-family="sans-serif" font-size="10" font-weight="700" fill="#e6e6e6">39,248</text>
<text x="677.2" y="31.2" text-anchor="middle" font-family="sans-serif" font-size="10" font-weight="700" fill="#e6e6e6">78,080</text>
</svg>