<svg viewBox="0 0 780 340" width="100%" height="340" xmlns="http://www.w3.org/2000/svg" role="img" aria-label="Anthropeum — Score Over Time">
<rect width="780" height="340" fill="#0f1115" rx="12"/>
<text x="390.0" y="20" text-anchor="middle" font-family="sans-serif" font-size="14" font-weight="600" fill="#e6e6e6">Anthropeum — Score Over Time</text>
<line x1="62" x2="762" y1="292.0" y2="292.0" stroke="#2a2f3a" stroke-width="1" stroke-dasharray="4 6"/>
<text x="54" y="296.0" text-anchor="end" font-family="sans-serif" font-size="11" fill="#9aa0ad">35,000</text>
<line x1="62" x2="762" y1="233.8" y2="233.8" stroke="#2a2f3a" stroke-width="1" stroke-dasharray="4 6"/>
<text x="54" y="237.8" text-anchor="end" font-family="sans-serif" font-size="11" fill="#9aa0ad">45,000</text>
<line x1="62" x2="762" y1="175.6" y2="175.6" stroke="#2a2f3a" stroke-width="1" stroke-dasharray="4 6"/>
<text x="54" y="179.6" text-anchor="end" font-family="sans-serif" font-size="11" fill="#9aa0ad">55,000</text>
<line x1="62" x2="762" y1="117.3" y2="117.3" stroke="#2a2f3a" stroke-width="1" stroke-dasharray="4 6"/>
<text x="54" y="121.3" text-anchor="end" font-family="sans-serif" font-size="11" fill="#9aa0ad">65,000</text>
<line x1="62" x2="762" y1="59.1" y2="59.1" stroke="#2a2f3a" stroke-width="1" stroke-dasharray="4 6"/>
<text x="54" y="63.1" text-anchor="end" font-family="sans-serif" font-size="11" fill="#9aa0ad">75,000</text>
<line x1="62.0" x2="62.0" y1="292" y2="296" stroke="#3a4150" stroke-width="1"/>
<text x="62.0" y="326" text-anchor="middle" font-family="sans-serif" font-size="11" fill="#9aa0ad">8/13</text>
<line x1="83.9" x2="83.9" y1="292" y2="296" stroke="#3a4150" stroke-width="1"/>
<text x="83.9" y="326" text-anchor="middle" font-family="sans-serif" font-size="11" fill="#9aa0ad">8/14</text>
<line x1="105.8" x2="105.8" y1="292" y2="296" stroke="#3a4150" stroke-width="1"/>
<text x="105.8" y="326" text-anchor="middle" font-family="sans-serif" font-size="11" fill="#9aa0ad">8/15</text>
<line x1="127.6" x2="127.6" y1="292" y2="296" stroke="#3a4150" stroke-width="1"/>
<text x="127.6" y="326" text-anchor="middle" font-family="sans-serif" font-size="11" fill="#9aa0ad">8/16</text>
<line x1="149.5" x2="149.5" y1="292" y2="296" stroke="#3a4150" stroke-width="1"/>
<text x="149.5" y="326" text-anchor="middle" font-family="sans-serif" font-size="11" fill="#9aa0ad">8/17</text>
<line x1="171.4" x2="171.4" y1="292" y2="296" stroke="#3a4150" stroke-width="1"/>
<text x="171.4" y="326" text-anchor="middle" font-family="sans-serif" font-size="11" fill="#9aa0ad">8/18</text>
<line x1="193.2" x2="193.2" y1="292" y2="296" stroke="#3a4150" stroke-width="1"/>
<text x="193.2" y="326" text-anchor="middle" font-family="sans-serif" font-size="11" fill="#9aa0ad">8/20</text>
<line x1="215.1" x2="215.1" y1="292" y2="296" stroke="#3a4150" stroke-width="1"/>
<text x="215.1" y="326" text-anchor="middle" font-family="sans-serif" font-size="11" fill="#9aa0ad">8/21</text>
<line x1="237.0" x2="237.0" y1="292" y2="296" stroke="#3a4150" stroke-width="1"/>
<text x="237.0" y="326" text-anchor="middle" font-family="sans-serif" font-size="11" fill="#9aa0ad">8/22</text>
<line x1="258.9" x2="258.9" y1="292" y2="296" stroke="#3a4150" stroke-width="1"/>
<text x="258.9" y="326" text-anchor="middle" font-family="sans-serif" font-size="11" fill="#9aa0ad">8/23</text>
<line x1="280.8" x2="280.8" y1="292" y2="296" stroke="#3a4150" stroke-width="1"/>
<text x="280.8" y="326" text-anchor="middle" font-family="sans-serif" font-size="11" fill="#9aa0ad">8/24</text>
<line x1="302.6" x2="302.6" y1="292" y2="296" stroke="#3a4150" stroke-width="1"/>
<text x="302.6" y="326" text-anchor="middle" font-family="sans-serif" font-size="11" fill="#9aa0ad">8/25</text>
<line x1="324.5" x2="324.5" y1="292" y2="296" stroke="#3a4150" stroke-width="1"/>
<text x="324.5" y="326" text-anchor="middle" font-family="sans-serif" font-size="11" fill="#9aa0ad">8/26</text>
<line x1="346.4" x2="346.4" y1="292" y2="296" stroke="#3a4150" stroke-width="1"/>
<text x="346.4" y="326" text-anchor="middle" font-family="sans-serif" font-size="11" fill="#9aa0ad">8/27</text>
<line x1="368.2" x2="368.2" y1="292" y2="296" stroke="#3a4150" stroke-width="1"/>
<text x="368.2" y="326" text-anchor="middle" font-family="sans-serif" font-size="11" fill="#9aa0ad">8/29</text>
<line x1="390.1" x2="390.1" y1="292" y2="296" stroke="#3a4150" stroke-width="1"/>
<text x="390.1" y="326" text-anchor="middle" font-family="sans-serif" font-size="11" fill="#9aa0ad">8/30</text>
<line x1="412.0" x2="412.0" y1="292" y2="296" stroke="#3a4150" stroke-width="1"/>
<text x="412.0" y="326" text-anchor="middle" font-family="sans-serif" font-size="11" fill="#9aa0ad">8/31</text>
<line x1="433.9" x2="433.9" y1="292" y2="296" stroke="#3a4150" stroke-width="1"/>
<text x="433.9" y="326" text-anchor="middle" font-family="sans-serif" font-size="11" fill="#9aa0ad">9/1</text>
<line x1="455.8" x2="455.8" y1="292" y2="296" stroke="#3a4150" stroke-width="1"/>
<text x="455.8" y="326" text-anchor="middle" font-family="sans-serif" font-size="11" fill="#9aa0ad">9/2</text>
<line x1="477.6" x2="477.6" y1="292" y2="296" stroke="#3a4150" stroke-width="1"/>
<text x="477.6" y="326" text-anchor="middle" font-family="sans-serif" font-size="11" fill="#9aa0ad">9/3</text>
<line x1="499.5" x2="499.5" y1="292" y2="296" stroke="#3a4150" stroke-width="1"/>
<text x="499.5" y="326" text-anchor="middle" font-family="sans-serif" font-size="11" fill="#9aa0ad">9/4</text>
<line x1="521.4" x2="521.4" y1="292" y2="296" stroke="#3a4150" stroke-width="1"/>
<text x="521.4" y="326" text-anchor="middle" font-family="sans-serif" font-size="11" fill="#9aa0ad">9/5</text>
<line x1="543.2" x2="543.2" y1="292" y2="296" stroke="#3a4150" stroke-width="1"/>
<text x="543.2" y="326" text-anchor="middle" font-family="sans-serif" font-size="11" fill="#9aa0ad">9/6</text>
<line x1="565.1" x2="565.1" y1="292" y2="296" stroke="#3a4150" stroke-width="1"/>
<text x="565.1" y="326" text-anchor="middle" font-family="sans-serif" font-size="11" fill="#9aa0ad">9/7</text>
<line x1="587.0" x2="587.0" y1="292" y2="296" stroke="#3a4150" stroke-width="1"/>
<text x="587.0" y="326" text-anchor="middle" font-family="sans-serif" font-size="11" fill="#9aa0ad">9/8</text>
<line x1="608.9" x2="608.9" y1="292" y2="296" stroke="#3a4150" stroke-width="1"/>
<text x="608.9" y="326" text-anchor="middle" font-family="sans-serif" font-size="11" fill="#9aa0ad">9/9</text>
<line x1="630.8" x2="630.8" y1="292" y2="296" stroke="#3a4150" stroke-width="1"/>
<text x="630.8" y="326" text-anchor="middle" font-family="sans-serif" font-size="11" fill="#9aa0ad">9/10</text>
<line x1="652.6" x2="652.6" y1="292" y2="296" stroke="#3a4150" stroke-width="1"/>
<text x="652.6" y="326" text-anchor="middle" font-family="sans-serif" font-size="11" fill="#9aa0ad">9/11</text>
<line x1="674.5" x2="674.5" y1="292" y2="296" stroke="#3a4150" stroke-width="1"/>
<text x="674.5" y="326" text-anchor="middle" font-family="sans-serif" font-size="11" fill="#9aa0ad">9/12</text>
<line x1="696.4" x2="696.4" y1="292" y2="296" stroke="#3a4150" stroke-width="1"/>
<text x="696.4" y="326" text-anchor="middle" font-family="sans-serif" font-size="11" fill="#9aa0ad">9/13</text>
<line x1="718.2" x2="718.2" y1="292" y2="296" stroke="#3a4150" stroke-width="1"/>
<text x="718.2" y="326" text-anchor="middle" font-family="sans-serif" font-size="11" fill="#9aa0ad">9/14</text>
<line x1="740.1" x2="740.1" y1="292" y2="296" stroke="#3a4150" stroke-width="1"/>
<text x="740.1" y="326" text-anchor="middle" font-family="sans-serif" font-size="11" fill="#9aa0ad">9/15</text>
<line x1="762.0" x2="762.0" y1="292" y2="296" stroke="#3a4150" stroke-width="1"/>
<text x="762.0" y="326" text-anchor="middle" font-family="sans-serif" font-size="11" fill="#9aa0ad">9/16</text>
<line x1="62" x2="62" y1="30" y2="292" stroke="#3a4150" stroke-width="1.2"/>
<line x1="62" x2="762" y1="292" y2="292" stroke="#3a4150" stroke-width="1.2"/>
<text x="14" y="161.0" text-anchor="middle" transform="rotate(-90,14,161.0)" font-family="sans-serif" font-size="11" fill="#9aa0ad">Score</text>
<path d="M 62.0,155.8 L 83.9,154.1 L 105.8,152.4 L 127.6,150.7 L 149.5,149.0 L 171.4,147.3 L 193.2,145.6 L 215.1,143.9 L 237.0,142.2 L 258.9,140.5 L 280.8,138.8 L 302.6,137.1 L 324.5,135.4 L 346.4,133.7 L 368.2,132.0 L 390.1,130.3 L 412.0,128.6 L 433.9,126.9 L 455.8,125.2 L 477.6,123.5 L 499.5,121.8 L 521.4,120.1 L 543.2,118.4 L 565.1,116.7 L 587.0,115.0 L 608.9,113.3 L 630.8,111.6 L 652.6,109.9 L 674.5,108.2 L 696.4,106.5 L 718.2,104.8 L 740.1,103.2 L 762.0,101.5" fill="none" stroke="#f2c14e" stroke-width="1.8" opacity="0.95" stroke-dasharray="8 6" stroke-linecap="round" stroke-linejoin="round"/>
<path d="M 62.0,120.3 L 83.9,109.7 L 105.8,213.0 L 127.6,58.7 L 149.5,167.9 L 171.4,204.5 L 193.2,122.1 L 215.1,149.1 L 237.0,158.7 L 258.9,105.3 L 280.8,180.9 L 302.6,208.4 L 324.5,88.9 L 346.4,226.1 L 368.2,85.7 L 390.1,267.3 L 412.0,54.7 L 433.9,111.4 L 455.8,162.6 L 477.6,89.4 L 499.5,60.9 L 521.4,56.8 L 543.2,145.2 L 565.1,108.4 L 587.0,140.2 L 608.9,117.9 L 630.8,108.0 L 652.6,99.0 L 674.5,109.2 L 696.4,41.2 L 718.2,111.4 L 740.1,135.6 L 762.0,126.0" fill="none" stroke="#7aa5ff" stroke-width="2.5" stroke-linecap="round" stroke-linejoin="round"/>
<path d="M 62.0,120.3 L 83.9,109.7 L 105.8,213.0 L 127.6,58.7 L 149.5,167.9 L 171.4,204.5 L 193.2,122.1 L 215.1,149.1 L 237.0,158.7 L 258.9,105.3 L 280.8,180.9 L 302.6,208.4 L 324.5,88.9 L 346.4,226.1 L 368.2,85.7 L 390.1,267.3 L 412.0,54.7 L 433.9,111.4 L 455.8,162.6 L 477.6,89.4 L 499.5,60.9 L 521.4,56.8 L 543.2,145.2 L 565.1,108.4 L 587.0,140.2 L 608.9,117.9 L 630.8,108.0 L 652.6,99.0 L 674.5,109.2 L 696.4,41.2 L 718.2,111.4 L 740.1,135.6 L 762.0,126.0 L 762.0,292.0 L 62.0,292.0 Z" fill="#7aa5ff" opacity="0.08"/>
<circle cx="62.0" cy="120.3" r="4" fill="#7aa5ff" stroke="#0f1115" stroke-width="1.5"><title>8/13: 64,497</title></circle>
<circle cx="83.9" cy="109.7" r="4" fill="#7aa5ff" stroke="#0f1115" stroke-width="1.5"><title>8/14: 66,309</title></circle>
<circle cx="105.8" cy="213.0" r="4" fill="#7aa5ff" stroke="#0f1115" stroke-width="1.5"><title>8/15: 48,569</title></circle>
<circle cx="127.6" cy="58.7" r="4" fill="#7aa5ff" stroke="#0f1115" stroke-width="1.5"><title>8/16: 75,078</title></circle>
<circle cx="149.5" cy="167.9" r="4" fill="#7aa5ff" stroke="#0f1115" stroke-width="1.5"><title>8/17: 56,316</title></circle>
<circle cx="171.4" cy="204.5" r="4" fill="#7aa5ff" stroke="#0f1115" stroke-width="1.5"><title>8/18: 50,037</title></circle>
<circle cx="193.2" cy="122.1" r="4" fill="#7aa5ff" stroke="#0f1115" stroke-width="1.5"><title>8/20: 64,181</title></circle>
<circle cx="215.1" cy="149.1" r="4" fill="#7aa5ff" stroke="#0f1115" stroke-width="1.5"><title>8/21: 59,541</title></circle>
<circle cx="237.0" cy="158.7" r="4" fill="#7aa5ff" stroke="#0f1115" stroke-width="1.5"><title>8/22: 57,891</title></circle>
<circle cx="258.9" cy="105.3" r="4" fill="#7aa5ff" stroke="#0f1115" stroke-width="1.5"><title>8/23: 67,070</title></circle>
<circle cx="280.8" cy="180.9" r="4" fill="#7aa5ff" stroke="#0f1115" stroke-width="1.5"><title>8/24: 54,082</title></circle>
<circle cx="302.6" cy="208.4" r="4" fill="#7aa5ff" stroke="#0f1115" stroke-width="1.5"><title>8/25: 49,359</title></circle>
<circle cx="324.5" cy="88.9" r="4" fill="#7aa5ff" stroke="#0f1115" stroke-width="1.5"><title>8/26: 69,883</title></circle>
<circle cx="346.4" cy="226.1" r="4" fill="#7aa5ff" stroke="#0f1115" stroke-width="1.5"><title>8/27: 46,314</title></circle>
<circle cx="368.2" cy="85.7" r="4" fill="#7aa5ff" stroke="#0f1115" stroke-width="1.5"><title>8/29: 70,427</title></circle>
<circle cx="390.1" cy="267.3" r="4" fill="#7aa5ff" stroke="#0f1115" stroke-width="1.5"><title>8/30: 39,248</title></circle>
<circle cx="412.0" cy="54.7" r="4" fill="#7aa5ff" stroke="#0f1115" stroke-width="1.5"><title>8/31: 75,763</title></circle>
<circle cx="433.9" cy="111.4" r="4" fill="#7aa5ff" stroke="#0f1115" stroke-width="1.5"><title>9/1: 66,013</title></circle>
<circle cx="455.8" cy="162.6" r="4" fill="#7aa5ff" stroke="#0f1115" stroke-width="1.5"><title>9/2: 57,221</title></circle>
<circle cx="477.6" cy="89.4" r="4" fill="#7aa5ff" stroke="#0f1115" stroke-width="1.5"><title>9/3: 69,801</title></circle>
<circle cx="499.5" cy="60.9" r="4" fill="#7aa5ff" stroke="#0f1115" stroke-width="1.5"><title>9/4: 74,700</title></circle>
<circle cx="521.4" cy="56.8" r="4" fill="#7aa5ff" stroke="#0f1115" stroke-width="1.5"><title>9/5: 75,404</title></circle>
<circle cx="543.2" cy="145.2" r="4" fill="#7aa5ff" stroke="#0f1115" stroke-width="1.5"><title>9/6: 60,210</title></circle>
<circle cx="565.1" cy="108.4" r="4" fill="#7aa5ff" stroke="#0f1115" stroke-width="1.5"><title>9/7: 66,528</title></circle>
<circle cx="587.0" cy="140.2" r="4" fill="#7aa5ff" stroke="#0f1115" stroke-width="1.5"><title>9/8: 61,073</title></circle>
<circle cx="608.9" cy="117.9" r="4" fill="#7aa5ff" stroke="#0f1115" stroke-width="1.5"><title>9/9: 64,901</title></circle>
<circle cx="630.8" cy="108.0" r="4" fill="#7aa5ff" stroke="#0f1115" stroke-width="1.5"><title>9/10: 66,608</title></circle>
<circle cx="652.6" cy="99.0" r="4" fill="#7aa5ff" stroke="#0f1115" stroke-width="1.5"><title>9/11: 68,150</title></circle>
<circle cx="674.5" cy="109.2" r="4" fill="#7aa5ff" stroke="#0f1115" stroke-width="1.5"><title>9/12: 66,405</title></circle>
<circle cx="696.4" cy="41.2" r="4" fill="#7aa5ff" stroke="#0f1115" stroke-width="1.5"><title>9/13: 78,080</title></circle>
<circle cx="718.2" cy="111.4" r="4" fill="#7aa5ff" stroke="#0f1115" stroke-width="1.5"><title>9/14: 66,024</title></circle>
<circle cx="740.1" cy="135.6" r="4" fill="#7aa5ff" stroke="#0f1115" stroke-width="1.5"><title>9/15: 61,856</title></circle>
<circle cx="762.0" cy="126.0" r="4" fill="#7aa5ff" stroke="#0f1115" stroke-width="1.5"><title>9/16: 63,514</title></circle>
<text x="390.1" y="281.3" text-anchor="middle" font-family="sans-serif" font-size="10" font-weight="700" fill="#e6e6e6">39,248</text>
<text x="696.4" y="31.2" text-anchor="middle" font-family="sans-serif" font-size="10" font-weight="700" fill="#e6e6e6">78,080</text>
</svg>